<svg width="18" height="18" viewBox="0 0 18 18" fill="none" xmlns="http://www.w3.org/2000/svg">
<path d="M14.1574 14.952L3.04805 3.84258C1.84922 5.22422 1.125 7.02774 1.125 9C1.125 13.3488 4.65117 16.875 9 16.875C10.9723 16.875 12.7758 16.1508 14.1574 14.952ZM14.952 14.1574C16.1508 12.7758 16.875 10.9723 16.875 9C16.875 4.65117 13.3488 1.125 9 1.125C7.02774 1.125 5.22422 1.84922 3.84258 3.04805L14.952 14.1574ZM0 9C0 4.02891 4.02891 0 9 0C13.9711 0 18 4.02891 18 9C18 13.9711 13.9711 18 9 18C4.02891 18 0 13.9711 0 9Z" fill="#93000A"/>
</svg>
