<svg width="14" height="14" viewBox="0 0 14 14" fill="none" xmlns="http://www.w3.org/2000/svg">
<path d="M11.0113 11.6293L2.3707 2.98867C1.43828 4.06328 0.875 5.46602 0.875 7C0.875 10.3824 3.61758 13.125 7 13.125C8.53398 13.125 9.93672 12.5617 11.0113 11.6293ZM11.6293 11.0113C12.5617 9.93672 13.125 8.53398 13.125 7C13.125 3.61758 10.3824 0.875 7 0.875C5.46602 0.875 4.06328 1.43828 2.98867 2.3707L11.6293 11.0113ZM0 7C0 3.13359 3.13359 0 7 0C10.8664 0 14 3.13359 14 7C14 10.8664 10.8664 14 7 14C3.13359 14 0 10.8664 0 7Z" fill="#F9F9FF"/>
</svg>
