<svg width="17" height="18" viewBox="0 0 17 18" fill="none" xmlns="http://www.w3.org/2000/svg">
<path d="M4.2 0C4.53 0 4.8 0.27 4.8 0.6V2.4H12V0.6C12 0.27 12.27 0 12.6 0C12.93 0 13.2 0.27 13.2 0.6V2.4H14.4C15.7238 2.4 16.8 3.47625 16.8 4.8V15.6C16.8 16.9237 15.7238 18 14.4 18H2.4C1.07625 18 0 16.9237 0 15.6V4.8C0 3.47625 1.07625 2.4 2.4 2.4H3.6V0.6C3.6 0.27 3.87 0 4.2 0ZM14.4 3.6H2.4C1.73625 3.6 1.2 4.13625 1.2 4.8V6H15.6V4.8C15.6 4.13625 15.0638 3.6 14.4 3.6ZM15.6 7.2H1.2V15.6C1.2 16.2638 1.73625 16.8 2.4 16.8H14.4C15.0638 16.8 15.6 16.2638 15.6 15.6V7.2Z" fill="#244777"/>
</svg>
