<svg width="14" height="14" viewBox="0 0 14 14" fill="none" xmlns="http://www.w3.org/2000/svg">
<path d="M7 14C3.13359 14 0 10.8664 0 7C0 3.13359 3.13359 0 7 0C10.8664 0 14 3.13359 14 7C14 10.8664 10.8664 14 7 14ZM7 0.875C3.61758 0.875 0.875 3.61758 0.875 7C0.875 10.3824 3.61758 13.125 7 13.125C10.3824 13.125 13.125 10.3824 13.125 7C13.125 3.61758 10.3824 0.875 7 0.875ZM9.27227 4.55547C9.41445 4.36133 9.68789 4.31758 9.88203 4.45977C10.0762 4.60195 10.1199 4.87539 9.97773 5.06953L6.47773 9.88203C6.40117 9.98594 6.28633 10.0516 6.15781 10.0598C6.0293 10.068 5.90352 10.0242 5.81328 9.93398L4.06328 8.18398C3.89375 8.01445 3.89375 7.73555 4.06328 7.56602C4.23281 7.39648 4.51172 7.39648 4.68125 7.56602L6.06758 8.95234L9.2668 4.55547H9.27227Z" fill="#191C20"/>
</svg>
