<svg width="18" height="18" viewBox="0 0 18 18" fill="none" xmlns="http://www.w3.org/2000/svg">
<path d="M16.875 9C16.875 13.3488 13.3488 16.875 9 16.875C4.65117 16.875 1.125 13.3488 1.125 9C1.125 4.65117 4.65117 1.125 9 1.125C13.3488 1.125 16.875 4.65117 16.875 9ZM0 9C0 13.9711 4.02891 18 9 18C13.9711 18 18 13.9711 18 9C18 4.02891 13.9711 0 9 0C4.02891 0 0 4.02891 0 9ZM8.4375 3.9375V9C8.4375 9.18984 8.53242 9.36211 8.68711 9.46758L12.0621 11.7176C12.3223 11.8898 12.6703 11.8195 12.8426 11.5629C13.0148 11.3062 12.9445 10.9547 12.6879 10.7824L9.5625 8.69766V3.9375C9.5625 3.62812 9.30937 3.375 9 3.375C8.69063 3.375 8.4375 3.62812 8.4375 3.9375Z" fill="#64748B"/>
</svg>
