<svg width="24" height="23" viewBox="0 0 24 23" fill="none" xmlns="http://www.w3.org/2000/svg">
<path d="M11.9977 0C12.6868 0 13.3197 0.379731 13.6478 0.984488L23.774 19.7366C24.0881 20.318 24.074 21.0212 23.7365 21.5884C23.399 22.1557 22.7848 22.5026 22.1238 22.5026H1.8715C1.21048 22.5026 0.601037 22.1557 0.263499 21.5884C-0.0740402 21.0212 -0.0881041 20.318 0.225994 19.7366L10.3522 0.984488C10.6803 0.379731 11.3132 0 12.0023 0H11.9977ZM11.9977 1.50017C11.8617 1.50017 11.7351 1.57518 11.6695 1.69707L1.54333 20.4492C1.48239 20.5664 1.48239 20.7071 1.55271 20.8196C1.62303 20.9321 1.74492 21.0024 1.87618 21.0024H22.1285C22.2598 21.0024 22.3817 20.9321 22.452 20.8196C22.5223 20.7071 22.5223 20.5664 22.4614 20.4492L12.3352 1.69707C12.2696 1.57518 12.143 1.50017 12.007 1.50017H11.9977ZM11.9977 18.7521C11.3741 18.7521 10.8725 18.2505 10.8725 17.627C10.8725 17.0035 11.3741 16.5019 11.9977 16.5019C12.6212 16.5019 13.1228 17.0035 13.1228 17.627C13.1228 18.2505 12.6212 18.7521 11.9977 18.7521ZM11.9977 8.25095C12.6352 8.25095 13.1368 8.79476 13.0947 9.42764L12.7477 14.3032C12.7196 14.697 12.3915 15.0017 11.9977 15.0017C11.6039 15.0017 11.2757 14.697 11.2476 14.3032L10.9007 9.42764C10.8538 8.79007 11.3601 8.25095 11.9977 8.25095Z" fill="#191C20"/>
</svg>
