<svg width="14" height="18" viewBox="0 0 14 18" fill="none" xmlns="http://www.w3.org/2000/svg">
<path d="M2.25 1.125H6.75V4.5C6.75 5.74102 7.75898 6.75 9 6.75H12.375V15.75C12.375 16.3723 11.8723 16.875 11.25 16.875H2.25C1.62773 16.875 1.125 16.3723 1.125 15.75V2.25C1.125 1.62773 1.62773 1.125 2.25 1.125ZM7.875 1.59258L11.9074 5.625H9C8.37773 5.625 7.875 5.12227 7.875 4.5V1.59258ZM2.25 0C1.00898 0 0 1.00898 0 2.25V15.75C0 16.991 1.00898 18 2.25 18H11.25C12.491 18 13.5 16.991 13.5 15.75V6.55664C13.5 5.95898 13.2645 5.38594 12.8426 4.96406L8.53242 0.657422C8.11055 0.235547 7.54102 0 6.94336 0H2.25ZM3.9375 9C3.62812 9 3.375 9.25313 3.375 9.5625C3.375 9.87187 3.62812 10.125 3.9375 10.125H9.5625C9.87187 10.125 10.125 9.87187 10.125 9.5625C10.125 9.25313 9.87187 9 9.5625 9H3.9375ZM3.9375 12.375C3.62812 12.375 3.375 12.6281 3.375 12.9375C3.375 13.2469 3.62812 13.5 3.9375 13.5H9.5625C9.87187 13.5 10.125 13.2469 10.125 12.9375C10.125 12.6281 9.87187 12.375 9.5625 12.375H3.9375Z" fill="#64748B"/>
</svg>
