<svg width="18" height="14" viewBox="0 0 18 14" fill="none" xmlns="http://www.w3.org/2000/svg">
<path d="M1.4125 4L8.41875 1.11562C8.60312 1.04062 8.8 1 9 1C9.2 1 9.39688 1.04062 9.58125 1.11562L16.5875 4L9.58125 6.88437C9.39688 6.95937 9.2 7 9 7C8.8 7 8.60312 6.95937 8.41875 6.88437L1.4125 4ZM1 4.9125L3 5.73437V11C3 12.6562 5.6875 14 9 14C12.3125 14 15 12.6562 15 11V5.73437L17.5375 4.69062C17.8188 4.575 18 4.30312 18 4C18 3.69687 17.8188 3.425 17.5375 3.30937L9.9625 0.190625C9.65625 0.0656249 9.33125 0 9 0C8.66875 0 8.34375 0.0656249 8.0375 0.190625L0.4625 3.30937C0.18125 3.425 0 3.69687 0 4V13.5C0 13.775 0.225 14 0.5 14C0.775 14 1 13.775 1 13.5V4.9125ZM4 11V6.14687L8.0375 7.80937C8.34375 7.93437 8.66875 8 9 8C9.33125 8 9.65625 7.93437 9.9625 7.80937L14 6.14687V11C14 11.2469 13.775 11.7375 12.7969 12.2281C11.8781 12.6875 10.5375 13 9 13C7.4625 13 6.125 12.6875 5.20312 12.2281C4.225 11.7375 4 11.2469 4 11Z" fill="#64748B"/>
</svg>
