<svg width="56" height="32" viewBox="0 0 56 32" fill="none" xmlns="http://www.w3.org/2000/svg">
<g clip-path="url(#clip0_2159_5674)">
<path d="M27.6171 7.1503C27.8316 6.9499 28.1691 6.9499 28.3835 7.1503L36.8215 15.0257C37.05 15.2366 37.0605 15.5952 36.8496 15.8203C36.6386 16.0453 36.28 16.0593 36.055 15.8484L35.3132 15.1558V22.7499C35.3132 23.991 34.3041 25 33.0631 25H22.9376C21.6965 25 20.6875 23.991 20.6875 22.7499V15.1558L19.9456 15.8484C19.7171 16.0593 19.362 16.0488 19.1511 15.8203C18.9401 15.5917 18.9507 15.2366 19.1792 15.0257L27.6171 7.1503ZM28.0003 8.33161L21.8125 14.1081V22.7499C21.8125 23.3722 22.3153 23.8749 22.9376 23.8749H25.1877V19.9373C25.1877 18.6962 26.1967 17.6871 27.4378 17.6871H28.5628C29.8039 17.6871 30.813 18.6962 30.813 19.9373V23.8749H33.0631C33.6854 23.8749 34.1881 23.3722 34.1881 22.7499V14.1081L28.0003 8.33161ZM26.3127 23.8749H29.6879V19.9373C29.6879 19.315 29.1851 18.8122 28.5628 18.8122H27.4378C26.8155 18.8122 26.3127 19.315 26.3127 19.9373V23.8749Z" fill="#64748B"/>
</g>
<defs>
<clipPath id="clip0_2159_5674">
<rect width="56" height="32" rx="16" fill="white"/>
</clipPath>
</defs>
</svg>
