<svg width="18" height="18" viewBox="0 0 18 18" fill="none" xmlns="http://www.w3.org/2000/svg">
<path d="M8.6171 0.1503C8.83156 -0.0501001 9.16908 -0.0501001 9.38354 0.1503L17.8215 8.02568C18.05 8.23663 18.0605 8.59524 17.8496 8.82025C17.6386 9.04527 17.28 9.05933 17.055 8.84838L16.3132 8.15577V15.7499C16.3132 16.991 15.3041 18 14.0631 18H3.93757C2.6965 18 1.68746 16.991 1.68746 15.7499V8.15577L0.945629 8.84838C0.717102 9.05933 0.362007 9.04878 0.151059 8.82025C-0.0598889 8.59173 -0.0493417 8.23663 0.179185 8.02568L8.6171 0.1503ZM9.00032 1.33161L2.81252 7.10806V15.7499C2.81252 16.3722 3.31528 16.8749 3.93757 16.8749H6.18768V12.9373C6.18768 11.6962 7.19672 10.6871 8.43779 10.6871H9.56285C10.8039 10.6871 11.813 11.6962 11.813 12.9373V16.8749H14.0631C14.6854 16.8749 15.1881 16.3722 15.1881 15.7499V7.10806L9.00032 1.33161ZM7.31274 16.8749H10.6879V12.9373C10.6879 12.315 10.1851 11.8122 9.56285 11.8122H8.43779C7.8155 11.8122 7.31274 12.315 7.31274 12.9373V16.8749Z" fill="white"/>
</svg>
