<svg width="11" height="14" viewBox="0 0 11 14" fill="none" xmlns="http://www.w3.org/2000/svg">
<path d="M0.4375 0C0.196875 0 0 0.196875 0 0.4375C0 0.678125 0.196875 0.875 0.4375 0.875H0.875V2.0125C0.875 3.36328 1.49844 4.6375 2.56484 5.46602L4.53906 7L2.56484 8.53398C1.49844 9.3625 0.875 10.6395 0.875 11.9875V13.125H0.4375C0.196875 13.125 0 13.3219 0 13.5625C0 13.8031 0.196875 14 0.4375 14H10.0625C10.3031 14 10.5 13.8031 10.5 13.5625C10.5 13.3219 10.3031 13.125 10.0625 13.125H9.625V11.9875C9.625 10.6367 9.00156 9.3625 7.93516 8.53398L5.96094 7L7.93516 5.46602C9.00156 4.6375 9.625 3.36328 9.625 2.0125V0.875H10.0625C10.3031 0.875 10.5 0.678125 10.5 0.4375C10.5 0.196875 10.3031 0 10.0625 0H0.4375ZM8.75 0.875V2.0125C8.75 3.09258 8.25234 4.1125 7.39922 4.77422L5.25 6.44492L3.10078 4.77422C2.24766 4.1125 1.75 3.09258 1.75 2.0125V0.875H8.75ZM5.25 7.55508L7.39922 9.22578C8.25234 9.8875 8.75 10.9074 8.75 11.9875V13.125H1.75V11.9875C1.75 10.9074 2.24766 9.8875 3.10078 9.22578L5.25 7.55508Z" fill="#F9F9FF"/>
</svg>
