<svg width="18" height="18" viewBox="0 0 18 18" fill="none" xmlns="http://www.w3.org/2000/svg">
<path d="M6.24921 3.5C6.66483 3.5 6.99921 3.16562 6.99921 2.75C6.99921 2.33437 6.66483 2 6.24921 2H3.99921C2.34296 2 0.999207 3.34375 0.999207 5V13C0.999207 14.6562 2.34296 16 3.99921 16H6.24921C6.66483 16 6.99921 15.6656 6.99921 15.25C6.99921 14.8344 6.66483 14.5 6.24921 14.5H3.99921C3.17108 14.5 2.49921 13.8281 2.49921 13V5C2.49921 4.17188 3.17108 3.5 3.99921 3.5H6.24921ZM16.7805 9.53125C17.0742 9.2375 17.0742 8.7625 16.7805 8.47188L12.5305 4.21875C12.2367 3.925 11.7617 3.925 11.4711 4.21875C11.1805 4.5125 11.1773 4.9875 11.4711 5.27812L14.4398 8.24687H6.74921C6.33358 8.24687 5.99921 8.58125 5.99921 8.99687C5.99921 9.4125 6.33358 9.74687 6.74921 9.74687H14.4398L11.4711 12.7156C11.1773 13.0094 11.1773 13.4844 11.4711 13.775C11.7648 14.0656 12.2398 14.0687 12.5305 13.775L16.7805 9.53125Z" fill="#64748B"/>
</svg>
