<svg width="14" height="14" viewBox="0 0 14 14" fill="none" xmlns="http://www.w3.org/2000/svg">
<path d="M13.8715 0.746484C14.041 0.576953 14.041 0.298047 13.8715 0.128516C13.702 -0.0410157 13.423 -0.0410157 13.2535 0.128516L11.632 1.75C10.3961 0.661719 8.77461 0 7 0C3.13359 0 0 3.13359 0 7C0 8.77461 0.661719 10.3961 1.75 11.632L0.128516 13.2535C-0.0410157 13.423 -0.0410157 13.702 0.128516 13.8715C0.298047 14.041 0.576953 14.041 0.746484 13.8715L2.36797 12.25C3.60117 13.3383 5.22266 14 7 14C10.8664 14 14 10.8664 14 7C14 5.22539 13.3383 3.60391 12.25 2.36797L13.8715 0.746484ZM11.0113 2.3707L2.3707 11.0113C1.43828 9.93672 0.875 8.53398 0.875 7C0.875 3.61758 3.61758 0.875 7 0.875C8.53398 0.875 9.93672 1.43828 11.0113 2.3707ZM2.98867 11.6293L11.6293 2.98867C12.5617 4.06328 13.125 5.46602 13.125 7C13.125 10.3824 10.3824 13.125 7 13.125C5.46602 13.125 4.06328 12.5617 2.98867 11.6293Z" fill="#191C20"/>
</svg>
