<svg width="56" height="32" viewBox="0 0 56 32" fill="none" xmlns="http://www.w3.org/2000/svg">
<g clip-path="url(#clip0_2159_5666)">
<path d="M23.5 8.125H28V11.5C28 12.741 29.009 13.75 30.25 13.75H33.625V22.75C33.625 23.3723 33.1223 23.875 32.5 23.875H23.5C22.8777 23.875 22.375 23.3723 22.375 22.75V9.25C22.375 8.62773 22.8777 8.125 23.5 8.125ZM29.125 8.59258L33.1574 12.625H30.25C29.6277 12.625 29.125 12.1223 29.125 11.5V8.59258ZM23.5 7C22.259 7 21.25 8.00898 21.25 9.25V22.75C21.25 23.991 22.259 25 23.5 25H32.5C33.741 25 34.75 23.991 34.75 22.75V13.5566C34.75 12.959 34.5145 12.3859 34.0926 11.9641L29.7824 7.65742C29.3605 7.23555 28.791 7 28.1934 7H23.5ZM25.1875 16C24.8781 16 24.625 16.2531 24.625 16.5625C24.625 16.8719 24.8781 17.125 25.1875 17.125H30.8125C31.1219 17.125 31.375 16.8719 31.375 16.5625C31.375 16.2531 31.1219 16 30.8125 16H25.1875ZM25.1875 19.375C24.8781 19.375 24.625 19.6281 24.625 19.9375C24.625 20.2469 24.8781 20.5 25.1875 20.5H30.8125C31.1219 20.5 31.375 20.2469 31.375 19.9375C31.375 19.6281 31.1219 19.375 30.8125 19.375H25.1875Z" fill="#64748B"/>
</g>
<defs>
<clipPath id="clip0_2159_5666">
<rect width="56" height="32" rx="16" fill="white"/>
</clipPath>
</defs>
</svg>
