<svg width="18" height="18" viewBox="0 0 18 18" fill="none" xmlns="http://www.w3.org/2000/svg">
<path d="M6.35294 1.05882H2.11765C1.53199 1.05882 1.05882 1.53199 1.05882 2.11765V14.8235C1.05882 15.4092 1.53199 15.8824 2.11765 15.8824H4.76471V16.9412H2.11765C0.949632 16.9412 0 15.9915 0 14.8235V2.11765C0 0.949632 0.949632 0 2.11765 0H6.53493C7.09743 0 7.63676 0.221691 8.03382 0.61875L12.0871 4.67537C12.4842 5.07243 12.7059 5.61177 12.7059 6.17427V11.121H11.6471V6.35625H8.47059C7.30257 6.35625 6.35294 5.40662 6.35294 4.2386V1.06213V1.05882ZM11.207 5.29412L7.41177 1.4989V4.23529C7.41177 4.82096 7.88493 5.29412 8.47059 5.29412H11.207ZM6.88235 12.7059H7.94118C8.9636 12.7059 9.79412 13.5364 9.79412 14.5588C9.79412 15.5813 8.9636 16.4118 7.94118 16.4118H7.41177V17.4706C7.41177 17.7618 7.17353 18 6.88235 18C6.59118 18 6.35294 17.7618 6.35294 17.4706V13.2353C6.35294 12.9441 6.59118 12.7059 6.88235 12.7059ZM7.94118 15.3529C8.38125 15.3529 8.73529 14.9989 8.73529 14.5588C8.73529 14.1188 8.38125 13.7647 7.94118 13.7647H7.41177V15.3529H7.94118ZM11.1176 12.7059H12.1765C13.0533 12.7059 13.7647 13.4173 13.7647 14.2941V16.4118C13.7647 17.2886 13.0533 18 12.1765 18H11.1176C10.8265 18 10.5882 17.7618 10.5882 17.4706V13.2353C10.5882 12.9441 10.8265 12.7059 11.1176 12.7059ZM12.1765 16.9412C12.4676 16.9412 12.7059 16.7029 12.7059 16.4118V14.2941C12.7059 14.0029 12.4676 13.7647 12.1765 13.7647H11.6471V16.9412H12.1765ZM14.8235 13.2353C14.8235 12.9441 15.0618 12.7059 15.3529 12.7059H16.9412C17.2324 12.7059 17.4706 12.9441 17.4706 13.2353C17.4706 13.5265 17.2324 13.7647 16.9412 13.7647H15.8824V14.8235H16.9412C17.2324 14.8235 17.4706 15.0618 17.4706 15.3529C17.4706 15.6441 17.2324 15.8824 16.9412 15.8824H15.8824V17.4706C15.8824 17.7618 15.6441 18 15.3529 18C15.0618 18 14.8235 17.7618 14.8235 17.4706V13.2353Z" fill="#43474E"/>
</svg>
