<svg width="56" height="32" viewBox="0 0 56 32" fill="none" xmlns="http://www.w3.org/2000/svg">
<g clip-path="url(#clip0_2159_2538)">
<path d="M25.375 12.5C25.375 11.0508 26.5508 9.875 28 9.875C29.4492 9.875 30.625 11.0508 30.625 12.5C30.625 13.9492 29.4492 15.125 28 15.125C26.5508 15.125 25.375 13.9492 25.375 12.5ZM31.5 12.5C31.5 10.5668 29.9332 9 28 9C26.0668 9 24.5 10.5668 24.5 12.5C24.5 14.4332 26.0668 16 28 16C29.9332 16 31.5 14.4332 31.5 12.5ZM22.75 22.125C22.75 19.9512 24.5137 18.1875 26.6875 18.1875H29.3125C31.4863 18.1875 33.25 19.9512 33.25 22.125V22.5625C33.25 22.8031 33.4469 23 33.6875 23C33.9281 23 34.125 22.8031 34.125 22.5625V22.125C34.125 19.4672 31.9703 17.3125 29.3125 17.3125H26.6875C24.0297 17.3125 21.875 19.4672 21.875 22.125V22.5625C21.875 22.8031 22.0719 23 22.3125 23C22.5531 23 22.75 22.8031 22.75 22.5625V22.125Z" fill="#64748B"/>
</g>
<defs>
<clipPath id="clip0_2159_2538">
<rect width="56" height="32" rx="16" fill="white"/>
</clipPath>
</defs>
</svg>
