<svg width="14" height="14" viewBox="0 0 14 14" fill="none" xmlns="http://www.w3.org/2000/svg">
<path d="M10.191 13.2547L12.507 10.9383H0.4375C0.196875 10.9383 0 10.7414 0 10.5007C0 10.26 0.196875 10.0631 0.4375 10.0631H12.507L10.191 7.74663C10.0215 7.57707 10.0215 7.29811 10.191 7.12854C10.3605 6.95898 10.6395 6.95898 10.809 7.12854L13.8715 10.1916C14.041 10.3612 14.041 10.6402 13.8715 10.8097L10.809 13.8728C10.6395 14.0424 10.3605 14.0424 10.191 13.8728C10.0215 13.7033 10.0215 13.4243 10.191 13.2547ZM3.80898 6.25337C3.97852 6.42293 3.97852 6.70189 3.80898 6.87146C3.63945 7.04102 3.36055 7.04102 3.19102 6.87146L0.128516 3.80836C-0.0410157 3.6388 -0.0410157 3.35984 0.128516 3.19027L3.19102 0.127173C3.36055 -0.0423911 3.63945 -0.0423911 3.80898 0.127173C3.97852 0.296738 3.97852 0.575699 3.80898 0.745263L1.49297 3.06173H13.5625C13.8031 3.06173 14 3.25864 14 3.49932C14 3.73999 13.8031 3.9369 13.5625 3.9369H1.49297L3.80898 6.25337Z" fill="#F9F9FF"/>
</svg>
