<svg width="360" height="180" viewBox="0 0 360 180" fill="none" xmlns="http://www.w3.org/2000/svg">
<path d="M301.689 85.2703C301.333 85.2703 300.982 85.1494 300.692 84.8955C300.063 84.3453 300.003 83.39 300.553 82.7612L310.789 71.1163C311.339 70.4875 312.294 70.4271 312.923 70.9773C313.552 71.5275 313.612 72.4828 313.062 73.1116L302.826 84.7564C302.53 85.095 302.113 85.2703 301.689 85.2703Z" fill="#244777"/>
<path d="M294.506 82.5735C293.714 82.5735 293.049 81.9568 293.001 81.1587L292.003 65.6806C291.949 64.8462 292.584 64.1267 293.412 64.0723C294.246 64.0118 294.966 64.6528 295.02 65.4811L296.018 80.9592C296.072 81.7936 295.438 82.5131 294.609 82.5675C294.579 82.5675 294.543 82.5675 294.512 82.5675L294.506 82.5735Z" fill="#244777"/>
<path d="M305.819 91.2552C305.027 91.2552 304.362 90.6384 304.313 89.8403C304.259 89.006 304.893 88.2865 305.722 88.2321L321.2 87.2345C322.04 87.174 322.754 87.8149 322.808 88.6432C322.863 89.4776 322.228 90.1971 321.399 90.2515L305.921 91.2491C305.891 91.2491 305.855 91.2491 305.825 91.2491L305.819 91.2552Z" fill="#244777"/>
<path d="M199.517 0.908203H15.7722C11.4289 0.908203 7.90796 4.42916 7.90796 8.77245V138.912C7.90796 143.255 11.4289 146.776 15.7722 146.776H199.517C203.86 146.776 207.381 143.255 207.381 138.912V8.77245C207.381 4.42916 203.86 0.908203 199.517 0.908203Z" fill="white"/>
<path d="M199.517 147.688H15.7759C10.9355 147.688 6.99976 143.748 6.99976 138.912V8.77615C6.99976 3.93578 10.9355 0 15.7759 0H199.517C204.357 0 208.293 3.93943 208.293 8.77615V138.912C208.293 143.752 204.357 147.688 199.517 147.688ZM15.7759 1.82015C11.9423 1.82015 8.82356 4.93887 8.82356 8.7725V138.908C8.82356 142.742 11.9423 145.86 15.7759 145.86H199.517C203.35 145.86 206.469 142.742 206.469 138.908V8.7725C206.469 4.93887 203.35 1.82015 199.517 1.82015H15.7759Z" fill="#244777"/>
<path d="M202.372 119.929H12.9233V11.1324C12.9233 8.25805 15.2615 5.91992 18.1358 5.91992H197.16C200.035 5.91992 202.372 8.25805 202.372 11.1324V119.929ZM14.7436 118.106H200.545V11.1324C200.545 9.26479 199.024 7.74372 197.156 7.74372H18.1322C16.2646 7.74372 14.7436 9.26479 14.7436 11.1324V118.106Z" fill="#244777"/>
<path d="M132.82 146.775H82.4685V178.794H132.82V146.775Z" fill="white"/>
<path d="M132.82 146.775H82.4685V154.293H132.82V146.775Z" fill="#10002B"/>
<path d="M133.736 179.707H81.5603V145.864H133.736V179.707ZM83.3805 177.883H131.908V147.688H83.3805V177.883Z" fill="#244777"/>
<path d="M223.624 119.732C217.314 119.732 212.178 114.975 212.178 109.124C212.178 103.274 217.314 98.5172 223.624 98.5172C229.934 98.5172 235.07 103.274 235.07 109.124C235.07 114.975 229.934 119.732 223.624 119.732ZM223.624 100.341C218.317 100.341 214.002 104.28 214.002 109.124C214.002 113.968 218.317 117.908 223.624 117.908C228.931 117.908 233.246 113.968 233.246 109.124C233.246 104.28 228.931 100.341 223.624 100.341Z" fill="#244777"/>
<path d="M269.835 133.024H240.421V162.439H269.835V133.024Z" fill="white"/>
<path d="M270.743 163.35H239.506V132.112H270.743V163.35ZM241.333 161.527H268.923V133.936H241.333V161.527Z" fill="#244777"/>
<path d="M319.884 173.833C319.567 173.188 319.217 172.557 318.841 171.951C315 165.75 308.135 161.618 300.304 161.618L274.326 159.487L271.309 154.33H238.922L234.297 159.954L205.495 168.833L170 170.568L149 178.791H159.091L322.777 179.053L319.884 173.83V173.833Z" fill="#EDAE00"/>
<path d="M324.327 179.969L148.5 177.886L170 167.902H205.43L233.768 159.166L238.491 153.421H271.834L274.876 158.619L300.348 160.706C308.248 160.72 315.452 164.74 319.621 171.47C320.012 172.101 320.377 172.754 320.698 173.41L324.331 179.969H324.327ZM160.181 177.882L321.227 178.141L319.063 174.235C318.764 173.625 318.429 173.016 318.064 172.429C314.223 166.228 307.581 162.529 300.3 162.529H300.227L273.775 160.359L270.784 155.245H239.349L234.826 160.749L205.561 169.77L205.353 169.737L170 171.069L153 177.939L160.181 177.882Z" fill="#244777"/>
<path d="M233.626 87.79C233.626 87.79 216.281 112.867 219.798 133.024C223.314 153.18 255.128 144.725 255.128 144.725L262.511 138.853L269.835 133.024C269.835 133.024 282.843 106.305 275.11 94.1185C267.377 81.9319 244.175 78.1822 233.626 87.79Z" fill="white"/>
<path d="M240.913 147.403C228.256 147.403 220.52 142.464 218.9 133.181C215.362 112.889 232.159 88.3078 232.874 87.2719L232.933 87.188L233.009 87.1187C237.963 82.6066 246.097 80.6077 254.767 81.7677C264.058 83.0115 271.951 87.4469 275.876 93.6333C283.791 106.108 271.192 132.316 270.652 133.425C270.433 133.877 269.886 134.067 269.434 133.844C268.982 133.626 268.792 133.078 269.015 132.626C269.142 132.364 281.708 106.225 274.336 94.6109C270.751 88.9607 263.16 84.7331 254.526 83.5769C246.429 82.4935 238.885 84.2918 234.315 88.399C233.224 90.0112 217.383 113.896 220.695 132.871C221.676 138.488 225.108 142.296 230.901 144.185C236.19 145.911 242.486 145.717 246.834 145.25C247.333 145.199 247.786 145.561 247.837 146.06C247.891 146.56 247.527 147.012 247.027 147.063C244.879 147.293 242.836 147.41 240.91 147.41L240.913 147.403Z" fill="#244777"/>
<path d="M223.077 87.5565C223.077 87.5565 228.234 97.4014 246.279 100.914C246.279 100.914 240.184 106.323 244.404 116.508C248.624 126.695 240.421 140.02 255.128 144.722C269.835 149.427 280.497 127.396 280.497 127.396C280.497 127.396 291.174 110.135 293.235 99.4185C293.756 96.6974 290.714 94.735 288.405 96.2707C287.129 97.1205 285.925 97.6385 285.392 97.0804C285.319 97.0038 285.254 96.6755 285.195 96.1795C284.298 88.6982 279.753 82.1471 273.155 78.5068C263.35 73.0974 249.318 69.1726 232.455 73.7248C228.424 74.8118 218.532 78.412 223.08 87.5529L223.077 87.5565Z" fill="#10002B"/>
<path d="M259.232 146.29C257.766 146.29 256.299 146.061 254.851 145.597C244.678 142.344 244.776 135.005 244.875 127.91C244.926 124.157 244.977 120.272 243.565 116.861C240.283 108.932 242.902 103.734 244.568 101.494C227.538 97.7006 222.486 88.3919 222.271 87.9834L222.263 87.9652C220.804 85.0325 220.604 82.3442 221.669 79.9769C223.573 75.742 229.095 73.6921 232.218 72.8495C250.284 67.9726 264.692 72.8021 273.596 77.7154C280.505 81.5272 285.177 88.3883 286.1 96.0774C286.115 96.2051 286.129 96.3072 286.144 96.3911C286.388 96.3473 286.921 96.1686 287.902 95.5157C289.295 94.5892 291.028 94.5892 292.418 95.5157C293.782 96.4239 294.438 97.9888 294.132 99.5974C292.097 110.205 282.004 126.703 281.3 127.841C281.019 128.41 278.385 133.655 274.005 138.444C269.252 143.635 264.222 146.29 259.235 146.29H259.232ZM223.887 87.1372C224.047 87.429 229.303 96.6793 246.454 100.02L248.263 100.374L246.885 101.6C246.659 101.804 241.348 106.743 245.247 116.165C246.804 119.922 246.75 123.996 246.695 127.936C246.6 134.957 246.516 141.02 255.406 143.861C269.183 148.271 279.575 127.221 279.677 127.005L279.72 126.922C279.826 126.75 290.335 109.679 292.337 99.2545C292.509 98.3681 292.159 97.5365 291.404 97.0331C290.802 96.6319 289.828 96.4239 288.909 97.0331C288.103 97.5693 285.958 98.9955 284.732 97.7152C284.491 97.4635 284.389 97.1316 284.287 96.2963C283.434 89.1907 279.108 82.8403 272.713 79.313C264.101 74.5638 250.171 69.8913 232.692 74.6113C229.883 75.37 224.93 77.1719 223.332 80.7247C222.504 82.5667 222.69 84.7261 223.89 87.1408L223.887 87.1372Z" fill="#244777"/>
<path d="M239.484 116.511C239.484 116.511 250.966 109.409 252.841 114.421C253.717 116.759 253.367 119.845 252.743 122.468C251.991 125.645 249.124 127.87 245.856 127.87H239.48V116.511H239.484Z" fill="white"/>
<path d="M245.86 128.778H239.484C238.98 128.778 238.572 128.37 238.572 127.867C238.572 127.363 238.98 126.955 239.484 126.955H245.86C248.734 126.955 251.203 125.021 251.856 122.253C252.604 119.101 252.648 116.504 251.988 114.735C251.791 114.21 251.451 113.882 250.923 113.699C248.198 112.765 242.084 115.968 239.962 117.281C239.535 117.547 238.973 117.412 238.707 116.986C238.441 116.559 238.576 115.997 239.002 115.731C239.859 115.202 247.487 110.595 251.514 111.974C252.553 112.331 253.308 113.065 253.695 114.097C254.494 116.234 254.472 119.12 253.633 122.672C252.783 126.265 249.584 128.775 245.86 128.775V128.778Z" fill="#244777"/>
<path d="M242.227 122.308C241.723 122.308 241.315 121.899 241.315 121.396C241.315 120.893 241.723 120.484 242.227 120.484C243.383 120.484 246.629 120.178 247.735 118.806C248.052 118.416 248.625 118.354 249.019 118.668C249.409 118.985 249.471 119.558 249.157 119.952C247.312 122.242 242.745 122.308 242.227 122.308Z" fill="#244777"/>
<path d="M243.638 115.246C243.555 115.246 243.467 115.235 243.38 115.209L213.579 106.408C213.097 106.265 212.82 105.758 212.962 105.273C213.104 104.792 213.611 104.515 214.096 104.657L243.897 113.458C244.379 113.601 244.656 114.108 244.514 114.593C244.397 114.99 244.032 115.246 243.638 115.246Z" fill="#244777"/>
<path d="M359.088 179.968H0.911901C0.408531 179.968 0 179.56 0 179.056C0 178.553 0.408531 178.145 0.911901 178.145H359.088C359.591 178.145 360 178.553 360 179.056C360 179.56 359.591 179.968 359.088 179.968Z" fill="#244777"/>
<path d="M110.74 100.528L168.843 99.8114C170.188 99.7948 171.275 98.6198 171.257 97.2003L170.74 55.261C170.723 53.8415 169.607 52.6937 168.262 52.7103L110.16 53.4269C108.814 53.4435 107.727 54.6184 107.745 56.0379L108.262 97.9772C108.28 99.3967 109.395 100.544 110.74 100.528Z" fill="#244777"/>
<path d="M140.431 86.3817C139.358 86.3949 138.28 86.0292 137.418 85.2187L113.96 63.7488L115.237 62.3435L138.695 83.8134C139.684 84.7171 141.167 84.6672 142.102 83.7398L164.424 61.7053L165.766 63.0467L143.444 85.0813C142.602 85.9443 141.535 86.3681 140.431 86.3817Z" fill="white"/>
<path d="M129.07 76.2765L116.767 90.4686L118.197 91.7103L130.5 77.5182L129.07 76.2765Z" fill="white"/>
<path d="M151.868 75.4968L150.474 76.7784L162.832 90.2431L164.226 88.9614L151.868 75.4968Z" fill="white"/>
<path d="M195.612 109.573H91.3993L86.2114 38.0684H190.424L195.612 109.573ZM93.4927 107.295H193.155L188.331 40.3456H88.6689L93.4927 107.295Z" fill="#E1EAF9"/>
<path d="M21 38.5264L21.9102 55.8331H80.1602L79.2501 38.5264H21Z" fill="#E1EAF9"/>
<path d="M22.366 61.7705L22.821 67.6912H81.0711L80.616 61.7705H22.366Z" fill="#E1EAF9"/>
<path d="M23.2758 73.6205L23.7309 79.5413H81.981L81.5259 73.6205H23.2758Z" fill="#E1EAF9"/>
<path d="M24.1848 85.4116L24.6399 91.3323H82.89L82.4349 85.4116H24.1848Z" fill="#E1EAF9"/>
<path d="M84.8035 104.111H24.7331L24.1415 96.3683H84.2119L84.8035 104.111ZM26.4169 102.289H82.8466L82.5281 98.1901H26.0983L26.4169 102.289Z" fill="#E1EAF9"/>
<path d="M182.71 50.5081C189.176 50.5081 194.418 45.2619 194.418 38.7904C194.418 32.3189 189.176 27.0728 182.71 27.0728C176.243 27.0728 171.001 32.3189 171.001 38.7904C171.001 45.2619 176.243 50.5081 182.71 50.5081Z" fill="#FA7E7E"/>
<path d="M187.895 42.8212C188.344 43.2698 188.344 43.9962 187.895 44.4448C187.672 44.6687 187.378 44.7811 187.084 44.7811C186.79 44.7811 186.496 44.6687 186.272 44.4448L182.232 40.4045L178.192 44.4448C177.968 44.6687 177.674 44.7811 177.38 44.7811C177.086 44.7811 176.792 44.6687 176.568 44.4448C176.12 43.9962 176.12 43.2698 176.568 42.8212L180.609 38.7809L176.568 34.7415C176.12 34.2928 176.12 33.5664 176.568 33.1178C177.017 32.6692 177.743 32.6692 178.192 33.1178L182.232 37.1581L186.272 33.1178C186.72 32.6692 187.447 32.6692 187.895 33.1178C188.344 33.5664 188.344 34.2928 187.895 34.7415L183.855 38.7809L187.895 42.8212Z" fill="white"/>
</svg>
