<svg width="360" height="229" viewBox="0 0 360 229" fill="none" xmlns="http://www.w3.org/2000/svg">
<path d="M291.995 67.505C290.321 67.505 289.319 67.2442 289.206 67.2168L287.469 66.7433L288.931 65.6933C293.158 62.6601 295.749 59.1224 297.238 56.5044C290.757 50.8634 287.051 42.7588 287.051 34.1463C287.051 17.8101 300.344 4.5174 316.68 4.5174C333.016 4.5174 346.309 17.8101 346.309 34.1463C346.309 50.4825 333.016 63.7752 316.68 63.7752C313.197 63.7752 309.786 63.1748 306.54 61.9944C300.323 66.6506 295.039 67.5084 291.992 67.5084L291.995 67.505Z" fill="#EDAE00"/>
<path d="M314.47 45.5398L305.102 36.1717C304.581 35.6503 304.581 34.8098 305.102 34.2885C305.623 33.7671 306.464 33.7671 306.985 34.2885L314.47 41.7734L330.015 26.229C330.536 25.7077 331.377 25.7077 331.898 26.229C332.419 26.7504 332.419 27.5909 331.898 28.1122L314.47 45.5398Z" fill="#244777"/>
<path d="M193.621 226.277H312.916V220.416C312.916 220.416 348.34 220.694 342.61 177.995C336.88 135.297 326.459 98.7368 308.489 89.5273C290.516 80.3178 264.991 79.4805 264.991 79.4805C264.991 79.4805 214.459 75.5723 196.225 87.8528C177.992 100.133 151.684 151.204 149.862 179.67C148.04 208.136 193.621 193.343 193.621 193.343V226.273V226.277Z" fill="#EDAE00"/>
<path d="M313.773 227.134H192.763V194.507C187.424 196.088 165.022 202.031 154.44 193.807C150.428 190.691 148.603 185.918 149.004 179.615C149.859 166.254 156.262 146.699 166.123 127.302C175.912 108.053 186.985 93.0408 195.745 87.1425C213.969 74.8723 262.716 78.4477 265.039 78.6261C265.897 78.657 291.161 79.6864 308.881 88.7655C325.001 97.0245 336.633 127.007 343.461 177.882C345.379 192.184 342.953 203.294 336.241 210.905C328.308 219.901 316.992 221.095 313.773 221.25V227.134ZM194.479 225.419H312.058V219.551L312.923 219.558C313.063 219.544 326.363 219.527 334.968 209.755C341.327 202.536 343.612 191.889 341.762 178.112C338.657 154.975 334.474 135.925 329.334 121.493C323.46 104.999 316.313 94.5025 308.098 90.2924C290.499 81.275 265.214 80.3486 264.964 80.3383H264.926C264.425 80.2971 214.483 76.5914 196.706 88.5665C178.277 100.977 152.487 152.096 150.72 179.725C150.356 185.424 151.962 189.706 155.493 192.451C166.583 201.067 193.093 192.616 193.357 192.527L194.479 192.163V225.415V225.419Z" fill="#244777"/>
<path d="M298.247 160.4C297.969 160.4 297.695 160.262 297.53 160.012C290.18 148.812 286.313 135.269 286.646 121.877C286.656 121.403 287.037 121.029 287.524 121.04C287.998 121.05 288.372 121.445 288.362 121.918C288.036 134.964 291.803 148.16 298.964 159.068C299.225 159.463 299.115 159.995 298.717 160.255C298.573 160.352 298.408 160.396 298.247 160.396V160.4Z" fill="#244777"/>
<path d="M336.011 192.235C336.011 192.235 335.991 192.235 335.984 192.235C335.51 192.218 335.14 191.823 335.154 191.349C335.387 184.26 332.175 177.003 326.778 172.409C321.377 167.814 313.698 165.807 306.743 167.169C306.28 167.262 305.827 166.957 305.737 166.493C305.645 166.027 305.95 165.577 306.413 165.488C313.983 164.002 322.015 166.102 327.893 171.105C333.771 176.104 337.127 183.694 336.873 191.408C336.859 191.871 336.475 192.238 336.015 192.238L336.011 192.235Z" fill="#244777"/>
<path d="M302.114 164.925C301.809 164.925 301.514 164.761 301.359 164.472C301.136 164.054 301.29 163.536 301.709 163.309C311.502 158.032 323.693 157.998 333.517 163.22C333.935 163.443 334.093 163.961 333.874 164.38C333.651 164.798 333.133 164.956 332.714 164.733C323.532 159.854 311.68 159.888 302.526 164.819C302.395 164.888 302.258 164.922 302.121 164.922L302.114 164.925Z" fill="#244777"/>
<path d="M222.248 184.374H172.787C168.158 184.374 164.129 181.21 163.035 176.712L144.925 102.353C143.967 98.4173 146.949 94.6189 151.001 94.6189H200.463C205.092 94.6189 209.12 97.7825 210.215 102.281L228.325 176.64C229.282 180.575 226.3 184.374 222.248 184.374Z" fill="white"/>
<path d="M222.248 185.231H172.786C167.746 185.231 163.395 181.81 162.201 176.917L144.091 102.558C143.573 100.424 144.05 98.2111 145.408 96.4817C146.767 94.7524 148.802 93.7642 150.998 93.7642H200.46C205.5 93.7642 209.851 97.1851 211.045 102.078L229.155 176.437C229.677 178.571 229.196 180.784 227.838 182.514C226.482 184.24 224.444 185.231 222.248 185.231ZM151.001 95.4798C149.334 95.4798 147.79 96.2312 146.76 97.542C145.731 98.8527 145.367 100.534 145.762 102.154L163.872 176.512C164.877 180.637 168.545 183.519 172.79 183.519H222.252C223.919 183.519 225.463 182.768 226.493 181.457C227.522 180.146 227.886 178.465 227.491 176.849L209.381 102.49C208.376 98.3655 204.708 95.4832 200.463 95.4832H151.001V95.4798Z" fill="#231F20"/>
<path d="M219.335 187.655H169.873C165.245 187.655 161.216 184.491 160.122 179.993L142.012 105.634C141.054 101.698 144.036 97.8998 148.088 97.8998H197.55C202.179 97.8998 206.207 101.063 207.302 105.562L225.412 179.921C226.369 183.856 223.387 187.655 219.335 187.655Z" fill="#244777"/>
<path d="M219.335 188.512H169.873C164.833 188.512 160.482 185.091 159.288 180.198L141.178 105.839C140.656 103.705 141.137 101.492 142.495 99.7626C143.851 98.0367 145.889 97.045 148.085 97.045H197.547C202.587 97.045 206.938 100.466 208.132 105.359L226.242 179.718C226.76 181.852 226.283 184.065 224.925 185.795C223.569 187.52 221.531 188.512 219.335 188.512ZM148.088 98.7607C146.421 98.7607 144.877 99.5121 143.847 100.823C142.818 102.134 142.454 103.815 142.849 105.431L160.959 179.79C161.964 183.914 165.632 186.796 169.877 186.796H219.339C221.006 186.796 222.55 186.045 223.58 184.734C224.609 183.424 224.973 181.742 224.578 180.123L206.468 105.764C205.463 101.639 201.795 98.7572 197.55 98.7572H148.088V98.7607Z" fill="#231F20"/>
<path d="M274.359 195.299C263.653 187.094 253.795 177.83 243.069 169.653C240.907 168.006 238.581 166.346 235.88 166.016C233.074 165.673 230.329 166.819 227.642 167.701C220.985 169.887 213.828 170.494 206.886 169.564C202.35 168.957 192.993 168.161 192.873 162.197C190.035 162.396 187.404 159.185 188.646 156.457C186.944 156.587 185.328 154.961 185.468 153.255C185.609 151.553 187.472 150.215 189.13 150.62C190.053 147.069 194.239 145.978 197.461 146.139C202.436 146.389 207.569 145.731 212.555 145.436C213.608 145.374 214.686 145.309 215.663 144.904C219.325 143.397 218.35 136.497 217.63 133.474C219.819 132.925 221.764 133.045 223.953 133.169C225.535 133.258 227.536 133.073 229.052 133.618C231.684 134.569 234.631 135.773 237.044 137.211C244.489 141.637 251.067 147.367 258.702 151.588C268.049 156.755 278.123 160.53 288.416 163.384C295.547 165.361 302.852 166.922 309.563 170.041C319.473 174.642 327.145 179.892 328.569 191.414C329.214 196.64 328.216 202.161 325.254 206.515C319.644 214.761 310.754 214.853 302.303 211.655C292.153 207.812 282.933 201.866 274.355 195.288L274.359 195.299Z" fill="white"/>
<path d="M311.838 214.459C308.812 214.459 305.514 213.8 302.001 212.469C293.028 209.072 284.076 203.829 273.837 195.982C268.532 191.916 263.355 187.524 258.352 183.279C253.243 178.946 247.959 174.465 242.551 170.34C240.379 168.683 238.227 167.173 235.781 166.875C233.561 166.603 231.265 167.386 229.049 168.141C228.671 168.271 228.291 168.398 227.917 168.522C221.222 170.721 213.914 171.376 206.78 170.419C206.492 170.381 206.186 170.34 205.864 170.299C201.287 169.712 192.938 168.645 192.091 163.038C190.66 162.87 189.298 162.036 188.399 160.739C187.644 159.648 187.349 158.389 187.541 157.209C186.892 157.034 186.275 156.673 185.764 156.159C184.947 155.339 184.532 154.258 184.621 153.198C184.71 152.134 185.297 151.139 186.237 150.463C186.93 149.965 187.73 149.701 188.519 149.701H188.539C189.919 146.201 194.143 145.127 197.512 145.295C201.019 145.474 204.677 145.182 208.214 144.904C209.628 144.791 211.086 144.678 212.514 144.592C213.485 144.534 214.49 144.475 215.344 144.125C218.182 142.959 217.595 137.016 216.803 133.687L216.607 132.864L217.431 132.658C219.716 132.085 221.754 132.202 223.916 132.322L224.012 132.329C224.427 132.353 224.876 132.356 225.35 132.36C226.647 132.37 228.116 132.38 229.351 132.826C232.744 134.051 235.407 135.249 237.49 136.487C240.942 138.539 244.249 140.9 247.451 143.182C251.184 145.844 255.041 148.596 259.124 150.854C267.75 155.623 277.409 159.456 288.653 162.575C290.16 162.994 291.704 163.399 293.2 163.793C298.793 165.269 304.578 166.792 309.934 169.28C320.612 174.238 328.017 179.886 329.43 191.329C330.147 197.118 328.919 202.69 325.975 207.02C322.623 211.951 317.761 214.466 311.849 214.47L311.838 214.459ZM234.837 165.097C235.218 165.097 235.603 165.118 235.99 165.166C238.862 165.516 241.322 167.238 243.594 168.971C249.036 173.123 254.337 177.618 259.464 181.969C264.453 186.203 269.613 190.578 274.884 194.62C284.989 202.364 293.797 207.528 302.612 210.863C309.381 213.426 318.68 214.672 324.551 206.042C327.221 202.117 328.377 196.826 327.722 191.528C326.4 180.836 319.658 175.679 309.206 170.827C303.988 168.405 298.278 166.899 292.757 165.444C291.258 165.049 289.71 164.641 288.19 164.219C276.815 161.065 267.036 157.181 258.29 152.347C254.121 150.041 250.22 147.261 246.449 144.571C243.278 142.31 239.998 139.97 236.608 137.956C234.618 136.772 232.051 135.623 228.761 134.435C227.8 134.089 226.544 134.079 225.329 134.068C224.832 134.065 224.362 134.061 223.905 134.034L223.813 134.027C221.984 133.924 220.371 133.832 218.656 134.14C219.215 136.944 220.165 143.991 215.996 145.707C214.874 146.167 213.673 146.239 212.613 146.301C211.206 146.383 209.755 146.5 208.348 146.61C204.756 146.894 201.043 147.186 197.426 147.004C195.055 146.884 190.821 147.557 189.967 150.844L189.754 151.664L188.931 151.461C188.392 151.328 187.757 151.475 187.236 151.849C186.714 152.227 186.374 152.779 186.326 153.331C186.282 153.884 186.525 154.488 186.978 154.944C187.431 155.4 188.038 155.647 188.584 155.606L190.032 155.496L189.428 156.818C189.009 157.737 189.143 158.808 189.802 159.758C190.526 160.801 191.703 161.426 192.815 161.347L193.714 161.285L193.731 162.187C193.827 167.032 201.496 168.014 206.073 168.6C206.399 168.642 206.708 168.683 207 168.721C213.876 169.644 220.92 169.009 227.371 166.892C227.742 166.772 228.116 166.645 228.486 166.514C230.531 165.818 232.635 165.101 234.827 165.101L234.837 165.097Z" fill="#244777"/>
<path d="M205.304 154.031C199.996 154.031 194.65 153.259 189.596 151.749C189.143 151.612 188.886 151.135 189.02 150.682C189.157 150.229 189.634 149.968 190.087 150.106C196.661 152.072 203.743 152.744 210.568 152.051C211.042 152.003 211.46 152.346 211.508 152.816C211.556 153.287 211.213 153.709 210.743 153.757C208.942 153.938 207.126 154.031 205.304 154.031Z" fill="#244777"/>
<path d="M204.241 158.952C199.242 158.952 194.235 158.355 189.411 157.168C188.951 157.054 188.67 156.591 188.783 156.131C188.896 155.672 189.36 155.39 189.819 155.503C197.8 157.466 206.303 157.768 214.408 156.375C214.874 156.296 215.317 156.608 215.399 157.075C215.478 157.542 215.166 157.984 214.699 158.067C211.261 158.657 207.754 158.952 204.244 158.952H204.241Z" fill="#244777"/>
<path d="M203.541 164.036C200.093 164.036 196.644 163.676 193.288 162.956C192.825 162.856 192.53 162.4 192.63 161.937C192.729 161.473 193.189 161.178 193.649 161.278C200.199 162.685 207.116 162.667 213.66 161.23C214.123 161.127 214.579 161.422 214.682 161.882C214.785 162.345 214.49 162.801 214.03 162.904C210.602 163.659 207.072 164.036 203.544 164.036H203.541Z" fill="#244777"/>
<path d="M241.472 44.1751C242.739 40.4968 240.785 36.4876 237.106 35.2203C233.428 33.953 229.419 35.9076 228.151 39.5859C226.884 43.2642 228.839 47.2734 232.517 48.5406C236.195 49.8079 240.205 47.8534 241.472 44.1751Z" fill="#FFD500"/>
<path d="M230.003 96.3109C230.003 96.3109 241.46 116.391 259.879 100.027L249.571 92.1728L235.4 91.9052L229.999 96.3109H230.003Z" fill="#244777"/>
<path d="M238.423 95.9641C243.759 98.3832 253.143 100.428 262.267 91.5858C264.295 89.6197 265.125 86.7237 264.501 83.9719L257.086 51.3337L236.632 52.768L234.271 88.9952C234.079 91.953 235.723 94.7392 238.423 95.9607V95.9641Z" fill="white"/>
<path d="M247.574 98.8872C243.724 98.8872 240.389 97.7995 238.07 96.7461C235.071 95.3873 233.201 92.2512 233.413 88.9434L235.822 51.9682L257.758 50.4276L265.334 83.7828C266.027 86.8263 265.077 90.0552 262.86 92.2031C257.587 97.3123 252.203 98.8906 247.571 98.8906L247.574 98.8872ZM237.438 53.574L235.129 89.0532C234.961 91.6541 236.426 94.1178 238.78 95.1849C244.541 97.7995 253.191 99.1892 261.67 90.9713C263.461 89.2351 264.223 86.6273 263.663 84.1637L256.413 52.2427L237.438 53.574Z" fill="#244777"/>
<path d="M252.927 97.5496C252.927 97.5496 262.552 99.4677 265.619 105.044C266.041 105.809 267.129 105.836 267.589 105.095C271.065 99.5055 279.684 83.032 263.382 79.062C263.382 79.062 265.015 90.0558 252.924 97.5496H252.927Z" fill="#244777"/>
<path d="M266.621 106.491C266.604 106.491 266.583 106.491 266.566 106.491C265.849 106.471 265.214 106.086 264.868 105.455C262.027 100.291 252.851 98.4073 252.759 98.3902L250.628 97.9647L252.474 96.8187C263.907 89.7297 262.596 79.6109 262.534 79.182L262.353 77.9261L263.584 78.2247C268.416 79.4016 271.586 81.7589 273.003 85.2279C275.848 92.1865 270.67 101.753 268.313 105.544C267.942 106.138 267.311 106.488 266.614 106.488L266.621 106.491ZM255.013 97.1927C258.088 98.0848 263.989 100.295 266.371 104.628C266.439 104.752 266.552 104.772 266.611 104.776C266.666 104.779 266.786 104.762 266.861 104.642C269.078 101.077 273.964 92.1075 271.421 85.8798C270.334 83.2171 267.949 81.3094 264.322 80.2045C264.381 83.2377 263.602 91.0473 255.013 97.1892V97.1927Z" fill="#244777"/>
<path d="M234.727 80.0635C234.727 80.0635 220.975 82.6747 222.015 99.4021C222.052 100.03 222.814 100.308 223.26 99.8653C225.244 97.8992 230.113 94.5674 239.322 96.3517C239.322 96.3517 233.863 91.3729 234.724 80.0601L234.727 80.0635Z" fill="#244777"/>
<path d="M222.749 100.94C222.557 100.94 222.365 100.905 222.176 100.833C221.589 100.61 221.198 100.082 221.16 99.4539C220.601 90.4537 224.266 85.427 227.436 82.7986C230.874 79.9472 234.419 79.2472 234.57 79.2198L235.671 79.0105L235.585 80.1257C234.769 90.8312 239.857 95.6727 239.905 95.7173L242.115 97.7623L239.164 97.1927C230.435 95.5011 225.837 98.5206 223.868 100.473C223.559 100.778 223.161 100.94 222.749 100.94ZM233.805 81.1962C230.703 82.1844 222.179 86.096 222.859 99.0662C224.972 97.0623 229.423 94.2453 237.253 95.1614C235.695 92.8625 233.52 88.3332 233.808 81.1962H233.805Z" fill="#244777"/>
<path d="M218.844 68.0404C221.342 72.9814 225.196 77.7406 230.576 79.0445C235.613 80.266 240.9 78.1798 245.207 75.2941C251.822 70.8609 257.106 64.3552 259.683 56.8202C262.26 49.2852 262.023 40.7448 258.643 33.5357C255.267 26.3232 248.689 20.5895 240.972 18.6234C236.416 17.4637 231.458 17.6215 227.158 19.519C221.675 21.9346 217.959 27.1501 216.511 32.8323C214.6 40.333 213.447 47.5661 214.716 55.3036C215.44 59.723 216.823 64.0396 218.844 68.0404Z" fill="white"/>
<path d="M233.623 80.2589C232.549 80.2589 231.464 80.1423 230.377 79.8781C224.245 78.3923 220.306 72.8303 218.079 68.428C216.037 64.3928 214.624 60.0214 213.872 55.4441C212.49 47.0169 214.01 39.1799 215.681 32.6228C217.293 26.2887 221.455 21.0972 226.815 18.7365C231.08 16.8561 236.186 16.5233 241.189 17.7963C249.032 19.7933 255.85 25.5441 259.426 33.1752C262.823 40.4323 263.214 49.1546 260.5 57.1014C260.201 57.9695 259.865 58.841 259.494 59.692C259.306 60.1277 258.801 60.3267 258.366 60.1346C257.93 59.9459 257.731 59.4415 257.923 59.0057C258.273 58.1994 258.595 57.3724 258.877 56.5455C261.45 49.0139 261.086 40.7583 257.875 33.8992C254.516 26.7279 248.123 21.3271 240.77 19.457C236.138 18.2767 231.43 18.5786 227.512 20.3046C222.632 22.456 218.834 27.2185 217.348 33.0448C215.722 39.4304 214.239 47.0512 215.571 55.1661C216.295 59.5719 217.657 63.7752 219.616 67.6559C221.678 71.7357 225.292 76.8826 230.785 78.2139C235.966 79.4697 241.23 76.934 244.736 74.5871C247.437 72.7788 249.89 70.6308 252.024 68.2118C252.337 67.8584 252.879 67.8241 253.236 68.1363C253.593 68.4485 253.623 68.9907 253.311 69.3475C251.077 71.8798 248.514 74.1204 245.69 76.0145C242.613 78.0767 238.255 80.2658 233.63 80.2658L233.623 80.2589Z" fill="#244777"/>
<path d="M238.502 38.1574C237.672 36.5928 237.617 34.6129 238.437 33.038C234.844 35.8242 229.063 35.1585 226.197 31.6243C226.204 34.9115 223.288 37.9275 220.001 38.0305C216.717 38.1334 213.615 35.3095 213.413 32.0292C209.697 33.3468 206.468 35.1791 202.57 33.6522C199.612 32.4924 197.385 29.5004 197.598 26.251C197.783 23.4373 199.742 21.1281 202.227 19.9718C204.179 19.0625 203.826 19.3027 204.642 17.292C205.219 15.868 206.262 14.6293 207.593 13.8607C209.532 12.7421 212.03 12.6529 214.044 13.6274C213.876 11.3696 214.843 9.05693 216.562 7.58492C218.282 6.11291 220.718 5.51931 222.924 6.03743C222.763 5.99968 225.954 2.77773 226.359 2.52725C227.944 1.54934 229.797 0.979748 231.657 0.914555C233.441 0.852792 236.282 0.684664 237.799 1.46013C239.713 2.44147 240.887 5.22765 241.014 7.24523C242.74 4.49336 246.143 2.89439 249.362 3.32673C252.58 3.75907 255.446 6.19527 256.386 9.30399C259.512 8.59028 262.994 9.74662 265.07 12.1897C267.149 14.6327 267.733 18.2527 266.528 21.2242C270.841 21.1967 274.582 25.6917 273.768 29.9293C273.501 31.3292 272.821 32.6812 272.921 34.1051C273.068 36.2153 274.846 37.7972 275.8 39.6878C276.856 41.7808 276.86 44.3749 275.807 46.4714C273.12 51.8207 262.613 52.6717 258.3 48.9659C256.976 47.8302 256.166 46.1145 256.132 44.3714C254.862 46.7836 251.846 48.1664 249.18 47.6689C247.543 47.3635 246.758 46.4782 246.023 44.9994C245.814 44.5773 244.496 40.899 245.155 40.6588C243.11 41.4137 240.629 40.7858 239.188 39.1491C238.924 38.8471 238.694 38.5143 238.509 38.1609L238.502 38.1574Z" fill="#244777"/>
<path d="M265.732 52.0817C262.569 52.0817 259.587 51.1998 257.738 49.6112C256.763 48.7739 256.032 47.6588 255.627 46.4372C253.929 48.0911 251.379 48.9455 249.019 48.5097C246.998 48.1357 246.051 46.9862 245.251 45.377C245.237 45.353 244.387 43.3182 244.17 41.7742C242.108 42.0521 239.929 41.2869 238.54 39.712C238.234 39.3654 237.967 38.9777 237.744 38.5591C237.143 37.4302 236.893 36.1263 237.023 34.8499C233.626 36.3047 229.56 35.6905 226.801 33.4362C225.964 36.4042 223.157 38.789 220.028 38.885C216.659 38.9914 213.495 36.4317 212.723 33.1926C212.455 33.2921 212.195 33.395 211.934 33.4945C208.931 34.6509 205.83 35.845 202.254 34.4484C198.778 33.0862 196.51 29.6927 196.74 26.1928C196.932 23.2557 198.895 20.5724 201.863 19.1931L202.11 19.0798C202.676 18.819 203.05 18.6441 203.181 18.5171C203.277 18.421 203.366 18.2014 203.555 17.7107C203.634 17.5049 203.726 17.2613 203.843 16.973C204.505 15.3432 205.682 13.9741 207.161 13.1197C208.976 12.0732 211.193 11.8227 213.196 12.3957C213.392 10.3095 214.404 8.2988 216 6.93659C217.777 5.41655 220.237 4.73373 222.547 5.09401C222.821 4.77833 223.236 4.34256 223.864 3.71121C224.478 3.09015 225.559 2.01274 225.902 1.8C227.635 0.732877 229.612 0.128978 231.622 0.060353L232.007 0.046625C233.935 -0.0254314 236.577 -0.124935 238.186 0.698567C239.799 1.5255 240.948 3.39897 241.504 5.24841C243.549 3.1725 246.548 2.08479 249.472 2.47939C252.797 2.92545 255.71 5.23812 256.948 8.33311C260.17 7.88705 263.612 9.16005 265.722 11.6374C267.75 14.0187 268.481 17.4397 267.685 20.4592C269.579 20.7577 271.373 21.8042 272.729 23.4341C274.359 25.3933 275.045 27.8227 274.609 30.0942C274.51 30.6226 274.355 31.1304 274.211 31.6245C273.957 32.472 273.72 33.2749 273.775 34.0504C273.858 35.2067 274.575 36.243 275.333 37.341C275.762 37.962 276.208 38.6071 276.561 39.3037C277.738 41.6335 277.738 44.526 276.568 46.8593C275.364 49.2577 272.629 51.0454 269.068 51.7591C267.959 51.9822 266.834 52.0885 265.729 52.0885L265.732 52.0817ZM256.917 41.0296L256.986 44.3476C257.017 45.8505 257.717 47.3328 258.856 48.3107C260.97 50.1224 264.94 50.8293 268.731 50.0709C271.771 49.4602 274.07 48.0088 275.038 46.0838C275.971 44.2275 275.968 41.9251 275.031 40.0723C274.733 39.4786 274.338 38.9125 273.923 38.312C273.065 37.0699 272.176 35.79 272.063 34.1636C271.988 33.0793 272.283 32.0877 272.567 31.1304C272.708 30.6569 272.842 30.2108 272.924 29.7682C273.257 28.0285 272.691 26.0693 271.408 24.5287C270.135 22.9949 268.323 22.0822 266.563 22.0822C266.552 22.0822 266.542 22.0822 266.532 22.0822L265.249 22.089L265.729 20.9018C266.813 18.222 266.285 14.9452 264.411 12.7457C262.538 10.5428 259.388 9.49632 256.571 10.1414L255.792 10.3198L255.562 9.55464C254.721 6.77532 252.124 4.56559 249.245 4.18129C246.37 3.79699 243.282 5.24498 241.738 7.7052L240.324 9.96296L240.156 7.30374C240.039 5.48174 238.955 3.02496 237.407 2.22891C236.196 1.60785 233.715 1.70049 232.075 1.76225L231.688 1.77598C229.975 1.83431 228.287 2.349 226.808 3.26172C226.42 3.54308 223.933 6.05476 223.658 6.44936C223.734 6.34299 223.84 6.05133 223.717 5.72879L222.924 6.03417L222.728 6.87483H222.722C220.779 6.42191 218.635 6.94689 217.118 8.24047C215.602 9.53749 214.751 11.5791 214.898 13.5692L215.008 15.0515L213.67 14.403C211.92 13.5555 209.703 13.6378 208.022 14.6089C206.873 15.2711 205.953 16.3417 205.435 17.6181C205.322 17.896 205.232 18.1294 205.157 18.3284C204.598 19.7832 204.406 19.9102 202.831 20.641L202.587 20.7543C200.189 21.8694 198.603 24.0002 198.452 26.3095C198.274 29.0305 200.137 31.7823 202.879 32.8563C205.833 34.0127 208.372 33.0348 211.316 31.899C211.903 31.6725 212.507 31.4392 213.124 31.2196L214.198 30.8387L214.267 31.9745C214.439 34.7847 217.17 37.2586 219.973 37.1728C222.787 37.0836 225.343 34.4381 225.34 31.6245V29.1986L226.863 31.0858C229.063 33.7999 233.352 34.7092 236.625 33.1514C237.129 32.9112 237.723 32.973 238.176 33.3127C238.629 33.6524 238.852 34.2048 238.763 34.7538C238.598 35.7832 238.77 36.8503 239.253 37.763C239.411 38.0615 239.603 38.3395 239.82 38.5865C241.024 39.9522 243.134 40.4874 244.843 39.8595L245.436 41.4688C245.69 41.3761 245.804 41.1668 245.821 41.0776C245.725 41.6369 246.541 44.1349 246.778 44.6221C247.488 46.0529 248.13 46.6088 249.321 46.8284C251.633 47.2607 254.289 46.0049 255.36 43.9736L256.907 41.0364L256.917 41.0296Z" fill="#244777"/>
<path d="M262.815 56.6364C267.479 54.7548 269.735 49.4484 267.853 44.7842C265.971 40.1201 260.665 37.8644 256.001 39.746C251.337 41.6276 249.081 46.9339 250.963 51.5981C252.844 56.2623 258.151 58.5181 262.815 56.6364Z" fill="white"/>
<path d="M259.378 57.9761C259.09 57.9761 258.805 57.9624 258.513 57.9384L256.76 57.7908C256.286 57.7496 255.936 57.3345 255.977 56.8644C256.019 56.3909 256.444 56.0443 256.904 56.0821L258.657 56.2296C261.196 56.4458 263.66 55.509 265.42 53.663C267.112 51.8925 267.901 49.5078 267.589 47.1196C267.572 46.9824 267.551 46.8485 267.524 46.7147C266.786 42.6384 263.111 39.7321 258.973 39.962C256.664 40.089 254.581 41.1286 253.099 42.8889C251.616 44.6491 250.947 46.8794 251.218 49.1646C251.273 49.6347 250.937 50.0602 250.467 50.1151C249.993 50.1734 249.571 49.8337 249.513 49.3637C249.194 46.6427 250.021 43.8805 251.784 41.784C253.572 39.6601 256.091 38.4042 258.877 38.2498C263.862 37.9753 268.32 41.482 269.208 46.4093C269.239 46.574 269.263 46.7353 269.284 46.8966C269.665 49.7994 268.707 52.6988 266.655 54.8468C264.734 56.8609 262.116 57.9727 259.371 57.9727L259.378 57.9761Z" fill="#244777"/>
<path d="M264.525 48.9761C264.525 48.9761 264.514 48.9761 264.511 48.9761C264.037 48.9692 263.66 48.5781 263.667 48.1046C263.687 46.7492 262.994 45.363 261.896 44.5704C260.798 43.7777 259.261 43.5547 257.981 44.0008C257.532 44.1586 257.045 43.9219 256.887 43.4758C256.729 43.0297 256.966 42.5391 257.412 42.3812C259.234 41.743 261.334 42.0484 262.898 43.1773C264.463 44.3062 265.413 46.2036 265.383 48.132C265.376 48.6021 264.991 48.9761 264.525 48.9761Z" fill="#244777"/>
<path d="M243.484 41.4688C242.887 41.4688 242.29 41.383 241.714 41.2012C238.849 40.2987 236.889 37.1489 237.346 34.1808C237.418 33.7142 237.853 33.3916 238.324 33.4637C238.79 33.5357 239.113 33.9749 239.041 34.4416C238.715 36.5724 240.173 38.9194 242.228 39.5679C244.287 40.2164 246.826 39.1287 247.78 37.1969C247.989 36.7714 248.504 36.5964 248.93 36.8057C249.355 37.015 249.53 37.5297 249.321 37.9552C248.26 40.11 245.869 41.4722 243.488 41.4722L243.484 41.4688Z" fill="#244777"/>
<path d="M246.517 107.62C245.787 107.62 245.056 107.576 244.332 107.486C238.166 106.718 232.408 102.618 229.67 97.0417C229.461 96.6163 229.636 96.1016 230.061 95.8922C230.487 95.6829 231.001 95.8579 231.211 96.2834C233.702 101.355 238.938 105.085 244.544 105.781C250.155 106.478 256.142 104.144 259.8 99.8382C260.105 99.4779 260.647 99.4333 261.008 99.7387C261.368 100.044 261.413 100.586 261.107 100.947C257.556 105.126 252.011 107.617 246.517 107.617V107.62Z" fill="#244777"/>
<path d="M226.232 66.9909C225.432 66.9909 224.708 66.761 224.149 66.3252C223.047 65.464 222.821 64.0297 222.749 63.0243C222.584 60.7769 222.876 58.4608 223.59 56.3231C223.741 55.8736 224.224 55.63 224.674 55.781C225.123 55.9319 225.367 56.4157 225.216 56.8652C224.574 58.7902 224.314 60.8764 224.461 62.9008C224.54 63.9782 224.777 64.637 225.206 64.9733C225.528 65.2238 226.029 65.3267 226.585 65.2512C227.179 65.1723 227.793 64.915 228.387 64.6645C228.822 64.4792 229.327 64.6851 229.509 65.1208C229.694 65.5566 229.488 66.061 229.049 66.2429C228.383 66.5242 227.632 66.8399 226.808 66.9497C226.609 66.9772 226.417 66.9874 226.225 66.9874L226.232 66.9909Z" fill="#244777"/>
<path d="M228.754 71.3623C228.318 71.3623 227.886 71.3348 227.457 71.2799C226.987 71.2216 226.654 70.7892 226.716 70.3192C226.774 69.8491 227.199 69.5162 227.676 69.578C229.718 69.8388 231.883 69.3481 233.616 68.2364C235.349 67.1247 236.694 65.361 237.308 63.3949C237.448 62.9419 237.932 62.6915 238.382 62.8322C238.835 62.9728 239.085 63.4532 238.945 63.9061C238.21 66.2497 236.608 68.353 234.542 69.6809C232.84 70.7721 230.788 71.3623 228.757 71.3623H228.754Z" fill="#244777"/>
<path d="M201.911 107.888C202.529 110.128 201.547 112.355 199.715 112.86C197.886 113.364 195.903 111.954 195.282 109.713C194.661 107.472 195.645 105.246 197.478 104.741C199.307 104.237 201.29 105.647 201.911 107.888Z" fill="white"/>
<path d="M190.259 204.65H108.811V183.372H190.259C196.133 183.372 200.895 188.135 200.895 194.009C200.895 199.884 196.133 204.646 190.259 204.646V204.65Z" fill="#244777"/>
<path d="M190.258 205.507H107.953V182.515H190.258C196.596 182.515 201.753 187.672 201.753 194.009C201.753 200.347 196.596 205.504 190.258 205.504V205.507ZM109.669 203.792H190.258C195.652 203.792 200.038 199.403 200.038 194.013C200.038 188.622 195.649 184.234 190.258 184.234H109.669V203.795V203.792Z" fill="#244777"/>
<path d="M140.128 204.65H108.502V183.372H140.128C146.002 183.372 150.765 188.135 150.765 194.009C150.765 199.884 146.002 204.646 140.128 204.646V204.65Z" fill="white"/>
<path d="M140.433 205.507H105.764C105.29 205.507 104.906 205.123 104.906 204.65C104.906 204.176 105.29 203.792 105.764 203.792H140.433C145.827 203.792 150.212 199.403 150.212 194.013C150.212 188.622 145.824 184.234 140.433 184.234H105.764C105.29 184.234 104.906 183.849 104.906 183.376C104.906 182.902 105.29 182.518 105.764 182.518H140.433C146.771 182.518 151.928 187.675 151.928 194.013C151.928 200.35 146.771 205.507 140.433 205.507Z" fill="#244777"/>
<path d="M108.811 204.999H200.189C206.059 204.999 210.825 209.765 210.825 215.636C210.825 221.507 206.059 226.273 200.189 226.273H108.811V204.996V204.999Z" fill="#244777"/>
<path d="M200.189 227.135H107.953V204.142H200.189C206.526 204.142 211.683 209.299 211.683 215.637C211.683 221.974 206.526 227.132 200.189 227.132V227.135ZM109.669 225.419H200.189C205.582 225.419 209.968 221.031 209.968 215.64C209.968 210.25 205.579 205.861 200.189 205.861H109.669V225.423V225.419Z" fill="#244777"/>
<path d="M107.939 204.999H140.128C145.999 204.999 150.765 209.765 150.765 215.636C150.765 221.507 145.999 226.273 140.128 226.273H107.939V204.996V204.999Z" fill="white"/>
<path d="M140.433 227.135H105.764C105.29 227.135 104.906 226.75 104.906 226.277C104.906 225.803 105.29 225.419 105.764 225.419H140.433C145.827 225.419 150.212 221.031 150.212 215.64C150.212 210.25 145.824 205.861 140.433 205.861H105.764C105.29 205.861 104.906 205.477 104.906 205.003C104.906 204.53 105.29 204.145 105.764 204.145H140.433C146.771 204.145 151.928 209.303 151.928 215.64C151.928 221.978 146.771 227.135 140.433 227.135Z" fill="#244777"/>
<path d="M108.811 227.135C108.341 227.135 107.956 226.754 107.953 226.284L107.648 183.383C107.648 182.909 108.025 182.521 108.498 182.518C108.965 182.508 109.36 182.895 109.363 183.369L109.668 226.27C109.668 226.743 109.291 227.131 108.818 227.135H108.811Z" fill="#244777"/>
<path d="M226.108 33.7242C226.016 33.7242 225.919 33.7104 225.827 33.6761C225.381 33.5217 225.144 33.0345 225.298 32.5884C225.312 32.5507 225.954 30.564 224.976 28.6082C224.763 28.1827 224.938 27.668 225.36 27.4587C225.786 27.2494 226.3 27.4209 226.51 27.843C227.82 30.4713 226.956 33.0413 226.918 33.1477C226.794 33.5011 226.462 33.7242 226.108 33.7242Z" fill="#244777"/>
<path d="M235.802 35.2378C235.383 35.2378 235.016 34.9324 234.954 34.5069C234.885 34.0403 235.204 33.6045 235.671 33.5324C235.802 33.5118 238.804 33.004 239.823 30.0428C239.977 29.5933 240.465 29.3566 240.914 29.511C241.364 29.6654 241.6 30.1526 241.446 30.6021C240.08 34.5687 236.097 35.2069 235.928 35.2309C235.887 35.2378 235.843 35.2412 235.802 35.2412V35.2378Z" fill="#244777"/>
<path d="M229.138 52.4214C229.306 54.089 230.294 55.314 231.348 55.1561C232.401 54.9983 233.118 53.516 232.95 51.8484C232.782 50.1808 231.794 48.9558 230.741 49.1137C229.687 49.2715 228.97 50.7538 229.138 52.4214Z" fill="#244777"/>
<path d="M216.357 53.4234C216.501 54.9229 217.427 56.014 218.433 55.8562C219.438 55.6983 220.134 54.3567 219.99 52.8572C219.846 51.3578 218.92 50.2666 217.914 50.4245C216.909 50.5823 216.212 51.9239 216.357 53.4234Z" fill="#244777"/>
<path d="M226.026 47.868C225.817 47.868 225.611 47.7926 225.443 47.6416C225.096 47.319 225.072 46.7769 225.395 46.4303C226.812 44.8931 230.517 42.6903 234.388 45.3324C234.779 45.6 234.879 46.1318 234.611 46.523C234.343 46.9142 233.811 47.0137 233.42 46.746C229.793 44.2687 226.784 47.4529 226.657 47.5901C226.489 47.772 226.259 47.8646 226.026 47.8646V47.868Z" fill="#244777"/>
<path d="M214.366 49.9268C214.157 49.9268 213.948 49.8513 213.783 49.6969C213.437 49.3743 213.416 48.8356 213.735 48.4891C215.152 46.9519 218.858 44.749 222.728 47.3911C223.12 47.6587 223.219 48.1905 222.951 48.5817C222.684 48.9729 222.149 49.0724 221.761 48.8047C218.158 46.3445 215.121 49.515 214.994 49.6523C214.826 49.8341 214.596 49.9233 214.366 49.9233V49.9268Z" fill="#244777"/>
<path d="M359.088 228.783H0.9119C0.408531 228.783 0 228.335 0 227.783C0 227.231 0.408531 226.783 0.9119 226.783H359.088C359.591 226.783 360 227.231 360 227.783C360 228.335 359.591 228.783 359.088 228.783Z" fill="#244777"/>
</svg>
