<svg width="360" height="281" viewBox="0 0 360 281" fill="none" xmlns="http://www.w3.org/2000/svg">
<path d="M229.131 6.63501C228.628 6.63501 228.219 6.22648 228.219 5.72311V0.9119C228.219 0.408531 228.628 0 229.131 0C229.635 0 230.043 0.408531 230.043 0.9119V5.72311C230.043 6.22648 229.635 6.63501 229.131 6.63501Z" fill="#111C3A"/>
<path d="M232.987 8.03556C232.779 8.03556 232.571 7.96628 232.403 7.82402C232.017 7.49938 231.966 6.9267 232.29 6.54006L235.38 2.85234C235.704 2.46569 236.277 2.4146 236.664 2.73924C237.05 3.06388 237.102 3.63656 236.777 4.0232L233.687 7.71092C233.505 7.92613 233.25 8.03556 232.987 8.03556Z" fill="#111C3A"/>
<path d="M235.041 11.5883C234.606 11.5883 234.223 11.2783 234.143 10.8369C234.056 10.3408 234.384 9.86665 234.88 9.77911L239.618 8.93649C240.114 8.84895 240.589 9.17724 240.676 9.67331C240.764 10.1694 240.435 10.6436 239.939 10.7311L235.201 11.5737C235.146 11.5846 235.092 11.5883 235.041 11.5883Z" fill="#111C3A"/>
<path d="M238.513 18.023C238.36 18.023 238.203 17.9829 238.061 17.9027L233.888 15.5062C233.45 15.2545 233.301 14.7 233.552 14.2623C233.804 13.8246 234.358 13.6751 234.796 13.9268L238.969 16.3232C239.407 16.5749 239.556 17.1294 239.304 17.5671C239.137 17.8625 238.83 18.0267 238.513 18.0267V18.023Z" fill="#111C3A"/>
<path d="M232.866 22.7902C232.494 22.7902 232.148 22.5605 232.009 22.1921L230.346 17.6763C230.171 17.2022 230.415 16.6805 230.886 16.5054C231.356 16.3304 231.882 16.5747 232.057 17.0453L233.72 21.561C233.895 22.0352 233.651 22.5568 233.18 22.7319C233.078 22.7684 232.969 22.7866 232.866 22.7866V22.7902Z" fill="#111C3A"/>
<path d="M225.476 22.8229C225.374 22.8229 225.269 22.8046 225.17 22.7681C224.696 22.5967 224.451 22.0751 224.619 21.6009L226.246 17.0706C226.418 16.5964 226.939 16.352 227.413 16.5198C227.888 16.6912 228.132 17.2128 227.964 17.687L226.337 22.2174C226.202 22.5894 225.852 22.8229 225.48 22.8229H225.476Z" fill="#111C3A"/>
<path d="M219.794 18.0992C219.48 18.0992 219.173 17.9387 219.006 17.6469C218.75 17.2128 218.896 16.6548 219.334 16.3994L223.489 13.9701C223.923 13.7148 224.481 13.8607 224.736 14.2984C224.991 14.7325 224.845 15.2905 224.408 15.5459L220.253 17.9752C220.107 18.0591 219.95 18.0992 219.794 18.0992Z" fill="#111C3A"/>
<path d="M223.211 11.6358C223.16 11.6358 223.109 11.6322 223.058 11.6212L218.313 10.8151C217.817 10.7312 217.481 10.2607 217.565 9.7646C217.649 9.26853 218.119 8.93293 218.615 9.01682L223.361 9.82297C223.857 9.90687 224.193 10.3774 224.109 10.8735C224.032 11.3185 223.649 11.6322 223.211 11.6322V11.6358Z" fill="#111C3A"/>
<path d="M225.239 8.0686C224.98 8.0686 224.725 7.95917 224.546 7.74761L221.428 4.08545C221.099 3.70245 221.147 3.12612 221.53 2.80149C221.913 2.4732 222.489 2.52063 222.814 2.90363L225.932 6.56579C226.261 6.94879 226.213 7.52512 225.83 7.84976C225.659 7.99566 225.447 8.0686 225.239 8.0686Z" fill="#111C3A"/>
<path d="M359.088 280.761H0.9119C0.408531 280.761 0 280.353 0 279.849C0 279.346 0.408531 278.938 0.9119 278.938H359.088C359.591 278.938 360 279.346 360 279.849C360 280.353 359.591 280.761 359.088 280.761Z" fill="#111C3A"/>
<path d="M108.148 171.113H32.4856C28.0246 171.113 24.3916 167.483 24.3916 163.019V128.41C24.3916 123.949 28.0209 120.316 32.4856 120.316H108.148C112.609 120.316 116.242 123.946 116.242 128.41V144.142L128.166 160.764C128.607 161.377 128.666 162.176 128.319 162.847C127.976 163.518 127.294 163.934 126.539 163.934H116.191C115.735 167.968 112.302 171.116 108.148 171.116V171.113ZM32.4856 122.144C29.0277 122.144 26.2154 124.956 26.2154 128.414V163.022C26.2154 166.48 29.0277 169.293 32.4856 169.293H108.148C111.606 169.293 114.418 166.48 114.418 163.022V162.11H126.539C126.612 162.11 126.663 162.078 126.696 162.016C126.729 161.95 126.725 161.888 126.681 161.83L114.418 144.733V128.418C114.418 124.96 111.606 122.147 108.148 122.147H32.4856V122.144Z" fill="#111C3A"/>
<path d="M107.447 169.501H33.1859C28.4622 169.501 26.1387 166.345 26.1387 162.453V134.914C26.5399 134.757 26.9521 134.619 27.3716 134.498L27.4299 134.48C28.0318 134.312 28.6483 134.181 29.2793 134.09L56.9281 128.272H76.2932L96.2128 132.182C96.4061 132.215 96.5995 132.255 96.7891 132.295L96.9094 132.317C100.871 133.225 104.201 135.775 106.149 139.215C106.306 139.488 106.455 139.769 106.594 140.054L114.392 164.471C113.331 167.991 110.712 169.493 107.451 169.493L107.447 169.501Z" fill="#EDAE00"/>
<path d="M74.2543 94.5242C74.2543 94.5242 87.9765 86.0946 82.1732 73.5103C79.3974 67.4918 72.4742 64.4752 66.3061 66.8972C62.1442 68.5314 58.4529 72.6094 58.7702 82.0457C58.7702 82.0457 45.1646 76.9281 47.6595 90.7781C47.6595 90.7781 32.6278 92.1241 44.6102 108.867L60.6633 114.805L74.2543 94.5242Z" fill="#244777"/>
<path d="M61.0207 115.91L44.0301 109.625L43.866 109.399C39.4779 103.271 38.0845 98.3505 39.7223 94.7795C41.236 91.4748 44.8654 90.3695 46.609 90.0193C46.0728 86.1456 46.7877 83.3661 48.7356 81.7429C51.4457 79.4851 55.7243 80.2328 57.8327 80.8019C57.8764 71.2707 62.2317 67.5137 65.9668 66.051C72.5033 63.4867 79.9845 66.5944 82.9974 73.1309C88.695 85.4927 76.5303 94.1083 74.9034 95.1916L61.017 115.914L61.0207 115.91ZM45.1937 108.108L60.3094 113.7L73.6085 93.853L73.7763 93.7472C74.3161 93.4116 86.7326 85.5766 81.3451 73.8897C78.737 68.2286 72.2735 65.5293 66.6379 67.7434C61.7647 69.6548 59.423 74.455 59.6784 82.0129L59.7257 83.3771L58.4491 82.8956C58.3944 82.8737 52.7224 80.7909 49.9064 83.1436C48.3525 84.4422 47.8966 86.9554 48.5568 90.6139L48.7356 91.5951L47.7433 91.6826C47.6959 91.6863 42.9249 92.1678 41.3819 95.5418C40.0797 98.3942 41.3965 102.735 45.1937 108.104V108.108Z" fill="#111C3A"/>
<path d="M60.8785 144.139C66.9919 144.547 72.2773 139.922 72.6858 133.809L73.47 122.045L51.3291 120.568L50.5449 132.332C50.1364 138.445 54.7614 143.73 60.8748 144.139H60.8785Z" fill="white"/>
<path d="M61.6264 145.073C61.3601 145.073 61.0902 145.065 60.8203 145.047C57.6214 144.836 54.696 143.387 52.584 140.973C50.472 138.558 49.4252 135.468 49.6404 132.27L50.5195 119.062L74.4405 121.214L73.5979 133.867C73.1747 140.203 67.8857 145.073 61.6264 145.076V145.073ZM52.2156 121.042L51.4606 132.39C51.0885 137.993 55.3416 142.855 60.9444 143.227C66.5361 143.599 71.4093 139.346 71.7814 133.743L72.5072 122.866L52.2192 121.039L52.2156 121.042Z" fill="#111C3A"/>
<path d="M65.0003 86.9336C70.2748 86.8899 75.0824 89.9502 77.2782 94.7431C80.7507 102.323 85.4415 115.979 76.3663 124.996C63.8952 137.387 51.5954 120.583 51.5954 120.583C51.5954 120.583 42.8302 98.088 52.1863 91.0153C56.3446 87.871 61.0536 86.9665 65.004 86.9336H65.0003Z" fill="white"/>
<path d="M66.5651 130.46C63.8877 130.46 61.4658 129.618 59.4961 128.585C59.051 128.352 58.8796 127.801 59.113 127.353C59.3465 126.908 59.9009 126.736 60.3459 126.97C65.8756 129.877 71.048 128.994 75.7242 124.351C82.1586 117.956 82.403 108.122 76.4501 95.1224C74.422 90.6906 69.9792 87.8418 65.117 87.8418C65.0805 87.8418 65.0477 87.8418 65.0112 87.8418C60.2328 87.8819 56.1001 89.195 52.737 91.7411C44.0375 98.3213 52.1097 119.941 52.1935 120.16L52.2628 120.346L52.1133 122.607C52.0805 123.11 51.6391 123.486 51.143 123.457C50.6396 123.424 50.2603 122.99 50.2932 122.487L50.4171 120.619C49.5453 118.252 42.21 97.4131 51.6355 90.2857C55.3195 87.4989 59.8133 86.0618 64.9966 86.018C65.0367 86.018 65.0769 86.018 65.1206 86.018C70.6942 86.018 75.7862 89.2826 78.1133 94.3601C84.3288 107.933 83.9495 118.748 77.0154 125.642C73.4043 129.231 69.8041 130.457 66.5724 130.457L66.5651 130.46Z" fill="#111C3A"/>
<path d="M69.4395 87.652C69.4395 87.652 57.4826 87.3529 56.2533 100.036L50.7236 109.932L44.6102 108.866C44.6102 108.866 43.2897 82.487 63.6288 85.4124C65.5839 85.6933 68.1664 85.4525 69.4395 87.652Z" fill="#244777"/>
<path d="M52.4746 108.265C52.3323 108.265 52.19 108.232 52.055 108.163C51.6064 107.933 51.4313 107.382 51.6647 106.933L53.6235 103.136C54.5391 101.36 55.2722 99.3791 55.7975 97.2453C58.4238 86.587 69.341 86.7329 69.4614 86.7402C69.9647 86.7512 70.3624 87.1706 70.3515 87.674C70.3405 88.1774 69.9137 88.5823 69.4177 88.564C69.0201 88.5567 59.8354 88.4692 57.5703 97.683C57.0122 99.9555 56.2279 102.071 55.2467 103.975L53.288 107.772C53.1275 108.086 52.8065 108.265 52.4782 108.265H52.4746Z" fill="#111C3A"/>
<path d="M58.4909 104.098L48.6125 105.201L48.8554 107.376L58.7337 106.273L58.4909 104.098Z" fill="#244777"/>
<path d="M52.416 107.386C52.416 107.386 44.435 101.619 42.3632 104.551C39.9448 107.973 42.6478 118.226 46.5544 118.489C50.4646 118.748 53.6707 116.745 53.6707 116.745L52.416 107.386Z" fill="white"/>
<path d="M47.2656 119.423C47.0103 119.423 46.7549 119.415 46.4959 119.397C44.8472 119.288 43.3043 117.891 42.148 115.465C40.4811 111.963 39.8063 106.598 41.6191 104.026C42.0605 103.402 42.728 102.997 43.5451 102.862C46.8389 102.315 52.3357 106.2 52.9522 106.645C53.3607 106.941 53.4519 107.51 53.1565 107.918C52.861 108.327 52.292 108.418 51.8834 108.122C50.3806 107.035 46.0071 104.3 43.8441 104.661C43.3955 104.737 43.2094 104.934 43.1073 105.077C41.8708 106.827 42.1881 111.314 43.7931 114.677C44.6284 116.432 45.6825 117.515 46.6163 117.577C50.1654 117.814 53.1601 115.987 53.1893 115.968C53.6161 115.702 54.1778 115.833 54.4441 116.26C54.7103 116.687 54.579 117.249 54.1559 117.515C54.0246 117.599 51.0591 119.423 47.2693 119.423H47.2656Z" fill="#111C3A"/>
<path d="M49.002 113.101C47.6961 113.101 46.0255 112.554 44.8802 110.581C44.6285 110.147 44.7744 109.589 45.2121 109.333C45.6461 109.082 46.2043 109.228 46.4596 109.665C47.7399 111.868 49.6913 111.194 49.7716 111.161C50.2458 110.989 50.7673 111.234 50.9388 111.708C51.1102 112.182 50.8658 112.704 50.3916 112.875C50.0378 113.003 49.5528 113.101 49.002 113.101Z" fill="#111C3A"/>
<path d="M73.9041 105.711C73.6525 106.824 73.9041 107.893 74.1668 108.98C74.4294 110.063 74.6883 111.146 74.951 112.23C75.1808 113.178 75.5273 114.218 75.3595 115.206C75.2574 115.804 74.8452 116.552 74.1741 116.592C73.0068 116.658 72.9995 118.482 74.1741 118.416C75.2647 118.354 76.1802 117.723 76.7128 116.778C77.3183 115.695 77.2781 114.451 77.0593 113.266C76.8368 112.065 76.5012 110.88 76.2167 109.694C76.0671 109.074 75.9103 108.454 75.768 107.834C75.644 107.298 75.5419 106.747 75.6659 106.2C75.9249 105.058 74.1668 104.57 73.9078 105.715L73.9041 105.711Z" fill="#111C3A"/>
<path d="M71.442 120.736C71.2086 120.685 70.9824 120.612 70.7635 120.521C70.8365 120.55 70.9095 120.583 70.9824 120.612C70.6468 120.47 70.3331 120.284 70.0413 120.061C70.1033 120.109 70.1653 120.156 70.2273 120.203C69.9501 119.988 69.7021 119.74 69.4869 119.463C69.5343 119.525 69.5817 119.587 69.6291 119.649C69.4503 119.415 69.2936 119.164 69.1696 118.898C69.0747 118.701 68.8266 118.533 68.626 118.478C68.4071 118.42 68.1153 118.445 67.922 118.569C67.7287 118.693 67.5573 118.883 67.5026 119.113C67.4442 119.364 67.4843 119.583 67.5938 119.817C68.2248 121.148 69.527 122.169 70.9605 122.494C71.4237 122.6 71.9709 122.352 72.084 121.856C72.1898 121.392 71.9454 120.845 71.4457 120.732L71.442 120.736Z" fill="#111C3A"/>
<path d="M83.0486 113.747C82.8662 113.747 82.6875 113.74 82.5051 113.729C80.3676 113.586 78.4162 112.62 77.0082 111.011C75.5966 109.399 74.8998 107.338 75.0421 105.201C75.1843 103.063 76.1509 101.112 77.7595 99.7037C79.3718 98.2957 81.4364 97.5954 83.5702 97.7376C87.9802 98.0331 91.3287 101.859 91.0332 106.266C90.891 108.403 89.9244 110.355 88.3158 111.763C86.8421 113.05 84.9891 113.747 83.0486 113.747ZM83.0304 99.9043C81.6188 99.9043 80.2727 100.408 79.204 101.345C78.0331 102.37 77.3328 103.789 77.227 105.343C77.1249 106.897 77.6319 108.396 78.6568 109.567C79.6818 110.738 81.1008 111.442 82.6547 111.544C84.2086 111.646 85.7077 111.139 86.8785 110.114C88.0494 109.089 88.7498 107.67 88.8556 106.116C89.0672 102.91 86.6342 100.13 83.4316 99.9152C83.3003 99.908 83.1653 99.9006 83.034 99.9006L83.0304 99.9043Z" fill="#244777"/>
<path d="M65.5512 113.609C65.3688 113.609 65.1901 113.601 65.0077 113.59C62.8702 113.448 60.9187 112.481 59.5107 110.873C58.1028 109.261 57.4025 107.2 57.5447 105.062C57.8402 100.652 61.6628 97.3001 66.0728 97.5992C70.4827 97.8946 73.8313 101.721 73.5358 106.127C73.3936 108.265 72.4269 110.216 70.8183 111.624C69.3447 112.915 67.4917 113.609 65.5512 113.609ZM65.5366 99.7695C62.4981 99.7695 59.9339 102.133 59.726 105.208C59.6238 106.762 60.1308 108.261 61.1558 109.432C62.1808 110.603 63.5998 111.307 65.1536 111.409C66.7075 111.511 68.2066 111.004 69.3775 109.979C70.5484 108.954 71.2488 107.535 71.3546 105.981C71.5698 102.775 69.1331 99.9957 65.9305 99.7804C65.7992 99.7731 65.6679 99.7658 65.5402 99.7658L65.5366 99.7695Z" fill="#244777"/>
<path d="M72.4057 103.521L72.2603 105.705L76.0199 105.955L76.1653 103.771L72.4057 103.521Z" fill="#244777"/>
<path d="M65.387 106.466C65.3068 107.663 65.7956 108.67 66.474 108.717C67.1561 108.761 67.7726 107.827 67.8528 106.631C67.9331 105.434 67.4443 104.427 66.7658 104.38C66.0837 104.336 65.4673 105.27 65.387 106.466Z" fill="#244777"/>
<path d="M77.6429 107.284C77.5627 108.48 78.0514 109.487 78.7299 109.534C79.412 109.578 80.0284 108.644 80.1087 107.448C80.1889 106.251 79.7001 105.245 79.0216 105.197C78.3395 105.153 77.7232 106.087 77.6429 107.284Z" fill="#244777"/>
<path d="M280.311 90.8036C278.731 90.8036 277.79 90.5628 277.674 90.53L275.325 89.888L277.517 88.8302C280.723 87.28 283.003 85.0111 284.309 82.0712C275.799 81.5058 269.047 74.4003 269.047 65.7482C269.047 57.096 276.386 49.3887 285.407 49.3887H332.151C341.171 49.3887 348.51 56.7276 348.51 65.7482C348.51 74.7687 341.171 82.1076 332.151 82.1076H298.268C290.539 89.5925 283.842 90.8036 280.311 90.8072V90.8036ZM285.407 51.2125C277.393 51.2125 270.871 57.7344 270.871 65.7482C270.871 73.7619 277.393 80.2838 285.407 80.2838H286.902L286.494 81.4876C285.454 84.5588 283.583 87.0538 280.924 88.9396C284.272 88.7755 290.334 87.3602 297.258 80.5429L297.524 80.2802H332.151C340.164 80.2802 346.686 73.7583 346.686 65.7445C346.686 57.7307 340.164 51.2088 332.151 51.2088H285.407V51.2125Z" fill="#111C3A"/>
<path d="M335.291 66.2075H285.68C285.177 66.2075 284.768 65.799 284.768 65.2956C284.768 64.7923 285.177 64.3837 285.68 64.3837H335.291C335.794 64.3837 336.203 64.7923 336.203 65.2956C336.203 65.799 335.794 66.2075 335.291 66.2075Z" fill="#111C3A"/>
<path d="M145.091 123.964C145.091 123.964 126.327 117.398 126.524 76.0891L128.29 60.8166L214.8 57.9715L213.571 229.806H144.817L145.091 123.964Z" fill="white"/>
<path d="M214.479 280.718H143.905L144.179 124.566C142.705 123.873 138.831 121.644 134.983 116.034C130.653 109.717 125.51 97.6613 125.616 76.0858L125.623 75.9873L127.476 59.9342L215.723 57.0343L214.479 280.722V280.718ZM145.733 278.895H212.666L213.884 58.9128L129.107 61.6996L127.436 76.1441C127.341 97.0886 132.247 108.75 136.38 114.849C140.827 121.411 145.35 123.089 145.393 123.103L145.999 123.322V123.968L145.729 278.895H145.733Z" fill="#111C3A"/>
<path d="M177.941 108.268C177.941 108.268 177.93 108.268 177.926 108.268C177.423 108.261 177.022 107.845 177.029 107.342C177.332 89.2024 169.15 85.4781 169.07 85.4417C168.607 85.2447 168.395 84.7049 168.592 84.2453C168.793 83.782 169.329 83.5705 169.788 83.7674C170.171 83.9316 179.174 88.0242 178.853 107.375C178.845 107.874 178.437 108.272 177.941 108.272V108.268Z" fill="#111C3A"/>
<path d="M158.003 129.184C150.974 129.184 145.51 125.058 145.28 124.88C144.879 124.573 144.806 124.001 145.112 123.603C145.419 123.202 145.992 123.129 146.389 123.435C146.455 123.486 151.616 127.36 158.007 127.36C158.04 127.36 158.069 127.36 158.102 127.36C158.601 127.36 159.01 127.765 159.013 128.268C159.013 128.772 158.612 129.184 158.105 129.184C158.072 129.184 158.036 129.184 157.999 129.184H158.003Z" fill="#111C3A"/>
<path d="M256.736 48.849L94.13 95.655L89.3225 75.8704L251.929 29.0644L273.884 31.8329C275.398 32.0226 275.923 33.9485 274.719 34.8823L256.736 48.8526V48.849Z" fill="#EDAE00"/>
<path d="M251.725 29.1118L256.755 48.8307L274.621 34.9553C275.861 33.9923 275.317 32.008 273.76 31.8147L251.929 29.0644L251.725 29.1155V29.1118Z" fill="white"/>
<path d="M268.967 30.91L270.823 38.187L274.737 35.1449C276.182 34.0214 275.551 31.7125 273.734 31.4827L269.043 30.8918L268.967 30.91Z" fill="#244777"/>
<path d="M93.4697 96.793L88.2317 75.2357L251.856 28.1342L273.989 30.9246C275.062 31.0596 275.908 31.7928 276.193 32.836C276.477 33.8792 276.127 34.9406 275.27 35.6045L257.152 49.677L256.984 49.7244L93.466 96.793H93.4697ZM90.4167 76.5051L94.7938 94.5169L256.317 48.0209L274.157 34.1637C274.551 33.8573 274.471 33.4379 274.438 33.3175C274.405 33.1971 274.259 32.7958 273.767 32.7338L252.005 29.9908L90.4203 76.5051H90.4167Z" fill="#111C3A"/>
<path d="M256.736 49.7611C256.324 49.7611 255.952 49.4802 255.85 49.0644L251.042 29.2798C250.922 28.791 251.225 28.2986 251.714 28.1782C252.202 28.0578 252.695 28.3606 252.815 28.8494L257.623 48.634C257.743 49.1228 257.44 49.6151 256.951 49.7355C256.879 49.7538 256.806 49.7611 256.736 49.7611Z" fill="#111C3A"/>
<path d="M94.7426 82.3449C94.345 82.3449 93.9803 82.0859 93.8672 81.6847C93.7286 81.1995 94.0058 80.6961 94.491 80.5575L249.572 35.8927C250.057 35.7541 250.561 36.0313 250.699 36.5164C250.838 37.0015 250.561 37.5049 250.076 37.6435L94.9943 82.3084C94.9104 82.3339 94.8265 82.3449 94.7426 82.3449Z" fill="#111C3A"/>
<path d="M96.2126 89.52C95.815 89.52 95.4503 89.261 95.3372 88.8598C95.1986 88.3747 95.4758 87.8713 95.9609 87.7327L251.042 43.0678C251.527 42.9292 252.031 43.2064 252.169 43.6916C252.308 44.1767 252.031 44.6801 251.546 44.8187L96.4642 89.4836C96.3804 89.5091 96.2965 89.52 96.2126 89.52Z" fill="#111C3A"/>
<path d="M150.839 27.3976C150.839 27.3976 140.141 30.9796 142.906 47.1384C145.671 63.3009 147.491 74.8128 158.547 75.349C164.383 75.6335 167.104 71.581 168.373 67.6927C169.406 64.5339 169.537 61.1525 168.917 57.8879L165.079 37.7933C164.343 33.9414 162.158 30.4689 158.868 28.3387C156.606 26.876 154.396 26.7192 150.839 27.3976Z" fill="white"/>
<path d="M173.724 19.8032C173.724 19.8032 163.026 23.3851 165.791 39.544C168.556 55.7065 170.376 67.2184 181.432 67.7546C187.268 68.0391 189.989 63.9866 191.258 60.0982C192.291 56.9394 192.422 53.5581 191.802 50.2935L187.964 30.1989C187.228 26.347 185.043 22.8745 181.753 20.7443C179.491 19.2816 177.281 19.1247 173.724 19.8032Z" fill="white"/>
<path d="M196.471 12.5191C196.471 12.5191 185.772 16.101 188.537 32.2599C191.302 48.4224 193.122 59.9342 204.178 60.4704C210.014 60.755 212.735 56.7025 214.005 52.8141C215.037 49.6553 215.168 46.274 214.548 43.0094L210.711 22.9147C209.974 19.0629 207.789 15.5903 204.499 13.4601C202.237 11.9975 200.027 11.8406 196.471 12.5191Z" fill="white"/>
<path d="M159.119 76.2753C158.915 76.2753 158.711 76.2717 158.499 76.2607C146.86 75.6954 144.872 64.0522 142.114 47.9408L142.005 47.2951C140.52 38.6138 142.88 33.4452 145.12 30.6402C147.589 27.5506 150.427 26.5731 150.547 26.533L150.668 26.5001C154.023 25.8618 156.646 25.8181 159.36 27.5726C162.763 29.7721 165.174 33.4342 165.973 37.6217L169.81 57.7163C170.481 61.2289 170.284 64.7781 169.238 67.977C167.461 73.4192 163.97 76.2753 159.119 76.2753ZM151.076 28.2802C150.208 28.5975 141.286 32.2634 143.803 46.9851L143.912 47.6307C146.622 63.4759 148.41 73.9445 158.587 74.4369C162.905 74.6485 165.911 72.2812 167.501 67.408C168.45 64.5045 168.628 61.2691 168.016 58.0555L164.178 37.9609C163.471 34.2622 161.355 31.0341 158.368 29.1009C156.427 27.8461 154.512 27.6309 151.073 28.2765L151.076 28.2802Z" fill="#111C3A"/>
<path d="M182.008 68.6809C181.804 68.6809 181.599 68.6772 181.388 68.6663C169.748 68.1009 167.757 56.4577 165.003 40.3426L164.893 39.7007C163.409 31.0194 165.769 25.8508 168.008 23.0457C170.478 19.9562 173.316 18.9787 173.436 18.9385L173.556 18.9057C176.912 18.2674 179.538 18.2236 182.249 19.9781C185.652 22.1776 188.063 25.8398 188.862 30.0273L192.699 50.1219C193.37 53.6345 193.173 57.1836 192.126 60.3826C190.35 65.8248 186.856 68.6809 182.008 68.6809ZM173.961 20.6858C173.093 21.0031 164.171 24.6689 166.688 39.3906L166.797 40.0326C169.508 55.8778 171.295 66.3464 181.472 66.8425C185.794 67.0504 188.796 64.6867 190.386 59.8135C191.335 56.9101 191.514 53.6747 190.901 50.4611L187.064 30.3665C186.36 26.6678 184.24 23.4397 181.253 21.5101C179.312 20.2553 177.401 20.0401 173.958 20.6858H173.961Z" fill="#111C3A"/>
<path d="M204.754 61.3968C204.55 61.3968 204.346 61.3931 204.134 61.3822C192.495 60.8168 190.507 49.1737 187.749 33.0622L187.64 32.4166C186.155 23.7353 188.515 18.5667 190.755 15.7617C193.224 12.6721 196.062 11.6946 196.183 11.6545L196.303 11.6216C199.659 10.9833 202.285 10.9395 204.995 12.694C208.398 14.8935 210.809 18.5557 211.608 22.7431L215.445 42.8378C216.117 46.3504 215.92 49.8996 214.873 53.0985C213.096 58.5407 209.602 61.3968 204.754 61.3968ZM196.711 13.4016C195.843 13.719 186.921 17.3848 189.438 32.1065L189.547 32.7522C192.258 48.5974 194.045 59.066 204.222 59.5584C208.541 59.7663 211.546 57.4027 213.14 52.5295C214.089 49.626 214.267 46.3905 213.654 43.177L209.817 23.0824C209.11 19.3837 206.994 16.1556 204.007 14.226C202.066 12.9712 200.155 12.756 196.715 13.4016H196.711Z" fill="#111C3A"/>
<path d="M210.922 126.656C210.922 126.656 245.006 74.3894 222.628 57.9971C205.283 45.2925 179.199 53.2844 168.34 57.5229C164.489 59.0257 162.322 63.1913 163.449 67.1708C164.696 71.5735 168.599 76.3445 179.575 76.6801C200.257 77.3111 199.465 77.3075 199.465 77.3075C199.465 77.3075 172.769 92.9557 178.287 119.798L210.919 126.656H210.922Z" fill="white"/>
<path d="M212.976 125.547C212.808 125.547 212.641 125.5 212.487 125.405C212.064 125.135 211.937 124.569 212.21 124.146C212.527 123.65 243.525 74.4332 222.092 58.7339C204.878 46.1241 178.678 54.4078 168.213 58.5552C165.236 59.7333 163.5 62.8119 164.084 65.8723C165.266 72.0732 170.635 75.4982 179.608 75.7718C189.216 76.0636 194.187 76.2205 196.763 76.3044C198.05 76.3445 198.736 76.37 199.101 76.381C199.181 76.381 199.276 76.3883 199.378 76.3956L199.476 76.4065C199.903 76.4612 200.399 76.6472 200.388 77.322L200.374 78.223H199.728C198.564 78.9453 192.714 82.7424 187.483 89.1111C179.754 98.5219 176.963 108.783 179.188 119.616C179.291 120.108 178.973 120.59 178.477 120.692C177.985 120.794 177.503 120.477 177.401 119.981C175.089 108.724 178.101 97.6355 186.112 87.9037C189.974 83.2093 194.082 79.9155 196.602 78.1172C194.012 78.0333 189.055 77.8765 179.557 77.5884C167.013 77.2054 163.248 71.1904 162.296 66.2078C161.549 62.2903 163.755 58.3545 167.545 56.8554C178.291 52.5986 205.229 44.1106 223.175 57.2602C228.522 61.1741 231.316 67.2474 231.48 75.305C231.612 81.6226 230.123 89.1804 227.06 97.7705C221.876 112.31 213.833 125 213.753 125.128C213.578 125.401 213.282 125.551 212.983 125.551L212.976 125.547Z" fill="#111C3A"/>
<path d="M207.154 78.6681C207.154 78.6681 207.122 78.6681 207.107 78.6681L196.806 78.1282C196.303 78.1027 195.916 77.6723 195.942 77.1689C195.967 76.6655 196.394 76.2789 196.901 76.3044L207.202 76.8443C207.705 76.8698 208.092 77.3002 208.066 77.8036C208.041 78.2887 207.64 78.6681 207.158 78.6681H207.154Z" fill="#111C3A"/>
<path d="M128.8 37.3956C128.8 37.3956 118.645 40.7951 121.272 56.137C123.898 71.4788 125.623 82.407 136.117 82.914C141.655 83.1839 144.241 79.3393 145.448 75.6443C146.426 72.646 146.553 69.4361 145.962 66.3356L142.318 47.2587C141.622 43.6038 139.546 40.3064 136.42 38.2856C134.275 36.8995 131.627 36.1116 128.8 37.3919V37.3956Z" fill="white"/>
<path d="M136.661 83.8405C136.468 83.8405 136.271 83.8369 136.07 83.826C124.985 83.2898 123.092 72.2193 120.473 56.903L120.367 56.2902C117.748 40.9813 127.582 36.8814 128.447 36.5531C131.135 35.3457 134.06 35.6813 136.909 37.5233C140.152 39.6207 142.446 43.1078 143.209 47.0909L146.852 66.1679C147.491 69.5128 147.301 72.8868 146.309 75.9289C144.617 81.1158 141.286 83.8405 136.661 83.8405ZM129.092 38.2565C128.691 38.3951 119.722 41.6633 122.169 55.9802L122.275 56.593C124.843 71.6138 126.539 81.5353 136.161 82.0022C140.247 82.1955 143.074 79.9668 144.58 75.3635C145.477 72.6132 145.645 69.5529 145.065 66.5108L141.421 47.4338C140.754 43.9358 138.751 40.8828 135.924 39.0553C133.579 37.5379 131.31 37.2607 129.176 38.2273L129.092 38.2601V38.2565Z" fill="#111C3A"/>
<path d="M16.987 193.852C16.7717 193.852 16.5601 193.775 16.385 193.626C16.0057 193.294 15.9692 192.717 16.3012 192.338L24.9861 182.457C25.318 182.077 25.8944 182.041 26.2737 182.373C26.6531 182.705 26.6896 183.281 26.3576 183.66L17.6727 193.542C17.4939 193.746 17.2423 193.852 16.987 193.852Z" fill="#111C3A"/>
<path d="M32.6097 199.389C32.1318 199.389 31.7306 199.017 31.7014 198.535L30.8552 185.407C30.8224 184.904 31.2053 184.47 31.7051 184.437C32.1975 184.401 32.6426 184.787 32.6754 185.287L33.5216 198.415C33.5544 198.918 33.1715 199.352 32.6717 199.385C32.6535 199.385 32.6316 199.385 32.6133 199.385L32.6097 199.389Z" fill="#111C3A"/>
<path d="M9.03887 179.736C8.56104 179.736 8.15981 179.364 8.13062 178.882C8.0978 178.379 8.48082 177.945 8.98054 177.912L22.1119 177.066C22.608 177.029 23.0493 177.416 23.0821 177.915C23.115 178.419 22.7319 178.853 22.2322 178.886L9.10085 179.732C9.08262 179.732 9.06076 179.732 9.04252 179.732L9.03887 179.736Z" fill="#111C3A"/>
<path d="M113.874 195.893C114.069 194.497 113.094 193.207 111.698 193.012C110.301 192.818 109.011 193.792 108.816 195.189C108.622 196.586 109.596 197.875 110.993 198.07C112.39 198.265 113.68 197.29 113.874 195.893Z" fill="#244777"/>
<path d="M77.6831 215.712C70.2711 215.712 64.2454 209.683 64.2454 202.275C64.2454 194.866 70.2748 188.837 77.6831 188.837C85.0913 188.837 91.1209 194.866 91.1209 202.275C91.1209 209.683 85.0913 215.712 77.6831 215.712ZM77.6831 190.657C71.2779 190.657 66.0692 195.869 66.0692 202.271C66.0692 208.672 71.2815 213.885 77.6831 213.885C84.0846 213.885 89.2971 208.672 89.2971 202.271C89.2971 195.869 84.0846 190.657 77.6831 190.657Z" fill="#111C3A"/>
<path d="M77.7087 202.661C75.1955 202.661 73.1528 200.619 73.1528 198.105C73.1528 195.592 75.1955 193.549 77.7087 193.549C80.2219 193.549 82.2645 195.592 82.2645 198.105C82.2645 200.619 80.2219 202.661 77.7087 202.661ZM77.7087 195.37C76.2022 195.37 74.9766 196.595 74.9766 198.102C74.9766 199.608 76.2022 200.834 77.7087 200.834C79.2151 200.834 80.4407 199.608 80.4407 198.102C80.4407 196.595 79.2151 195.37 77.7087 195.37Z" fill="#111C3A"/>
<path d="M83.6759 210.332C83.1726 210.332 82.764 209.924 82.764 209.42C82.764 206.634 80.4953 204.365 77.7085 204.365C74.9217 204.365 72.6529 206.634 72.6529 209.42C72.6529 209.924 72.2444 210.332 71.741 210.332C71.2376 210.332 70.8291 209.924 70.8291 209.42C70.8291 205.627 73.915 202.541 77.7085 202.541C81.502 202.541 84.5878 205.627 84.5878 209.42C84.5878 209.924 84.1793 210.332 83.6759 210.332Z" fill="#111C3A"/>
<path d="M331.133 128.341H222.857C212.577 128.341 204.244 136.675 204.244 146.955V197.974C204.244 208.254 212.577 216.587 222.857 216.587H331.133C341.413 216.587 349.747 208.254 349.747 197.974V146.955C349.747 136.675 341.413 128.341 331.133 128.341Z" fill="#244777"/>
<path d="M331.137 217.499H222.858C212.093 217.499 203.332 208.741 203.332 197.973V146.951C203.332 136.187 212.09 127.425 222.858 127.425H331.137C341.901 127.425 350.662 136.183 350.662 146.951V197.973C350.662 208.737 341.904 217.499 331.137 217.499ZM222.858 129.253C213.097 129.253 205.156 137.193 205.156 146.954V197.977C205.156 207.738 213.097 215.679 222.858 215.679H331.137C340.898 215.679 348.838 207.738 348.838 197.977V146.954C348.838 137.193 340.898 129.253 331.137 129.253H222.858Z" fill="#111C3A"/>
<path d="M262.208 216.587L260.847 144.704C260.847 141.414 259.385 138.295 256.86 136.19L248.409 127.593C247.07 126.477 246.41 124.69 246.855 123.001C247.103 122.06 247.658 121.184 248.803 120.794C248.803 120.794 249.762 116.701 252.549 116.264C252.549 116.264 253.596 112.258 256.904 111.733L251.068 99.076C250.751 98.3866 250.594 97.6207 250.685 96.8656C250.805 95.837 251.334 94.7865 253.191 95.6838C253.891 96.023 254.479 96.5555 254.902 97.2048L266.953 115.6C267.15 115.902 267.621 115.76 267.621 115.403V106.36C267.621 105.733 267.832 105.109 268.277 104.664C268.828 104.11 269.747 103.803 271.112 105.171C271.396 105.456 271.593 105.813 271.71 106.196L279.603 127.214L294.865 216.591H262.219L262.208 216.587Z" fill="white"/>
<path d="M261.296 216.606L259.935 145.299C259.935 142.253 258.6 139.404 256.277 137.467L256.211 137.405L247.789 128.841C246.166 127.465 245.454 125.313 245.972 123.347C246.301 122.107 247.012 121.203 248.044 120.699C248.391 119.583 249.474 116.811 251.838 116.074C252.228 115.002 253.315 112.645 255.624 111.722L250.236 100.036C249.832 99.1564 249.671 98.2226 249.773 97.3363C249.923 96.0742 250.499 95.5088 250.955 95.2572C251.655 94.8742 252.538 94.9362 253.581 95.4395C254.417 95.8408 255.135 96.4791 255.66 97.2816L266.702 114.133V106.929C266.702 106.018 267.03 105.186 267.625 104.591C268.106 104.11 268.69 103.855 269.31 103.855C270.105 103.855 270.926 104.274 271.75 105.098C272.118 105.47 272.399 105.945 272.563 106.474L280.479 127.546L280.493 127.63L295.77 215.821V216.587H293.946V215.978L278.71 128.027L270.827 107.032C270.751 106.776 270.623 106.554 270.455 106.386C269.82 105.748 269.441 105.678 269.31 105.678C269.255 105.678 269.116 105.678 268.916 105.879C268.668 106.127 268.526 106.51 268.526 106.929V115.972C268.526 116.541 268.161 117.03 267.614 117.194C267.07 117.358 266.494 117.146 266.184 116.672L254.132 98.281C253.789 97.7558 253.322 97.3399 252.786 97.081C252.213 96.8037 251.918 96.8074 251.834 96.8548C251.772 96.8876 251.641 97.0773 251.586 97.5479C251.52 98.0986 251.626 98.6968 251.892 99.2695L258.232 113.021L257.043 113.211C254.355 113.634 253.439 117.033 253.428 117.07L253.279 117.65L252.688 117.741C250.911 118.018 249.919 120.604 249.689 121.578L249.573 122.067L249.098 122.231C248.398 122.472 247.953 122.986 247.738 123.811C247.395 125.113 247.887 126.546 248.993 127.469L249.058 127.531L257.481 136.096C260.202 138.379 261.763 141.724 261.763 145.28L263.123 216.569L261.3 216.606H261.296Z" fill="#111C3A"/>
<path d="M320.289 206.823H348.31C348.55 205.765 348.682 204.66 348.682 203.522V184.824L318.72 189.591L320.289 206.823Z" fill="white"/>
<path d="M347.533 207.735H319.457L317.735 188.825L349.593 183.759V199.276C349.593 199.338 349.433 205.535 347.806 207.417L347.533 207.735ZM321.12 205.911H346.632C347.372 204.51 347.77 200.713 347.77 199.276V185.893L319.705 190.357L321.12 205.911Z" fill="#111C3A"/>
<path d="M347 205.732H320.289L303.915 216.011H334.5C334.5 216.011 345.589 211.627 347 205.732Z" fill="#EDAE00"/>
<path d="M344.439 135.155C339.832 135.264 332.399 135.851 326.905 138.317C326.905 138.317 322.805 141.097 317.79 145.609L317.301 145.842C317.301 145.842 308.963 149.986 303.214 149.811C297.466 149.636 306.818 157.518 306.818 157.518C296.138 172.152 306.45 192.772 324.564 193.002C330.075 193.071 336.108 192.32 341.711 189.876L348.678 184.824V144.934C348.678 141.075 347.044 137.599 344.436 135.151L344.439 135.155Z" fill="white"/>
<path d="M324.567 193.917H324.556C315.704 193.804 308.047 189.004 304.082 181.074C300.241 173.396 300.821 164.711 305.6 157.675C303.422 155.767 299.782 152.182 300.559 150.157C300.894 149.282 301.795 148.866 303.247 148.906C308.689 149.074 316.82 145.072 316.9 145.032L317.283 144.85C322.244 140.4 326.231 137.682 326.398 137.569L326.537 137.493C332.023 135.031 339.289 134.37 344.421 134.25L344.793 134.243L345.067 134.498C347.945 137.197 349.597 141.005 349.597 144.945V184.835C349.597 185.338 349.189 185.747 348.685 185.747C348.182 185.747 347.773 185.338 347.773 184.835V144.945C347.773 141.578 346.468 138.448 344.086 136.085C339.96 136.202 332.669 136.767 327.358 139.127C326.818 139.499 322.973 142.187 318.403 146.298L318.304 146.386L317.695 146.677C317.36 146.845 309.109 150.909 303.189 150.737C302.583 150.719 302.335 150.81 302.255 150.847C302.193 151.664 304.611 154.48 307.405 156.836L308.055 157.383L307.555 158.069C302.744 164.66 302.054 172.958 305.709 180.268C309.364 187.574 316.419 191.999 324.575 192.101C325.078 192.108 325.483 192.52 325.476 193.024C325.468 193.524 325.063 193.925 324.564 193.925L324.567 193.917Z" fill="#111C3A"/>
<path d="M336.546 144.762C342.699 143.949 321.912 159.397 322.145 165.55C322.379 171.704 338.337 169.044 338.337 169.044C338.337 169.044 327.697 184.912 342.455 189.34L348.678 184.828V144.937C348.678 141.078 347.044 137.602 344.436 135.155C339.829 135.264 332.395 135.851 326.902 138.317C326.902 138.317 330.385 145.576 336.539 144.762H336.546Z" fill="#EDAE00"/>
<path d="M342.627 190.343L342.196 190.211C338.118 188.989 335.517 186.808 334.47 183.73C332.807 178.845 335.561 173.079 337.199 170.285C333.562 170.667 325.866 171.112 322.733 168.523C321.784 167.742 321.284 166.75 321.241 165.583C321.106 162.001 326.573 156.376 331.399 151.412C333.394 149.362 335.805 146.881 336.55 145.681C329.882 146.473 326.241 139.032 326.088 138.711L325.683 137.868L326.537 137.485C332.023 135.023 339.289 134.363 344.421 134.243L344.793 134.235L345.067 134.491C347.945 137.19 349.597 140.998 349.597 144.937V185.294L342.63 190.346L342.627 190.343ZM341.007 167.91L339.745 169.672C339.69 169.748 334.248 177.452 336.192 183.146C337.006 185.528 339.055 187.271 342.291 188.333L347.766 184.361V144.934C347.766 141.567 346.46 138.437 344.078 136.074C340.168 136.187 333.416 136.697 328.2 138.758C329.287 140.524 332.194 144.412 336.422 143.858C337.458 143.723 338.14 143.967 338.45 144.587C339.114 145.911 337.589 147.647 332.698 152.681C328.583 156.916 322.948 162.712 323.053 165.513C323.079 166.159 323.342 166.67 323.885 167.118C326.752 169.486 335.671 168.731 338.862 168.238L341.003 167.91H341.007Z" fill="#111C3A"/>
<path d="M328.215 169.796C328.215 169.796 333.099 156.88 338.027 163.923C339.924 166.637 340.598 169.464 340.712 171.911C340.876 175.537 337.538 178.324 333.989 177.565L330.703 176.861L328.215 169.796Z" fill="white"/>
<path d="M335.174 178.605C334.719 178.605 334.259 178.557 333.799 178.459L330.513 177.755C330.021 177.649 329.707 177.164 329.813 176.672C329.918 176.179 330.403 175.866 330.896 175.971L334.182 176.675C335.609 176.982 337.064 176.613 338.177 175.672C339.274 174.742 339.869 173.385 339.803 171.955C339.676 169.183 338.829 166.659 337.283 164.449C336.422 163.216 335.55 162.647 334.708 162.749C332.534 163.019 330.097 167.414 329.072 170.121C328.893 170.591 328.368 170.828 327.898 170.649C327.427 170.471 327.19 169.945 327.369 169.475C327.679 168.654 330.52 161.436 334.485 160.94C336.054 160.743 337.502 161.571 338.782 163.405C340.529 165.904 341.485 168.753 341.627 171.875C341.718 173.878 340.89 175.767 339.355 177.069C338.166 178.076 336.692 178.609 335.174 178.609V178.605Z" fill="#111C3A"/>
<path d="M333.074 172.813C332.658 172.813 332.282 172.528 332.187 172.109C332.074 171.62 332.377 171.131 332.862 171.014C332.975 170.985 335.262 170.372 335.477 167.48C335.514 166.976 335.959 166.601 336.455 166.637C336.958 166.674 337.334 167.111 337.297 167.615C337.046 171.029 334.562 172.492 333.281 172.791C333.212 172.805 333.143 172.816 333.074 172.816V172.813Z" fill="#111C3A"/>
<path d="M323.385 151.087C322.619 152.412 321.445 153.167 320.759 152.769C320.073 152.375 320.139 150.978 320.905 149.654C321.671 148.33 322.846 147.575 323.531 147.972C324.217 148.366 324.151 149.763 323.385 151.087Z" fill="#111C3A"/>
<path d="M309.229 173.363C305.826 173.363 303.393 171.514 303.356 171.485C302.959 171.175 302.886 170.602 303.196 170.204C303.506 169.807 304.079 169.738 304.473 170.044C304.666 170.19 308.948 173.389 313.843 170.015C314.255 169.73 314.824 169.832 315.113 170.248C315.397 170.664 315.295 171.229 314.879 171.518C312.873 172.9 310.929 173.363 309.225 173.363H309.229Z" fill="#111C3A"/>
<path d="M328.215 149.708C327.806 149.708 327.434 149.431 327.332 149.015C326.063 143.909 322.094 142.833 321.923 142.793C321.438 142.669 321.142 142.172 321.262 141.687C321.386 141.202 321.872 140.903 322.364 141.023C322.576 141.075 327.558 142.369 329.101 148.578C329.222 149.066 328.926 149.562 328.437 149.683C328.364 149.701 328.288 149.708 328.218 149.708H328.215Z" fill="#111C3A"/>
</svg>
