<svg width="360" height="238" viewBox="0 0 360 238" fill="none" xmlns="http://www.w3.org/2000/svg">
<path d="M38.7922 131.833C38.577 131.833 38.3654 131.756 38.1903 131.606L28.7066 123.272C28.3272 122.94 28.2908 122.363 28.6227 121.984C28.9546 121.605 29.531 121.568 29.9103 121.9L39.3941 130.235C39.7734 130.567 39.8099 131.143 39.478 131.522C39.2992 131.727 39.0476 131.833 38.7922 131.833Z" fill="#244777"/>
<path d="M23.9903 138.493C23.5125 138.493 23.1112 138.121 23.082 137.639C23.0492 137.136 23.4322 136.702 23.932 136.669L36.5344 135.856C37.0304 135.827 37.4718 136.206 37.5047 136.706C37.5375 137.209 37.1545 137.643 36.6547 137.676L24.0523 138.489C24.034 138.489 24.0122 138.489 23.9939 138.489L23.9903 138.493Z" fill="#244777"/>
<path d="M43.6655 128.469C43.1877 128.469 42.7864 128.097 42.7573 127.615L41.9439 115.013C41.911 114.51 42.2941 114.076 42.7938 114.043C43.2935 114.021 43.7312 114.393 43.764 114.893L44.5774 127.495C44.6102 127.999 44.2273 128.433 43.7276 128.465C43.7093 128.465 43.6874 128.465 43.6692 128.465L43.6655 128.469Z" fill="#244777"/>
<path d="M279.717 37.6221C279.213 37.6221 278.805 37.2136 278.805 36.7102V31.8991C278.805 31.3957 279.213 30.9872 279.717 30.9872C280.22 30.9872 280.628 31.3957 280.628 31.8991V36.7102C280.628 37.2136 280.22 37.6221 279.717 37.6221Z" fill="#244777"/>
<path d="M283.572 39.0229C283.364 39.0229 283.156 38.9535 282.988 38.8113C282.602 38.4866 282.551 37.914 282.875 37.5273L285.965 33.8396C286.289 33.453 286.862 33.4019 287.249 33.7265C287.635 34.0512 287.687 34.6239 287.362 35.0105L284.272 38.6982C284.09 38.9134 283.835 39.0229 283.572 39.0229Z" fill="#244777"/>
<path d="M285.629 42.5755C285.195 42.5755 284.812 42.2654 284.732 41.824C284.644 41.328 284.973 40.8538 285.469 40.7663L290.207 39.9237C290.703 39.8325 291.177 40.1644 291.265 40.6605C291.352 41.1565 291.024 41.6307 290.528 41.7182L285.79 42.5609C285.735 42.5718 285.68 42.5755 285.629 42.5755Z" fill="#244777"/>
<path d="M289.098 49.0101C288.945 49.0101 288.788 48.97 288.646 48.8898L284.473 46.4933C284.035 46.2416 283.886 45.6872 284.137 45.2495C284.389 44.8117 284.943 44.6621 285.381 44.9138L289.554 47.3103C289.992 47.562 290.141 48.1164 289.89 48.5541C289.722 48.8496 289.415 49.0137 289.098 49.0137V49.0101Z" fill="#244777"/>
<path d="M283.455 53.7772C283.083 53.7772 282.737 53.5475 282.598 53.1791L280.935 48.6633C280.76 48.1928 281.004 47.6675 281.474 47.4924C281.945 47.3174 282.47 47.5617 282.645 48.0323L284.309 52.548C284.484 53.0185 284.239 53.5438 283.769 53.7189C283.667 53.759 283.557 53.7772 283.455 53.7772Z" fill="#244777"/>
<path d="M276.065 53.8099C275.963 53.8099 275.857 53.7916 275.759 53.7551C275.285 53.5837 275.04 53.0621 275.208 52.5879L276.835 48.0576C277.006 47.5834 277.528 47.339 278.002 47.5068C278.476 47.6782 278.721 48.1998 278.553 48.674L276.926 53.2043C276.791 53.5764 276.441 53.8099 276.069 53.8099H276.065Z" fill="#244777"/>
<path d="M270.382 49.0863C270.069 49.0863 269.762 48.9258 269.594 48.634C269.339 48.1999 269.485 47.6419 269.923 47.3865L274.077 44.9573C274.511 44.7019 275.069 44.8478 275.325 45.2855C275.58 45.7196 275.434 46.2776 274.996 46.533L270.842 48.9623C270.696 49.0462 270.539 49.0863 270.382 49.0863Z" fill="#244777"/>
<path d="M273.8 42.623C273.749 42.623 273.698 42.6194 273.647 42.6084L268.901 41.8023C268.405 41.7184 268.07 41.2479 268.153 40.7518C268.237 40.2558 268.708 39.9202 269.204 40.0041L273.95 40.8102C274.446 40.8941 274.781 41.3647 274.697 41.8607C274.621 42.3057 274.238 42.6194 273.8 42.6194V42.623Z" fill="#244777"/>
<path d="M275.825 39.0559C275.566 39.0559 275.31 38.9465 275.132 38.7349L272.013 35.0727C271.685 34.6897 271.732 34.1134 272.115 33.7888C272.498 33.4641 273.074 33.5079 273.399 33.8909L276.518 37.5531C276.846 37.9361 276.798 38.5124 276.415 38.8371C276.244 38.983 276.032 39.0559 275.825 39.0559Z" fill="#244777"/>
<path d="M169.216 51.1584C160.684 56.8451 151.861 62.838 146.703 71.7017C139.696 83.7424 140.998 99.6678 148.545 111.377C156.088 123.089 169.154 130.654 182.865 133.12C196.175 135.513 211.032 132.963 220.727 123.53C229.576 114.922 232.852 102.097 234.103 89.8157C235.788 73.241 234.326 55.8419 226.403 41.1822C220.016 29.364 208.946 19.8036 195.913 16.1305C185.108 13.0848 171.156 22.3132 166.958 32.1617C164.35 38.2787 164.485 46.0846 169.216 51.1548V51.1584Z" fill="#244777"/>
<path d="M203.339 38.4354C203.339 38.4354 203.339 8.39014 239.29 17.7681C239.29 17.7681 261.522 23.7538 251.852 58.665C251.852 58.665 290.148 65.0958 287.223 114.889C284.039 169.107 209.781 131.701 209.781 131.701L203.339 38.4391V38.4354Z" fill="#244777"/>
<path d="M209.259 117.49H187.622V67.5868H224.999V101.75C224.999 110.435 217.948 117.49 209.259 117.49Z" fill="white"/>
<path d="M209.263 118.406H186.713V66.679H225.914V101.754C225.914 110.935 218.444 118.406 209.263 118.406ZM188.537 116.582H209.263C217.437 116.582 224.09 109.929 224.09 101.754V68.5028H188.537V116.582Z" fill="#244777"/>
<path d="M307.456 144.081C289.382 123.873 264.411 111.241 237.444 108.447C234.843 108.177 232.159 107.951 229.412 107.78L226.706 95.8923L186.607 103.122V110.61C180.359 111.978 159.914 117.005 155.362 121.706C116.431 161.939 135.833 207.312 135.833 207.312V234.169L277.684 234.136C314.346 235.267 327.748 208.162 327.748 208.162C337.702 185.904 323.433 161.947 307.456 144.084V144.081Z" fill="#EDAE00"/>
<path d="M134.921 235.078V207.513C134.199 205.93 129.632 195.377 129.256 180.28C129.023 170.855 130.493 161.63 133.626 152.864C137.54 141.918 144.073 131.665 153.046 122.396C157.733 117.552 179.192 111.413 185.696 109.885V102.363L227.402 94.8422L230.149 106.916C232.596 107.076 235.077 107.288 237.539 107.543C264.87 110.374 289.944 123.133 308.138 143.472C317.6 154.05 324.341 164.365 328.178 174.137C333.073 186.612 333.212 198.182 328.583 208.531C328.426 208.848 325.041 215.589 317.053 222.271C309.98 228.187 297.87 235.081 279.869 235.081C279.143 235.081 278.407 235.071 277.662 235.049L134.928 235.085L134.921 235.078ZM187.516 103.885V111.344L186.797 111.501C180.476 112.883 158.7 119.172 154.352 123.662C134.487 144.191 130.73 165.711 131.073 180.152C131.448 195.833 136.599 206.809 136.65 206.915L136.737 207.101V233.25L277.677 233.218C296.327 233.79 308.696 226.845 315.805 220.921C323.527 214.483 326.891 207.816 326.923 207.75C336.907 185.419 321.477 161.126 306.77 144.687C288.879 124.687 264.225 112.139 237.342 109.352C234.679 109.075 231.987 108.853 229.346 108.685L228.664 108.641L226.002 96.9395L187.512 103.881L187.516 103.885Z" fill="#244777"/>
<path d="M296.929 218.229C296.028 211.98 291.819 206.151 286.026 203.529C281.522 201.49 276.426 201.099 271.491 201.41C266.556 201.72 261.686 202.69 256.769 203.259C251.775 203.835 244.94 204.776 240.862 201.384C236.813 198.021 233.796 193.64 229.773 190.262C227.84 188.639 225.542 187.261 223.021 187.14C220.479 187.016 218.075 188.172 215.796 189.299C208.165 193.075 200.53 196.846 192.9 200.622C191.623 201.253 190.277 201.946 189.54 203.164C188.803 204.382 189.019 206.286 190.328 206.852C190.996 207.14 191.765 207.02 192.48 206.896C196.004 206.279 199.524 205.663 203.047 205.05C205.823 204.565 209.471 203.149 212.166 204.273C208.894 208.635 204.656 212.531 201.012 216.616C199.877 217.889 198.688 219.294 198.546 220.997C198.418 222.525 199.265 224.094 200.611 224.831C201.957 225.564 203.733 225.425 204.951 224.492C205.553 226.148 207.132 227.406 208.88 227.629C210.627 227.851 212.469 227.027 213.468 225.575C213.629 227.318 215.679 228.376 217.411 228.117C219.144 227.855 220.581 226.684 221.898 225.527C223.215 224.371 224.583 223.146 226.29 222.737C228.234 228.57 235.504 231.962 241.223 229.704C243.328 228.872 245.232 227.399 247.482 227.165C249.229 226.983 250.955 227.581 252.625 228.128C261.336 230.992 270.397 232.779 279.541 233.435C284.097 233.764 289.083 233.687 292.676 230.86C296.338 227.982 297.593 222.828 296.926 218.218L296.929 218.229Z" fill="white"/>
<path d="M282.857 234.49C281.711 234.49 280.577 234.432 279.479 234.355C270.258 233.691 261.128 231.889 252.345 229.004L252.159 228.942C250.641 228.442 249.073 227.924 247.581 228.081C246.275 228.216 245.06 228.847 243.773 229.511C243.065 229.879 242.332 230.259 241.562 230.561C238.604 231.729 235.106 231.557 231.958 230.091C229.113 228.763 226.892 226.531 225.75 223.883C224.608 224.368 223.583 225.269 222.584 226.148L222.504 226.217C221.07 227.476 219.505 228.73 217.55 229.026C216.306 229.215 214.92 228.851 213.935 228.081C213.625 227.837 213.359 227.56 213.147 227.253C211.933 228.238 210.317 228.738 208.763 228.537C207.045 228.318 205.466 227.253 204.565 225.779C203.182 226.403 201.526 226.37 200.173 225.634C198.499 224.718 197.477 222.829 197.634 220.924C197.795 219.002 198.998 217.503 200.326 216.015C201.632 214.549 203.036 213.086 204.393 211.671C206.512 209.46 208.694 207.188 210.59 204.813C208.989 204.623 207.081 205.076 205.356 205.484C204.601 205.663 203.886 205.831 203.197 205.951L192.63 207.797C191.9 207.924 190.897 208.1 189.956 207.691C189.208 207.366 188.646 206.724 188.377 205.882C188.045 204.85 188.191 203.628 188.752 202.694C189.65 201.206 191.222 200.429 192.487 199.805L215.383 188.483C217.535 187.418 220.213 186.097 223.058 186.229C225.429 186.342 227.814 187.432 230.353 189.562C232.392 191.273 234.187 193.247 235.927 195.154C237.656 197.055 239.447 199.021 241.442 200.677C245.075 203.697 251.458 202.953 256.12 202.409L256.66 202.347C258.509 202.132 260.391 201.855 262.208 201.589C265.213 201.147 268.325 200.688 271.425 200.494C277.4 200.119 282.299 200.841 286.395 202.694C292.381 205.404 296.867 211.448 297.826 218.094C298.447 222.384 297.564 228.183 293.238 231.583C290.294 233.895 286.53 234.486 282.853 234.486L282.857 234.49ZM248.146 226.228C249.744 226.228 251.254 226.724 252.724 227.209L252.91 227.271C261.551 230.113 270.535 231.882 279.607 232.538C283.9 232.849 288.74 232.808 292.114 230.157C295.178 227.749 296.714 223.12 296.028 218.36C295.156 212.316 291.082 206.819 285.651 204.361C281.832 202.632 277.218 201.964 271.546 202.318C268.518 202.508 265.45 202.96 262.478 203.398C260.647 203.668 258.75 203.949 256.871 204.164L256.331 204.226C251.341 204.809 244.509 205.605 240.275 202.085C238.181 200.345 236.35 198.331 234.577 196.387C232.881 194.523 231.126 192.597 229.182 190.963C226.965 189.099 224.933 188.147 222.974 188.052C220.599 187.936 218.261 189.099 216.193 190.121L193.297 201.443C191.958 202.103 190.89 202.687 190.313 203.642C190.025 204.12 189.945 204.798 190.113 205.331C190.189 205.568 190.35 205.882 190.682 206.024C191.09 206.199 191.641 206.123 192.316 206.006L202.883 204.16C203.518 204.051 204.207 203.887 204.937 203.715C207.395 203.132 210.186 202.471 212.513 203.442L213.592 203.894L212.888 204.831C210.747 207.687 208.187 210.357 205.71 212.94C204.364 214.344 202.974 215.792 201.687 217.237C200.53 218.535 199.564 219.721 199.451 221.085C199.352 222.259 200.009 223.478 201.045 224.04C202.081 224.605 203.459 224.496 204.393 223.777L205.378 223.018L205.805 224.189C206.294 225.531 207.574 226.553 208.993 226.735C210.408 226.914 211.907 226.246 212.717 225.068L214.147 222.993L214.377 225.499C214.428 226.042 214.774 226.421 215.059 226.644C215.65 227.107 216.518 227.337 217.276 227.22C218.746 226.998 220.016 225.969 221.3 224.846L221.38 224.776C222.697 223.62 224.192 222.307 226.082 221.855L226.895 221.661L227.158 222.453C228.004 224.995 230.036 227.177 232.728 228.431C235.42 229.686 238.396 229.843 240.887 228.858C241.57 228.588 242.23 228.245 242.93 227.884C244.313 227.169 245.742 226.429 247.387 226.261C247.643 226.235 247.894 226.221 248.143 226.221L248.146 226.228Z" fill="#244777"/>
<path d="M211.2 206.213C210.992 206.213 210.784 206.144 210.612 205.998C210.226 205.673 210.178 205.097 210.503 204.714C212.4 202.467 214.533 200.402 216.846 198.579C217.244 198.265 217.816 198.334 218.126 198.728C218.44 199.122 218.371 199.698 217.977 200.009C215.763 201.756 213.716 203.736 211.9 205.889C211.721 206.104 211.462 206.213 211.203 206.213H211.2Z" fill="#244777"/>
<path d="M204.718 225.195C204.462 225.195 204.211 225.09 204.032 224.886C203.7 224.506 203.736 223.93 204.116 223.598C209.791 218.626 215.018 213.085 219.651 207.133C219.961 206.735 220.534 206.662 220.931 206.972C221.329 207.282 221.402 207.855 221.092 208.252C216.386 214.296 211.079 219.921 205.319 224.969C205.148 225.123 204.933 225.195 204.718 225.195Z" fill="#244777"/>
<path d="M213.322 226.863C213.042 226.863 212.768 226.735 212.589 226.495C212.29 226.09 212.374 225.517 212.779 225.218C217.127 222.004 221.084 218.262 224.535 214.096C224.856 213.71 225.432 213.655 225.819 213.976C226.206 214.297 226.26 214.873 225.939 215.26C222.394 219.539 218.331 223.383 213.862 226.684C213.698 226.805 213.508 226.863 213.322 226.863Z" fill="#244777"/>
<path d="M225.823 223.941C225.52 223.941 225.221 223.788 225.049 223.511C224.783 223.084 224.915 222.522 225.341 222.256C227.771 220.746 230.036 218.958 232.075 216.949C232.432 216.595 233.012 216.598 233.366 216.956C233.72 217.313 233.716 217.893 233.359 218.247C231.225 220.352 228.854 222.219 226.308 223.802C226.158 223.897 225.991 223.941 225.826 223.941H225.823Z" fill="#244777"/>
<path d="M250.349 210.605C250.072 210.605 249.798 210.477 249.62 210.24C247.391 207.26 244.488 204.736 241.227 202.941C240.785 202.701 240.625 202.146 240.865 201.705C241.11 201.263 241.664 201.103 242.102 201.344C245.589 203.262 248.693 205.958 251.079 209.146C251.382 209.551 251.298 210.12 250.896 210.422C250.732 210.546 250.543 210.605 250.349 210.605Z" fill="#244777"/>
<path d="M243.441 229.722C243.083 229.722 242.744 229.511 242.598 229.16C242.405 228.697 242.624 228.161 243.09 227.968C244.462 227.399 245.64 226.385 246.406 225.112C247.172 223.842 247.526 222.325 247.391 220.848C247.347 220.344 247.716 219.903 248.219 219.859C248.722 219.812 249.164 220.184 249.208 220.687C249.375 222.551 248.934 224.455 247.967 226.056C247.001 227.658 245.516 228.934 243.791 229.653C243.678 229.7 243.557 229.722 243.441 229.722Z" fill="#244777"/>
<path d="M295.138 233.086C294.784 233.086 294.445 232.878 294.299 232.532C294.102 232.068 294.318 231.532 294.781 231.335C305.972 226.575 313.821 215.213 314.314 203.059C314.336 202.556 314.755 202.165 315.262 202.184C315.765 202.205 316.156 202.628 316.137 203.132C315.616 215.971 307.321 227.979 295.496 233.009C295.379 233.06 295.259 233.082 295.138 233.082V233.086Z" fill="#244777"/>
<path d="M276.017 194.035C275.791 194.035 275.565 193.951 275.39 193.787C267.457 186.276 261.022 176.986 256.784 166.919C256.587 166.455 256.806 165.919 257.269 165.726C257.732 165.529 258.268 165.748 258.462 166.211C262.602 176.048 268.89 185.124 276.641 192.463C277.006 192.809 277.024 193.386 276.678 193.75C276.499 193.94 276.258 194.035 276.014 194.035H276.017Z" fill="#244777"/>
<path d="M300.949 220.983C300.847 220.983 300.744 220.965 300.642 220.929C300.168 220.757 299.92 220.236 300.092 219.762C301.598 215.563 301.624 210.927 300.164 206.71C298.705 202.494 295.824 198.864 292.045 196.49C291.618 196.22 291.491 195.658 291.757 195.231C292.027 194.805 292.588 194.677 293.015 194.943C297.144 197.537 300.296 201.505 301.886 206.112C303.48 210.719 303.451 215.786 301.806 220.374C301.671 220.746 301.321 220.98 300.949 220.98V220.983Z" fill="#244777"/>
<path d="M174.275 226.363C174.042 226.363 173.812 226.276 173.633 226.097C164.503 217.022 161.235 204.726 160.1 196.008C158.66 184.948 159.677 173.732 160.659 162.881C160.702 162.377 161.144 162.005 161.651 162.056C162.154 162.1 162.522 162.545 162.475 163.048C161.501 173.798 160.498 184.916 161.91 195.775C163.008 204.208 166.155 216.095 174.921 224.806C175.278 225.16 175.278 225.74 174.921 226.097C174.742 226.276 174.508 226.367 174.275 226.367V226.363Z" fill="#244777"/>
<path d="M122.184 163.511C121.133 156.924 120.028 150.347 118.864 143.778C116.789 132.051 114.531 120.353 112.098 108.695C109.946 98.387 107.531 88.181 105.365 77.8838C104.927 75.8047 104.876 69.4104 100.882 71.1102C98.1751 72.2628 98.6201 76.9756 98.6419 79.2444C98.6602 81.0791 98.7587 82.9102 98.9338 84.734C99.0067 85.5037 99.0213 89.4467 99.6341 89.8407C97.0479 88.1774 87.2651 82.8773 85.1641 81.6481C81.7353 79.6382 78.4525 77.3512 74.991 75.3998C72.051 73.7401 69.0964 72.0987 66.1346 70.4792C64.391 69.5235 61.7793 67.0905 59.981 69.3776C59.2953 70.2494 59.339 71.526 59.7986 72.5364C60.2582 73.5468 61.0644 74.3493 61.8559 75.1299C66.5066 79.7149 71.1537 84.2999 75.8044 88.8849C75.6366 88.7208 73.6157 89.7129 73.3677 89.8625C72.5433 90.3549 72.1458 90.9531 71.9087 91.8614C71.46 93.5976 71.9415 95.5491 73.3896 96.6871C72.5215 97.8215 71.7227 99.0544 71.4053 100.448C71.088 101.841 71.3324 103.428 72.3245 104.457C72.5543 104.697 72.8315 104.916 72.9446 105.226C73.116 105.7 72.8644 106.207 72.671 106.671C70.8582 111.015 73.8601 115.173 76.574 118.31C79.5686 121.775 82.7895 124.58 87.1447 126.273C89.3843 127.141 91.7553 127.674 94.159 127.805C94.9542 140.714 94.7974 153.681 93.6886 166.564L122.184 163.515V163.511Z" fill="white"/>
<path d="M92.6856 167.586L92.7804 166.484C93.8601 153.948 94.0351 141.225 93.2983 128.655C91.1098 128.458 88.9358 127.944 86.8202 127.123C82.8334 125.577 79.463 123.042 75.8883 118.905C72.9666 115.524 69.8661 111.037 71.8322 106.317L71.8869 106.19C71.9635 106.007 72.124 105.628 72.0911 105.537C72.0692 105.482 71.927 105.343 71.8358 105.249C71.7811 105.194 71.7264 105.139 71.6717 105.084C70.5482 103.921 70.1069 102.068 70.5191 100.244C70.8182 98.9199 71.5039 97.7454 72.1788 96.7934C70.9896 95.4583 70.5373 93.5215 71.0261 91.6357C71.3361 90.4466 71.8942 89.6806 72.901 89.0824C73.0724 88.9802 73.6012 88.7176 74.1046 88.4914L61.2177 75.7832C60.4152 74.9917 59.5069 74.098 58.9707 72.9198C58.3178 71.4863 58.4345 69.8777 59.2662 68.8199C61.2541 66.2958 63.9826 68.0466 65.6131 69.0935C65.9596 69.316 66.2878 69.5276 66.5723 69.6845C69.5014 71.2894 72.4851 72.9454 75.436 74.6124C77.3547 75.6957 79.2405 76.8921 81.0606 78.0484C82.5488 78.9931 84.0845 79.9707 85.6201 80.8716C86.346 81.2984 88.0421 82.2395 90.0082 83.3264C92.7585 84.8511 96.0012 86.6494 98.2043 87.9297C98.146 87.3096 98.0986 86.5473 98.0585 85.6135C98.0439 85.2597 98.0329 84.9824 98.0183 84.8292C97.8396 82.9872 97.7411 81.1124 97.7228 79.2594C97.7228 79.026 97.712 78.7706 97.7047 78.4897C97.6354 75.8963 97.5186 71.552 100.517 70.2753C101.648 69.7938 102.654 69.7975 103.512 70.2826C105.368 71.3368 105.769 74.3059 106.065 76.4726C106.131 76.9687 106.189 77.3955 106.255 77.6982C107.301 82.6808 108.429 87.7291 109.519 92.6096C110.679 97.8111 111.879 103.191 112.992 108.513C115.417 120.12 117.694 131.931 119.765 143.625C120.922 150.165 122.041 156.807 123.088 163.373L123.238 164.321L92.6892 167.59L92.6856 167.586ZM75.8118 89.7717C75.4944 89.8301 74.1265 90.4721 73.8347 90.6436C73.2511 90.9937 72.9776 91.3694 72.7915 92.088C72.4012 93.5872 72.8572 95.1082 73.9514 95.9654L74.6627 96.5234L74.1119 97.2384C73.3787 98.194 72.5872 99.3467 72.2918 100.645C72.0109 101.878 72.2736 103.093 72.9776 103.819C73.0177 103.862 73.0614 103.903 73.1052 103.946C73.3313 104.169 73.6378 104.468 73.8019 104.913C74.0828 105.683 73.7836 106.387 73.5648 106.905L73.5137 107.021C71.938 110.797 74.5278 114.546 77.2671 117.716C80.6375 121.615 83.7854 123.994 87.4804 125.427C89.6799 126.281 91.9451 126.777 94.2139 126.897L95.0236 126.941L95.0747 127.751C95.848 140.298 95.7204 153.007 94.6954 165.543L121.137 162.716C120.137 156.472 119.072 150.161 117.971 143.946C115.902 132.27 113.63 120.477 111.208 108.889C110.099 103.582 108.903 98.2087 107.743 93.0108C106.652 88.1231 105.525 83.0712 104.475 78.0776C104.398 77.7092 104.336 77.2495 104.263 76.7206C104.048 75.1339 103.69 72.4822 102.618 71.873C102.494 71.8037 102.115 71.5885 101.239 71.9569C99.3862 72.7484 99.481 76.3121 99.5358 78.4459C99.5431 78.7341 99.5503 79.0041 99.5539 79.2448C99.5722 81.0431 99.6707 82.8668 99.8421 84.6578C99.8567 84.8256 99.8713 85.143 99.8896 85.5369C99.9224 86.3357 100.028 88.7577 100.294 89.2428C100.294 89.2428 100.251 89.1626 100.13 89.086L99.1454 90.618C97.4931 89.5565 92.857 86.9849 89.1328 84.9204C87.1594 83.8261 85.4523 82.8815 84.7082 82.4438C83.1434 81.5282 81.5932 80.5433 80.0904 79.5877C78.2885 78.4423 76.4246 77.2605 74.546 76.199C71.5988 74.5357 68.626 72.8834 65.7006 71.2821C65.3577 71.096 65.0039 70.8662 64.6318 70.6255C62.5417 69.2832 61.5313 68.8893 60.7033 69.9434C60.2328 70.5453 60.3276 71.4899 60.634 72.1611C61.0316 73.0292 61.7794 73.7697 62.5017 74.481L76.4501 88.2361L75.1698 89.5347C75.4215 89.7827 75.7206 89.7936 75.8154 89.7717H75.8118Z" fill="#244777"/>
<path d="M95.7567 99.2845C95.4758 99.2845 95.1949 99.1532 95.0162 98.9088C94.7207 98.5003 94.8119 97.9313 95.2168 97.6358C95.8552 97.1726 95.8588 96.071 95.4648 95.3707C95.0417 94.6229 94.221 93.9992 92.948 93.4593C90.6938 92.5037 88.0055 92.2301 85.164 91.9383C81.5748 91.5699 77.8652 91.1905 74.9763 89.3193C74.5532 89.0457 74.4328 88.4803 74.7064 88.0572C74.9799 87.6341 75.5453 87.5137 75.9684 87.7873C78.4853 89.4214 81.8192 89.7606 85.35 90.1254C88.2025 90.4172 91.1534 90.72 93.6593 91.7814C95.3153 92.4817 96.4278 93.3645 97.0552 94.477C97.8577 95.8996 97.792 98.0225 96.2892 99.1131C96.1287 99.2298 95.939 99.2882 95.753 99.2882L95.7567 99.2845Z" fill="#244777"/>
<path d="M91.9232 105.891C91.4308 105.891 91.0259 105.5 91.0113 105.004C90.9967 104.501 91.3943 104.082 91.8976 104.067C92.8679 104.041 93.8746 104.012 94.7318 103.688C95.3701 103.443 96.1069 102.914 96.2638 102.156C96.4571 101.218 95.6401 100.222 94.7428 99.7955C93.6704 99.2885 92.3354 99.263 91.0478 99.2374H90.9602C85.2189 99.128 79.4338 98.632 73.7581 97.7675C73.262 97.6909 72.9192 97.2276 72.9958 96.7279C73.0724 96.2318 73.5356 95.8853 74.0353 95.9655C79.6307 96.8191 85.3392 97.3042 90.9967 97.4136H91.0842C92.4958 97.4428 94.0972 97.472 95.5234 98.1468C97.0773 98.88 98.4451 100.62 98.0512 102.524C97.7958 103.764 96.7708 104.866 95.3774 105.395C94.2321 105.829 93.0175 105.861 91.9487 105.894C91.9414 105.894 91.9305 105.894 91.9232 105.894V105.891Z" fill="#244777"/>
<path d="M89.5523 120.361C89.5194 120.361 89.483 120.361 89.4501 120.353C88.9504 120.295 88.5893 119.846 88.6477 119.347C88.7644 118.325 88.334 117.158 87.4695 116.148C86.6233 115.156 85.4743 114.386 84.3654 113.638L82.4941 112.38L91.5877 110.749C92.5652 110.574 93.4771 110.37 93.9148 109.783C94.2868 109.283 94.254 108.44 93.8346 107.817C93.4187 107.2 92.6637 106.737 91.7153 106.511C90.7742 106.288 89.7347 106.303 88.7316 106.317L74.1266 106.525H74.1119C73.6159 106.525 73.2073 106.124 73.2 105.628C73.1928 105.125 73.594 104.709 74.0973 104.702L88.7024 104.494C89.8185 104.479 90.9712 104.461 92.1348 104.738C93.5318 105.07 94.6698 105.799 95.3446 106.795C96.2055 108.068 96.2201 109.746 95.3775 110.873C94.5422 111.989 93.2072 112.31 91.9123 112.54L87.185 113.39C87.7832 113.853 88.3523 114.364 88.8629 114.959C90.052 116.352 90.6393 118.026 90.4678 119.547C90.4168 120.014 90.0192 120.357 89.5632 120.357L89.5523 120.361Z" fill="#244777"/>
<path d="M97.0444 129.085C95.6948 129.085 94.3452 128.936 93.0394 128.629C92.5506 128.516 92.2441 128.024 92.3572 127.535C92.4703 127.046 92.9627 126.736 93.4515 126.853C96.541 127.572 99.8713 127.338 102.833 126.193C103.304 126.01 103.833 126.244 104.011 126.714C104.194 127.185 103.96 127.714 103.49 127.892C101.447 128.684 99.2439 129.085 97.0444 129.085Z" fill="#244777"/>
<path d="M186.545 124.081C186.086 124.081 185.692 123.734 185.641 123.267C185.586 122.768 185.947 122.315 186.447 122.261C200.829 120.67 214.76 116.731 227.843 110.552C228.299 110.337 228.843 110.53 229.058 110.986C229.273 111.442 229.08 111.985 228.624 112.201C215.354 118.467 201.234 122.461 186.647 124.074C186.615 124.074 186.578 124.077 186.545 124.077V124.081Z" fill="#244777"/>
<path d="M191.105 110.76H191.094C190.591 110.757 190.186 110.341 190.193 109.837C190.211 108.024 190.087 106.193 189.825 104.395C189.752 103.895 190.098 103.432 190.594 103.359C191.094 103.286 191.554 103.633 191.63 104.129C191.907 106.018 192.039 107.944 192.017 109.856C192.013 110.355 191.605 110.757 191.105 110.757V110.76Z" fill="#244777"/>
<path d="M198.433 109.545C197.944 109.545 197.543 109.159 197.521 108.67L197.31 103.228C197.291 102.724 197.682 102.301 198.185 102.279C198.685 102.265 199.112 102.652 199.133 103.155L199.345 108.597C199.363 109.1 198.973 109.523 198.47 109.545C198.459 109.545 198.444 109.545 198.433 109.545Z" fill="#244777"/>
<path d="M206.414 108.542C205.929 108.542 205.524 108.159 205.502 107.667L205.258 101.652C205.236 101.148 205.63 100.725 206.133 100.703C206.651 100.685 207.06 101.075 207.082 101.579L207.326 107.594C207.348 108.097 206.954 108.52 206.45 108.542C206.436 108.542 206.425 108.542 206.414 108.542Z" fill="#244777"/>
<path d="M214.41 107.109C213.925 107.109 213.52 106.726 213.498 106.233L213.253 100.219C213.231 99.7152 213.625 99.292 214.129 99.2701C214.647 99.2592 215.055 99.6422 215.077 100.146L215.322 106.16C215.343 106.664 214.949 107.087 214.446 107.109C214.431 107.109 214.421 107.109 214.41 107.109Z" fill="#244777"/>
<path d="M223.098 105.537C222.613 105.537 222.208 105.154 222.186 104.661L221.942 98.6463C221.92 98.143 222.314 97.7198 222.817 97.6979C223.332 97.6906 223.744 98.07 223.766 98.5734L224.01 104.588C224.032 105.092 223.638 105.515 223.135 105.537C223.12 105.537 223.109 105.537 223.098 105.537Z" fill="#244777"/>
<path d="M192.356 10.7644C192.356 10.7644 160.925 41.9587 177.507 75.119C194.089 108.279 224.998 67.5904 224.998 67.5904C224.998 67.5904 244.389 40.2735 232.305 23.1298C220.22 5.98605 192.356 10.7644 192.356 10.7644Z" fill="white"/>
<path d="M194.439 89.0421C193.181 89.0421 191.955 88.9036 190.762 88.63C185.123 87.3315 180.388 82.9215 176.69 75.5242C169.777 61.7034 170.193 45.9969 177.89 30.1079C183.675 18.162 191.386 10.44 191.711 10.1154L191.915 9.9111L192.199 9.86373C192.487 9.81266 199.392 8.65995 207.899 9.60832C219.257 10.8777 227.953 15.3716 233.049 22.6011C238.17 29.8671 238.513 40.0694 234.037 52.1029C230.696 61.0833 225.943 67.8314 225.743 68.1159C225.451 68.5281 224.882 68.6229 224.47 68.3311C224.057 68.0392 223.963 67.4702 224.254 67.058C224.444 66.7881 243.131 40.0658 231.561 23.6516C220.596 8.09822 195.745 11.1877 192.794 11.6145C191.528 12.9276 184.645 20.325 179.509 30.9468C171.984 46.5111 171.587 61.2329 178.32 74.7035C181.764 81.5902 186.086 85.6754 191.171 86.8499C196.886 88.1667 203.602 85.9125 211.127 80.1457C211.524 79.8393 212.097 79.9159 212.403 80.3135C212.71 80.7147 212.633 81.2837 212.236 81.5901C205.772 86.5436 199.805 89.0348 194.435 89.0348L194.439 89.0421Z" fill="#244777"/>
<path d="M207.417 0.0807696C229.011 0.941604 242.704 24.5379 243.485 38.9168C244.265 53.2956 229.325 58.4205 229.325 58.4205C218.929 55.517 220.676 41.7181 220.676 41.7181C194.993 39.6645 194.993 20.0587 194.993 20.0587C194.993 20.0587 187.826 26.256 176.431 23.5312C176.431 23.5312 165.222 -1.60077 207.417 0.0807696Z" fill="#244777"/>
<path d="M227.296 52.5517H214.18C213.676 52.5517 213.268 52.1432 213.268 51.6398C213.268 51.1364 213.676 50.7279 214.18 50.7279H227.296C227.8 50.7279 228.208 51.1364 228.208 51.6398C228.208 52.1432 227.8 52.5517 227.296 52.5517Z" fill="#244777"/>
<path d="M222.905 55.3966C222.905 55.3966 232.779 44.5231 236.985 50.465C241.19 56.407 241.322 70.6837 235.106 72.1501C228.891 73.6164 222.518 68.2216 222.518 68.2216L222.901 55.3966H222.905Z" fill="white"/>
<path d="M232.87 73.3171C227.202 73.3171 222.171 69.1224 221.931 68.9181C221.548 68.5935 221.5 68.0171 221.825 67.6342C222.15 67.2512 222.726 67.2037 223.109 67.5284C223.167 67.5794 229.211 72.6058 234.898 71.2671C236.642 70.855 237.619 69.1515 238.133 67.7946C239.957 62.9761 239.053 54.9696 236.24 50.9974C235.624 50.1256 234.851 49.6734 233.873 49.615C230.4 49.4108 225.261 54.1635 223.576 56.0165C223.237 56.3886 222.66 56.4178 222.288 56.0786C221.916 55.7393 221.887 55.163 222.226 54.791C222.496 54.4919 228.927 47.4812 233.982 47.7949C235.522 47.8897 236.784 48.6119 237.729 49.9469C240.891 54.4116 241.876 63.0564 239.84 68.4439C238.881 70.9826 237.316 72.573 235.318 73.0436C234.497 73.2369 233.676 73.3208 232.87 73.3208V73.3171Z" fill="#244777"/>
<path d="M229.617 62.4511C228.19 62.4511 227.122 62.1411 227.034 62.1155C226.553 61.9696 226.275 61.4626 226.421 60.9811C226.564 60.4996 227.071 60.2261 227.556 60.3683C227.596 60.3793 231.116 61.3787 233.428 59.336C233.808 59.0004 234.38 59.0369 234.716 59.4163C235.048 59.7956 235.015 60.3719 234.636 60.7039C233.049 62.1046 231.13 62.4511 229.62 62.4511H229.617Z" fill="#244777"/>
<path d="M198.273 51.8583C198.243 53.9958 199.254 55.9291 200.527 56.1771C201.8 56.4215 202.858 54.8894 202.883 52.7483C202.912 50.6108 201.902 48.6776 200.629 48.4296C199.356 48.1852 198.298 49.7172 198.273 51.8583Z" fill="#244777"/>
<path d="M174.851 51.8583C174.822 53.9958 175.833 55.9291 177.106 56.1771C178.379 56.4215 179.436 54.8894 179.462 52.7483C179.488 50.6072 178.481 48.6776 177.208 48.4296C175.935 48.1852 174.877 49.7172 174.851 51.8583Z" fill="#244777"/>
<path d="M189.398 75.0539C188.544 75.0539 187.691 74.9955 186.848 74.8788C186.348 74.8095 186.002 74.3499 186.071 73.8502C186.141 73.3504 186.6 73.0039 187.1 73.0732C192.396 73.81 198.061 71.9461 201.891 68.2146C202.252 67.8645 202.828 67.8717 203.182 68.2328C203.532 68.5939 203.525 69.1703 203.168 69.5241C199.556 73.0477 194.457 75.0575 189.405 75.0575L189.398 75.0539Z" fill="#244777"/>
<path d="M208.81 47.6345C208.617 47.6345 208.42 47.5725 208.256 47.4449C205.732 45.5043 202.248 44.8004 199.17 45.6065C198.685 45.7306 198.185 45.4424 198.057 44.9536C197.93 44.4648 198.221 43.9687 198.71 43.8411C202.325 42.8963 206.407 43.7207 209.369 45.9968C209.766 46.3032 209.843 46.8759 209.536 47.2771C209.358 47.5105 209.088 47.6345 208.81 47.6345Z" fill="#244777"/>
<path d="M183.861 48.3205C183.668 48.3205 183.471 48.2585 183.307 48.1308C180.782 46.1903 177.299 45.4863 174.22 46.2924C173.735 46.4164 173.236 46.1282 173.108 45.6394C172.98 45.1507 173.272 44.6546 173.761 44.5269C177.376 43.5822 181.457 44.4066 184.419 46.6827C184.82 46.9891 184.893 47.5618 184.587 47.9594C184.408 48.1928 184.138 48.3168 183.865 48.3168L183.861 48.3205Z" fill="#244777"/>
<path d="M176.792 62.7213C170.095 62.7213 164.645 57.2718 164.645 50.5748C164.645 43.8778 170.095 38.4283 176.792 38.4283C183.489 38.4283 188.938 43.8778 188.938 50.5748C188.938 57.2718 183.489 62.7213 176.792 62.7213ZM176.792 40.2557C171.101 40.2557 166.469 44.8846 166.469 50.5785C166.469 56.2724 171.098 60.9012 176.792 60.9012C182.486 60.9012 187.114 56.2724 187.114 50.5785C187.114 44.8846 182.486 40.2557 176.792 40.2557Z" fill="#244777"/>
<path d="M202.945 63.7861C196.248 63.7861 190.799 58.3366 190.799 51.6396C190.799 44.9426 196.248 39.4932 202.945 39.4932C209.642 39.4932 215.092 44.9426 215.092 51.6396C215.092 58.3366 209.642 63.7861 202.945 63.7861ZM202.945 41.3206C197.255 41.3206 192.622 45.9494 192.622 51.6433C192.622 57.3372 197.251 61.966 202.945 61.966C208.639 61.966 213.268 57.3372 213.268 51.6433C213.268 45.9494 208.639 41.3206 202.945 41.3206Z" fill="#244777"/>
<path d="M191.762 51.4903H188.026C187.523 51.4903 187.115 51.0818 187.115 50.5784C187.115 50.075 187.523 49.6665 188.026 49.6665H191.762C192.265 49.6665 192.673 50.075 192.673 50.5784C192.673 51.0818 192.265 51.4903 191.762 51.4903Z" fill="#244777"/>
<path d="M186.867 66.2259C186.867 66.2259 186.834 66.2259 186.815 66.2259C185.353 66.1456 184.109 65.6897 183.223 64.9091C182.052 63.8769 181.581 62.2865 182.055 60.9551C182.489 59.7368 183.533 59.0401 184.452 58.4274C184.634 58.307 184.813 58.1866 184.984 58.0626C186.976 56.6473 188.315 54.3493 188.559 51.9127C188.61 51.413 189.059 51.0482 189.558 51.0956C190.058 51.1467 190.427 51.5917 190.375 52.0951C190.08 55.046 188.461 57.8292 186.042 59.5472C185.856 59.6822 185.659 59.8098 185.462 59.9411C184.711 60.4408 184.003 60.9114 183.773 61.5607C183.555 62.1771 183.828 63.0087 184.426 63.534C185.156 64.176 186.181 64.3584 186.914 64.3985C187.417 64.4241 187.804 64.8544 187.775 65.3578C187.749 65.8429 187.344 66.2187 186.867 66.2187V66.2259Z" fill="#244777"/>
<path d="M182.504 24.7604C180.706 24.7604 178.907 24.5196 177.182 24.0308C176.697 23.8922 176.416 23.3889 176.551 22.9074C176.686 22.4223 177.19 22.1414 177.678 22.2763C181.891 23.4654 186.564 23.035 190.489 21.0981C194.417 19.1613 197.598 15.718 199.221 11.6509C199.407 11.184 199.94 10.9542 200.406 11.1403C200.873 11.3263 201.103 11.8588 200.917 12.3257C199.13 16.805 195.621 20.5984 191.295 22.7323C188.577 24.0709 185.539 24.7567 182.504 24.7567V24.7604Z" fill="#244777"/>
<path d="M222.164 41.445C217.722 41.445 212.845 40.7155 208.172 38.5416C200.461 34.9523 195.019 27.7519 194.315 20.1978C194.267 19.698 194.636 19.253 195.139 19.2056C195.639 19.1655 196.084 19.5266 196.131 20.03C196.777 26.9495 201.807 33.5699 208.942 36.8892C216.766 40.5295 225.265 39.873 231.017 38.6839C231.51 38.5817 231.991 38.8991 232.093 39.3915C232.195 39.8839 231.878 40.3654 231.386 40.4712C228.763 41.0146 225.589 41.4487 222.161 41.4487L222.164 41.445Z" fill="#244777"/>
<path d="M225.038 53.7369C224.772 53.7369 224.51 53.6239 224.331 53.4014C221.467 49.8887 219.881 45.4569 219.859 40.9229C219.859 40.4196 220.264 40.0074 220.767 40.0074H220.771C221.274 40.0074 221.679 40.4123 221.683 40.9156C221.705 45.0338 223.145 49.0608 225.746 52.2524C226.063 52.6427 226.005 53.219 225.615 53.5364C225.447 53.675 225.243 53.7406 225.038 53.7406V53.7369Z" fill="#244777"/>
<path d="M74.3416 227.608L47.663 150.41C46.131 145.982 49.4212 141.364 54.1084 141.364H161.855C163.142 141.364 164.284 142.196 164.678 143.425L192.801 231.693H264.962C266.319 231.693 267.42 232.795 267.42 234.152C267.42 235.509 266.319 236.61 264.962 236.61H86.9878C81.283 236.61 76.2056 232.992 74.3453 227.601L74.3416 227.608Z" fill="#244777"/>
<path d="M192.433 230.548L164.758 143.37C164.379 142.177 163.27 141.368 162.019 141.368C160.068 141.368 158.685 143.272 159.287 145.128L188.045 233.667C188.617 235.425 190.255 236.617 192.105 236.617H264.954C266.311 236.617 267.413 235.516 267.413 234.159C267.413 232.802 266.311 231.701 264.954 231.701H194.001C193.283 231.701 192.648 231.237 192.429 230.551L192.433 230.548Z" fill="#FFEAC6"/>
<path d="M264.958 236.799H192.108C190.171 236.799 188.472 235.563 187.873 233.721L159.116 145.182C158.809 144.241 158.97 143.242 159.55 142.443C160.13 141.644 161.031 141.185 162.023 141.185C163.361 141.185 164.529 142.042 164.934 143.315L192.608 230.493C192.801 231.105 193.363 231.514 194.005 231.514H264.958C266.413 231.514 267.599 232.699 267.599 234.155C267.599 235.61 266.413 236.796 264.958 236.796V236.799ZM162.023 141.549C161.151 141.549 160.359 141.954 159.845 142.658C159.335 143.362 159.192 144.241 159.462 145.073L188.22 233.611C188.767 235.3 190.332 236.438 192.108 236.438H264.958C266.213 236.438 267.234 235.417 267.234 234.162C267.234 232.907 266.213 231.886 264.958 231.886H194.005C193.203 231.886 192.502 231.372 192.261 230.609L164.587 143.432C164.23 142.308 163.201 141.553 162.023 141.553V141.549Z" fill="#F9DC5C"/>
<path d="M264.958 237.529C264.455 237.529 264.046 237.12 264.046 236.617C264.046 236.114 264.455 235.705 264.958 235.705C265.812 235.705 266.505 235.012 266.505 234.159C266.505 233.305 265.812 232.612 264.958 232.612H194.005C192.885 232.612 191.904 231.893 191.565 230.825L163.89 143.647C163.631 142.83 162.88 142.279 162.023 142.279C161.519 142.279 161.111 141.871 161.111 141.367C161.111 140.864 161.519 140.455 162.023 140.455C163.679 140.455 165.131 141.517 165.63 143.096L193.305 230.274C193.403 230.58 193.684 230.788 194.005 230.788H264.958C266.818 230.788 268.329 232.302 268.329 234.159C268.329 236.015 266.815 237.529 264.958 237.529Z" fill="#244777"/>
<path d="M117.172 194.659L115.41 197.953C114.159 200.291 110.989 200.732 109.147 198.824L104.909 194.429C103.687 193.163 103.461 191.237 104.358 189.724L106.404 186.262C107.765 183.964 110.975 183.672 112.722 185.689L116.676 190.249C117.737 191.474 117.934 193.225 117.168 194.655L117.172 194.659Z" fill="white"/>
<path d="M359.088 237.528H0.9119C0.408531 237.528 0 237.12 0 236.616C0 236.113 0.408531 235.705 0.9119 235.705H359.088C359.591 235.705 360 236.113 360 236.616C360 237.12 359.591 237.528 359.088 237.528Z" fill="#244777"/>
<path d="M38.0845 219.206H88.8847C95.1804 219.206 100.283 214.103 100.283 207.808C100.283 201.512 95.1804 196.409 88.8847 196.409H83.4315V188.599C83.4315 188.165 82.9209 187.932 82.5926 188.216L73.1453 196.409H38.0809C31.7851 196.409 26.6821 201.512 26.6821 207.808C26.6821 214.103 31.7851 219.206 38.0809 219.206H38.0845Z" fill="#EDAE00"/>
<path d="M88.8884 220.119H38.0882C31.3001 220.119 25.7776 214.596 25.7776 207.808C25.7776 201.02 31.3001 195.497 38.0882 195.497H72.8135L82.0018 187.527C82.4285 187.159 83.0085 187.075 83.5191 187.308C84.0298 187.542 84.3472 188.038 84.3472 188.6V195.497H88.8884C95.6766 195.497 101.199 201.02 101.199 207.808C101.199 214.596 95.6766 220.119 88.8884 220.119ZM38.0846 197.317C32.3031 197.317 27.5977 202.023 27.5977 207.804C27.5977 213.586 32.3031 218.291 38.0846 218.291H88.8847C94.6662 218.291 99.3716 213.586 99.3716 207.804C99.3716 202.023 94.6662 197.317 88.8847 197.317H82.5197V189.482L73.4882 197.317H38.0809H38.0846Z" fill="#EDAE00"/>
<path d="M58.9415 214.709L53.3753 209.142C53.0178 208.785 53.0178 208.208 53.3753 207.851C53.7327 207.494 54.3091 207.494 54.6665 207.851L58.9415 212.126L67.9219 203.146C68.2793 202.788 68.8557 202.788 69.2131 203.146C69.5706 203.503 69.5706 204.079 69.2131 204.437L58.9415 214.709Z" fill="white"/>
</svg>
