<svg width="360" height="239" viewBox="0 0 360 239" fill="none" xmlns="http://www.w3.org/2000/svg">
<path d="M300.227 0.912476H249.427C243.131 0.912476 238.028 6.01547 238.028 12.3112C238.028 18.607 243.131 23.71 249.427 23.71H254.88V31.5195C254.88 31.9536 255.39 32.187 255.719 31.9025L265.166 23.71H300.23C306.526 23.71 311.629 18.607 311.629 12.3112C311.629 6.01547 306.526 0.912476 300.23 0.912476H300.227Z" fill="#EDAE00"/>
<path d="M255.39 32.9415C255.19 32.9415 254.989 32.8977 254.796 32.8102C254.285 32.5767 253.968 32.0807 253.968 31.5189V24.6213H249.427C242.638 24.6213 237.116 19.0988 237.116 12.3107C237.116 5.52247 242.638 0 249.427 0H300.227C307.015 0 312.537 5.52247 312.537 12.3107C312.537 19.0988 307.015 24.6213 300.227 24.6213H265.502L256.313 32.5913C256.047 32.8211 255.722 32.9415 255.387 32.9415H255.39ZM249.427 1.8238C243.645 1.8238 238.94 6.52921 238.94 12.3107C238.94 18.0921 243.645 22.7975 249.427 22.7975H255.792V30.6325L264.823 22.7975H300.231C306.012 22.7975 310.717 18.0921 310.717 12.3107C310.717 6.52921 306.012 1.8238 300.231 1.8238H249.43H249.427Z" fill="#EDAE00"/>
<path d="M70.9969 23.2894H220.104C229.343 23.2894 236.842 30.7889 236.842 40.0283V237.571H54.2544V40.0283C54.2544 30.7889 61.7538 23.2894 70.9932 23.2894H70.9969Z" fill="white"/>
<path d="M214.971 87.5608H194.169V66.7585H214.971V87.5608ZM195.993 85.737H213.147V68.5823H195.993V85.737Z" fill="#111C3A"/>
<path d="M214.971 128.482H194.169V107.68H214.971V128.482ZM195.993 126.658H213.147V109.503H195.993V126.658Z" fill="#111C3A"/>
<path d="M214.971 169.41H194.169V148.607H214.971V169.41ZM195.993 167.586H213.147V150.431H195.993V167.586Z" fill="#111C3A"/>
<path d="M214.971 210.335H194.169V189.533H214.971V210.335ZM195.993 208.511H213.147V191.356H195.993V208.511Z" fill="#111C3A"/>
<path d="M228.993 11.5919H103.96C103.457 11.5919 103.048 11.1834 103.048 10.68C103.048 10.1767 103.457 9.76813 103.96 9.76813H228.993C229.496 9.76813 229.905 10.1767 229.905 10.68C229.905 11.1834 229.496 11.5919 228.993 11.5919Z" fill="#111C3A"/>
<path d="M21.5683 73.7179C21.3531 73.7179 21.1416 73.6413 20.9665 73.4918L13.9412 67.3164C13.5618 66.9845 13.5254 66.4081 13.8573 66.0288C14.1892 65.6494 14.7655 65.613 15.1448 65.9449L22.1701 72.1203C22.5495 72.4522 22.586 73.0285 22.2541 73.4079C22.0754 73.6122 21.8236 73.7179 21.5683 73.7179Z" fill="#111C3A"/>
<path d="M10.6036 78.6525C10.1257 78.6525 9.7245 78.2805 9.69532 77.799C9.66249 77.2956 10.0455 76.8616 10.5452 76.8287L19.8795 76.2269C20.3756 76.1904 20.8169 76.577 20.8497 77.0768C20.8825 77.5801 20.4995 78.0142 19.9998 78.047L10.6656 78.6489C10.6474 78.6489 10.6255 78.6489 10.6072 78.6489L10.6036 78.6525Z" fill="#111C3A"/>
<path d="M25.1793 71.2262C24.7014 71.2262 24.3002 70.8542 24.271 70.3727L23.6692 61.0348C23.6364 60.5315 24.0194 60.0974 24.5191 60.0646C25.0298 60.0318 25.4565 60.4148 25.4893 60.9145L26.0912 70.2523C26.124 70.7557 25.7411 71.1898 25.2413 71.2226C25.2231 71.2226 25.2012 71.2226 25.1829 71.2226L25.1793 71.2262Z" fill="#111C3A"/>
<path d="M29.8372 169.07C29.3338 169.07 28.9253 168.661 28.9253 168.158V166.757C28.9253 166.254 29.3338 165.845 29.8372 165.845C30.3406 165.845 30.7491 166.254 30.7491 166.757V168.158C30.7491 168.661 30.3406 169.07 29.8372 169.07Z" fill="#111C3A"/>
<path d="M35.068 171.24C34.8345 171.24 34.6011 171.149 34.4223 170.974C34.0685 170.617 34.0685 170.04 34.4223 169.683L37.997 166.119C38.3545 165.765 38.9308 165.765 39.2883 166.119C39.6421 166.477 39.6421 167.053 39.2883 167.41L35.7136 170.974C35.5349 171.153 35.3014 171.24 35.0716 171.24H35.068Z" fill="#111C3A"/>
<path d="M38.6208 176.493H38.6099L37.2092 176.478C36.7059 176.471 36.3009 176.059 36.3082 175.555C36.3155 175.052 36.7204 174.632 37.2311 174.654L38.6318 174.669C39.1351 174.676 39.54 175.088 39.5327 175.592C39.5254 176.091 39.1205 176.493 38.6208 176.493Z" fill="#111C3A"/>
<path d="M38.5879 185.286C38.3545 185.286 38.1175 185.195 37.9387 185.016L34.3859 181.431C34.0321 181.073 34.0357 180.497 34.3932 180.139C34.7507 179.786 35.327 179.789 35.6845 180.147L39.2372 183.732C39.591 184.09 39.5874 184.666 39.2299 185.024C39.0512 185.199 38.8214 185.286 38.5879 185.286Z" fill="#111C3A"/>
<path d="M29.7608 185.24C29.7608 185.24 29.7461 185.24 29.7388 185.24C29.2355 185.229 28.8379 184.81 28.8489 184.307L28.8817 182.906C28.8927 182.403 29.3231 182.001 29.8119 182.016C30.3152 182.027 30.7128 182.446 30.7019 182.95L30.669 184.35C30.6581 184.846 30.2532 185.24 29.7571 185.24H29.7608Z" fill="#111C3A"/>
<path d="M20.9774 185.179C20.7403 185.179 20.5068 185.088 20.3281 184.905C19.9743 184.548 19.9779 183.968 20.339 183.614L23.9355 180.072C24.2966 179.719 24.873 179.722 25.2268 180.083C25.5806 180.441 25.5769 181.021 25.2158 181.375L21.6193 184.916C21.4405 185.091 21.2107 185.179 20.9809 185.179H20.9774Z" fill="#111C3A"/>
<path d="M22.4508 176.387C22.4508 176.387 22.429 176.387 22.4181 176.387L21.0174 176.339C20.514 176.321 20.1201 175.902 20.1347 175.398C20.1529 174.906 20.5578 174.516 21.0466 174.516C21.0575 174.516 21.0684 174.516 21.0793 174.516L22.4801 174.563C22.9834 174.581 23.3773 175.001 23.3591 175.504C23.3409 175.997 22.936 176.387 22.4472 176.387H22.4508Z" fill="#111C3A"/>
<path d="M24.6724 171.178C24.4353 171.178 24.1982 171.087 24.0195 170.904L20.4886 167.297C20.1348 166.936 20.1421 166.359 20.5032 166.006C20.8644 165.655 21.4407 165.659 21.7945 166.02L25.3254 169.628C25.6792 169.989 25.6719 170.565 25.3108 170.919C25.132 171.094 24.9022 171.178 24.6724 171.178Z" fill="#111C3A"/>
<path d="M223.219 23.2894H67.8854C60.3604 23.2894 54.2581 29.3919 54.2581 36.9169V50.7376H236.846V36.9169C236.846 29.3919 230.744 23.2894 223.219 23.2894Z" fill="#244777"/>
<path d="M237.758 238.483H53.3462V40.0277C53.3462 30.2959 61.2651 22.377 70.9969 22.377H220.104C229.839 22.377 237.758 30.2959 237.758 40.0277V238.483ZM55.17 236.659H235.934V40.0277C235.934 31.299 228.832 24.2008 220.104 24.2008H70.9969C62.2682 24.2008 55.17 31.3026 55.17 40.0277V236.659Z" fill="#111C3A"/>
<path d="M177.379 67.9324H77.3145C76.8111 67.9324 76.4026 67.5239 76.4026 67.0205C76.4026 66.5172 76.8111 66.1086 77.3145 66.1086H177.379C177.882 66.1086 178.291 66.5172 178.291 67.0205C178.291 67.5239 177.882 67.9324 177.379 67.9324Z" fill="#111C3A"/>
<path d="M136.909 81.2105H77.3145C76.8111 81.2105 76.4026 80.802 76.4026 80.2986C76.4026 79.7953 76.8111 79.3867 77.3145 79.3867H136.909C137.412 79.3867 137.821 79.7953 137.821 80.2986C137.821 80.802 137.412 81.2105 136.909 81.2105Z" fill="#111C3A"/>
<path d="M177.379 109.512H77.3145C76.8111 109.512 76.4026 109.104 76.4026 108.6C76.4026 108.097 76.8111 107.688 77.3145 107.688H177.379C177.882 107.688 178.291 108.097 178.291 108.6C178.291 109.104 177.882 109.512 177.379 109.512Z" fill="#111C3A"/>
<path d="M136.909 122.788H77.3145C76.8111 122.788 76.4026 122.38 76.4026 121.876C76.4026 121.373 76.8111 120.964 77.3145 120.964H136.909C137.412 120.964 137.821 121.373 137.821 121.876C137.821 122.38 137.412 122.788 136.909 122.788Z" fill="#111C3A"/>
<path d="M177.379 151.692H77.3145C76.8111 151.692 76.4026 151.284 76.4026 150.78C76.4026 150.277 76.8111 149.868 77.3145 149.868H177.379C177.882 149.868 178.291 150.277 178.291 150.78C178.291 151.284 177.882 151.692 177.379 151.692Z" fill="#111C3A"/>
<path d="M136.909 164.97H77.3145C76.8111 164.97 76.4026 164.562 76.4026 164.058C76.4026 163.555 76.8111 163.146 77.3145 163.146H136.909C137.412 163.146 137.821 163.555 137.821 164.058C137.821 164.562 137.412 164.97 136.909 164.97Z" fill="#111C3A"/>
<path d="M177.379 192.663H77.3145C76.8111 192.663 76.4026 192.254 76.4026 191.751C76.4026 191.247 76.8111 190.839 77.3145 190.839H177.379C177.882 190.839 178.291 191.247 178.291 191.751C178.291 192.254 177.882 192.663 177.379 192.663Z" fill="#111C3A"/>
<path d="M136.909 205.939H77.3145C76.8111 205.939 76.4026 205.53 76.4026 205.027C76.4026 204.523 76.8111 204.115 77.3145 204.115H136.909C137.412 204.115 137.821 204.523 137.821 205.027C137.821 205.53 137.412 205.939 136.909 205.939Z" fill="#111C3A"/>
<path d="M73.6887 40.5651C75.6911 40.5651 77.3145 38.9418 77.3145 36.9394C77.3145 34.9369 75.6911 33.3137 73.6887 33.3137C71.6863 33.3137 70.063 34.9369 70.063 36.9394C70.063 38.9418 71.6863 40.5651 73.6887 40.5651Z" fill="white"/>
<path d="M84.9017 40.5651C86.9041 40.5651 88.5274 38.9418 88.5274 36.9394C88.5274 34.9369 86.9041 33.3137 84.9017 33.3137C82.8992 33.3137 81.2759 34.9369 81.2759 36.9394C81.2759 38.9418 82.8992 40.5651 84.9017 40.5651Z" fill="white"/>
<path d="M96.1106 40.5651C98.1131 40.5651 99.7363 38.9418 99.7363 36.9394C99.7363 34.9369 98.1131 33.3137 96.1106 33.3137C94.1082 33.3137 92.4849 34.9369 92.4849 36.9394C92.4849 38.9418 94.1082 40.5651 96.1106 40.5651Z" fill="white"/>
<path d="M326.938 146.878C334.365 125.091 322.284 100.593 321.591 90.0299C320.952 80.2798 318.191 67.1849 316.604 63.355C315.021 59.525 301.284 41.5678 291.381 44.4713C281.478 47.3748 291.119 55.8263 291.119 55.8263C309.871 69.1619 302.474 82.8988 302.474 82.8988C300.624 75.3702 293.624 69.2969 293.624 69.2969C282.401 62.2972 272.892 68.8993 272.892 68.8993C261.008 63.7489 256.386 72.3317 256.386 72.3317C249.653 72.0691 240.541 76.5556 235.391 85.1421C230.24 93.7249 240.541 95.7055 244.634 95.1766C248.726 94.6477 252.687 85.4047 260.216 87.254C267.745 89.1034 275.401 95.3079 278.702 103.099C282.003 110.89 280.814 132.415 274.212 132.813C267.61 133.21 236.974 110.497 236.974 110.497C236.974 110.497 225.221 107.724 226.41 116.836C227.599 125.948 238.163 127.006 240.804 133.608C243.444 140.21 253.216 156.584 266.687 158.433H277.648L279.497 237.006H342.882L326.934 146.881L326.938 146.878Z" fill="white"/>
<path d="M342.882 237.915C342.448 237.915 342.065 237.605 341.985 237.164L325.997 146.805L326.074 146.583C331.271 131.332 326.723 114.648 323.404 102.461C322.05 97.5044 320.883 93.2185 320.679 90.0852C320.033 80.2512 317.25 67.2986 315.762 63.6984C314.343 60.2697 300.88 42.6262 291.64 45.34C289.426 45.9893 288.164 46.9523 287.887 48.1997C287.351 50.6254 290.415 53.9739 291.688 55.1047C301.62 62.1847 304.268 69.4324 304.739 74.2692C305.257 79.5837 303.36 83.173 303.28 83.3225L302.156 85.4089L301.591 83.1073C299.917 76.2899 293.709 70.5851 293.081 70.0234C282.518 63.4832 273.508 69.5783 273.417 69.644L273.001 69.9322L272.534 69.7315C261.602 64.9933 257.368 72.4454 257.192 72.7627L256.923 73.2588L256.357 73.2405C250.16 72.9998 241.242 77.169 236.179 85.6059C234.76 87.9696 234.519 89.8991 235.464 91.3436C237.054 93.7729 241.829 94.6155 244.521 94.269C245.779 94.1085 247.253 92.7114 248.81 91.2305C251.692 88.4985 255.281 85.0989 260.435 86.3646C268.558 88.3598 276.24 94.9401 279.545 102.742C282.288 109.217 282.142 124.621 278.239 130.913C277.141 132.685 275.806 133.63 274.27 133.721C274.205 133.725 274.136 133.729 274.066 133.729C267.096 133.729 240.392 114.159 236.591 111.347C235.613 111.15 230.769 110.3 228.468 112.383C227.432 113.32 227.056 114.736 227.315 116.72C227.939 121.502 231.305 123.84 234.873 126.32C237.594 128.214 240.41 130.169 241.65 133.269C243.93 138.97 253.432 155.647 266.749 157.522H278.538L280.409 236.985C280.42 237.488 280.023 237.908 279.519 237.919C279.02 237.919 278.597 237.532 278.586 237.029L276.758 159.346L266.563 159.339C260.548 158.514 254.471 154.732 248.996 148.403C244.528 143.238 241.336 137.391 239.957 133.951C238.922 131.358 236.448 129.64 233.833 127.82C230.273 125.343 226.235 122.538 225.506 116.957C225.17 114.371 225.754 112.379 227.249 111.03C230.514 108.082 236.915 109.549 237.185 109.614L237.368 109.658L237.517 109.771C245.965 116.034 269.022 132.226 274.158 131.912C275.066 131.857 275.919 131.201 276.685 129.964C280.172 124.34 280.362 109.37 277.863 103.468C274.77 96.173 267.592 90.0158 259.997 88.1519C255.81 87.1233 252.757 90.0159 250.061 92.5692C248.201 94.331 246.596 95.8557 244.75 96.0928C241.635 96.494 236.044 95.5857 233.932 92.3576C232.998 90.9277 232.356 88.4364 234.606 84.6831C240.118 75.4948 249.332 71.4204 255.832 71.4204C255.854 71.4204 255.876 71.4204 255.894 71.4204C257.156 69.6002 262.317 63.5634 272.811 67.8859C274.876 66.6748 283.882 62.1591 294.106 68.5315L294.223 68.6154C294.482 68.8415 299.939 73.6308 302.514 80.0725C302.868 78.6536 303.149 76.6802 302.908 74.3531C302.251 67.988 297.991 61.8418 290.586 56.5783L290.513 56.5199C290.298 56.3303 285.217 51.8218 286.1 47.8204C286.53 45.8726 288.219 44.4537 291.122 43.6001C301.759 40.4814 315.817 59.0732 317.444 63.009C319.016 66.8062 321.828 79.7989 322.496 89.9721C322.689 92.923 323.834 97.125 325.158 101.987C328.525 114.342 333.132 131.237 327.872 146.951L343.776 236.846C343.863 237.342 343.531 237.817 343.035 237.904C342.98 237.915 342.929 237.919 342.875 237.919L342.882 237.915Z" fill="#111C3A"/>
<path d="M285.706 91.3375C285.323 91.3375 284.965 91.0968 284.841 90.7138C282.047 82.2769 276.459 76.769 268.23 74.3506C262.029 72.5268 256.569 73.2308 256.514 73.2381C256.011 73.3038 255.555 72.9536 255.489 72.4575C255.423 71.9578 255.77 71.4982 256.27 71.4325C256.507 71.3997 262.117 70.6702 268.682 72.5815C274.781 74.3579 282.835 78.8481 286.574 90.1374C286.731 90.6153 286.472 91.1332 285.994 91.2901C285.899 91.3229 285.8 91.3375 285.706 91.3375Z" fill="#111C3A"/>
<path d="M296.532 90.1474C296.116 90.1474 295.74 89.8629 295.645 89.4398C293.8 81.477 289.426 75.7576 282.649 72.4419C277.553 69.947 272.924 69.812 272.877 69.812C272.374 69.8011 271.976 69.3852 271.987 68.8819C271.998 68.3785 272.41 67.9736 272.917 67.9919C273.118 67.9955 277.933 68.1268 283.382 70.775C288.427 73.2262 294.956 78.3839 297.425 89.0349C297.538 89.5273 297.232 90.0161 296.743 90.1292C296.674 90.1437 296.605 90.151 296.535 90.151L296.532 90.1474Z" fill="#111C3A"/>
<path d="M220.286 77.1591L327.015 144.512L315.678 161.007L208.949 93.6536L196.577 75.7621C195.723 74.5292 196.788 72.8842 198.262 73.1504L220.282 77.1591H220.286Z" fill="#244777"/>
<path d="M209.124 93.7692L220.268 77.1543L198.393 73.1712C196.876 72.8939 195.778 74.5937 196.657 75.8631L208.956 93.6524L209.128 93.7692H209.124Z" fill="white"/>
<path d="M199.134 79.9661L203.245 73.8345L198.452 72.9627C196.682 72.6418 195.406 74.6188 196.427 76.0997L199.072 79.9224L199.134 79.9661Z" fill="#10002B"/>
<path d="M315.937 162.246L208.311 94.3238L208.205 94.1706L195.836 76.2828C195.227 75.4037 195.209 74.2985 195.789 73.3975C196.369 72.4966 197.383 72.0589 198.437 72.2522L220.625 76.2901L220.775 76.3849L328.306 144.245L315.937 162.242V162.246ZM209.595 92.9815L315.423 159.769L325.724 144.777L219.947 78.0227L198.105 74.0468C197.627 73.9593 197.383 74.2876 197.317 74.3897C197.251 74.4918 197.058 74.8529 197.332 75.2469L209.595 92.9815Z" fill="#111C3A"/>
<path d="M208.953 94.5646C208.774 94.5646 208.596 94.5135 208.439 94.4041C208.023 94.1196 207.917 93.5506 208.205 93.1347L219.542 76.6403C219.826 76.2245 220.395 76.1187 220.811 76.4068C221.227 76.6914 221.333 77.2604 221.045 77.6762L209.708 94.1707C209.533 94.426 209.245 94.5646 208.957 94.5646H208.953Z" fill="#111C3A"/>
<path d="M316.2 154.306C316.032 154.306 315.864 154.262 315.714 154.164L215.489 90.9143C215.062 90.6444 214.935 90.0826 215.205 89.6559C215.475 89.2291 216.036 89.1014 216.463 89.3714L316.688 152.621C317.115 152.891 317.243 153.452 316.973 153.879C316.798 154.153 316.502 154.306 316.2 154.306Z" fill="#111C3A"/>
<path d="M320.489 148.519C320.321 148.519 320.154 148.475 320.004 148.377L219.779 85.1275C219.352 84.8576 219.224 84.2958 219.494 83.8691C219.764 83.4423 220.326 83.3146 220.753 83.5845L320.978 146.834C321.405 147.104 321.532 147.666 321.262 148.092C321.087 148.366 320.792 148.519 320.489 148.519Z" fill="#111C3A"/>
<path d="M272.472 18.1903L266.906 12.6241C266.548 12.2666 266.548 11.6903 266.906 11.3328C267.263 10.9754 267.84 10.9754 268.197 11.3328L272.472 15.6078L281.453 6.62741C281.81 6.26995 282.386 6.26995 282.744 6.62741C283.101 6.98488 283.101 7.5612 282.744 7.91867L272.472 18.1903Z" fill="white"/>
<path d="M359.088 238.516H0.9119C0.408531 238.516 0 238.108 0 237.604C0 237.101 0.408531 236.693 0.9119 236.693H359.088C359.591 236.693 360 237.101 360 237.604C360 238.108 359.591 238.516 359.088 238.516Z" fill="#111C3A"/>
<path d="M236.846 51.6501H54.2581C53.7547 51.6501 53.3462 51.2416 53.3462 50.7382C53.3462 50.2348 53.7547 49.8263 54.2581 49.8263H236.846C237.349 49.8263 237.758 50.2348 237.758 50.7382C237.758 51.2416 237.349 51.6501 236.846 51.6501Z" fill="#111C3A"/>
<path d="M116.041 131.3H30.1803C25.6791 131.3 22.0315 127.653 22.0315 123.152V83.8779C22.0315 79.3767 25.6791 75.7291 30.1803 75.7291H116.041C120.542 75.7291 124.19 79.3767 124.19 83.8779V102.061L137.912 121.193C138.499 122.01 137.912 123.152 136.909 123.152H124.19C124.19 127.653 120.542 131.3 116.041 131.3Z" fill="white"/>
<path d="M116.041 132.212H30.1803C25.1831 132.212 21.1196 128.148 21.1196 123.151V83.8773C21.1196 78.8801 25.1831 74.8167 30.1803 74.8167H116.041C121.038 74.8167 125.102 78.8801 125.102 83.8773V101.769L138.656 120.663C139.127 121.32 139.192 122.177 138.82 122.896C138.452 123.614 137.719 124.063 136.909 124.063H125.058C124.598 128.633 120.732 132.212 116.041 132.212ZM30.1803 76.6405C26.1898 76.6405 22.9434 79.8868 22.9434 83.8773V123.151C22.9434 127.141 26.1898 130.388 30.1803 130.388H116.041C120.032 130.388 123.278 127.141 123.278 123.151V122.239H136.909C137.08 122.239 137.164 122.13 137.197 122.064C137.23 121.998 137.274 121.867 137.172 121.725L123.278 102.356V83.8773C123.278 79.8868 120.032 76.6405 116.041 76.6405H30.1803Z" fill="#111C3A"/>
<path d="M71.0407 99.8835L72.3064 83.8997L56.4721 83.006L51.1685 96.9654C50.5302 98.6433 50.9387 100.536 52.2081 101.802C55.3341 104.917 61.8268 109.371 69.4029 103.031C70.3476 102.24 70.9422 101.109 71.0407 99.8799V99.8835Z" fill="white"/>
<path d="M61.5787 107.146C56.9645 107.146 53.3242 104.206 51.5624 102.451C50.0414 100.934 49.549 98.6542 50.315 96.6444L55.8556 82.0613L73.2875 83.0461L71.9489 99.9601C71.8322 101.415 71.1172 102.791 69.9865 103.739C66.9881 106.245 64.132 107.149 61.5751 107.149L61.5787 107.146ZM57.0849 83.9544L52.0184 97.29C51.5077 98.6287 51.836 100.15 52.85 101.156C56.4684 104.76 62.1733 107.89 68.8192 102.335C69.5779 101.7 70.0557 100.781 70.1323 99.8105L71.3251 84.7569L57.0886 83.9544H57.0849Z" fill="#111C3A"/>
<path d="M97.0516 111.694C93.8745 107.467 89.5704 104.224 84.6279 102.342C81.812 101.269 78.6567 100.368 74.9945 99.5003C73.2948 99.0954 71.4819 98.7015 69.545 98.2966C63.1727 96.9689 55.4762 95.6266 48.4582 97.1039C42.7279 98.3112 37.0194 101.758 31.807 105.843C27.8676 108.929 24.8911 112.861 22.9177 116.958L22.9579 121.649C22.6551 126.967 25.3871 130.425 31.2014 130.355H93.9074C99.7399 130.509 112.492 130.392 112.492 130.392C110.606 127.627 99.0578 114.364 97.0516 111.694Z" fill="#EDAE00"/>
<path d="M74.1522 100.376L72.9923 95.1311L68.5276 98.1476L52.0295 90.5059L48.4548 97.1008L68.637 105.789L74.1522 100.376Z" fill="#10002B"/>
<path d="M86.6852 83.1795C86.0907 85.9042 85.1642 88.5925 83.6249 90.9197C82.0856 93.2468 79.8934 95.202 77.2634 96.1321C74.2359 97.2045 70.8108 96.8434 67.8855 95.5266C64.9601 94.2098 62.4943 92.003 60.5137 89.4752C51.9528 78.5616 51.5479 53.1816 70.1105 52.5469C70.271 52.5433 70.4278 52.5396 70.5883 52.5396C85.8718 52.4995 89.2239 71.5692 86.6889 83.1795H86.6852Z" fill="white"/>
<path d="M73.4845 97.6671C71.5002 97.6671 69.4429 97.2257 67.5097 96.3576C64.6828 95.0883 62.0857 92.9617 59.795 90.04C59.485 89.6424 59.5543 89.0697 59.9482 88.7597C60.3458 88.4496 60.9185 88.5189 61.2285 88.9129C63.3368 91.6011 65.7005 93.5453 68.2575 94.6943C71.15 95.9929 74.3235 96.2044 76.957 95.2706C79.2258 94.4682 81.3232 92.7428 82.8625 90.4157C84.1756 88.4314 85.1349 85.9984 85.7952 82.9855C87.3746 75.7487 86.6997 65.0174 81.491 58.5648C78.7516 55.1725 75.0967 53.4509 70.6321 53.4509C70.4716 53.4509 70.3037 53.4509 70.1396 53.4582C69.6435 53.4728 69.2168 53.0788 69.1986 52.5755C69.184 52.0721 69.5779 51.6526 70.0813 51.6344C70.2636 51.6271 70.4497 51.6271 70.6321 51.6271C75.6767 51.6271 79.8094 53.5749 82.9099 57.4195C88.498 64.339 89.2458 75.7231 87.5751 83.3722C86.8675 86.6112 85.8243 89.2411 84.3835 91.4188C82.6254 94.0742 80.2034 96.0549 77.5662 96.9887C76.2858 97.441 74.9034 97.6671 73.4845 97.6671Z" fill="#111C3A"/>
<path d="M56.7131 79.5774C56.5343 78.0381 56.2571 76.4587 56.6182 74.9523C56.9793 73.4422 58.1976 72.0014 59.7478 71.9722C60.7619 71.9503 61.754 72.523 62.7461 72.3151C63.6325 72.129 64.2818 71.3557 64.683 70.5423C65.7591 68.3611 65.5694 65.6254 67.0357 63.6812C68.0169 62.3826 69.5927 61.6641 71.1721 61.2592C75.6331 60.1102 79.3866 61.4963 83.6907 62.5504C85.551 63.0064 87.5134 63.3128 89.3773 62.8678C91.2412 62.4228 92.9957 61.0804 93.4371 59.2129C93.8019 57.6736 93.1672 55.9483 91.8905 55.0108C90.6175 54.077 88.7755 53.9859 87.4186 54.7956C87.6082 52.0599 86.0105 49.2805 83.5484 48.0694C81.0863 46.8548 77.9129 47.2816 75.8557 49.0981C73.9699 46.6578 70.9606 45.1222 67.8747 45.0237C63.4246 44.8851 59.8974 47.3399 58.5696 51.5164C57.1909 50.6082 55.2358 50.6921 53.9409 51.7134C52.646 52.7347 52.1098 54.6169 52.6715 56.1671C53.0363 57.1775 53.8205 58.2207 53.3901 59.2056C53.0691 59.9387 52.2156 60.2415 51.5006 60.6026C48.6117 62.0653 47.1564 65.5633 47.4044 68.7915C47.6524 72.0196 49.3303 74.9778 51.3802 77.4874C53.1056 79.5993 54.4005 82.1563 56.4505 83.9837C57.2128 82.9697 56.8407 80.7447 56.7058 79.5738L56.7131 79.5774Z" fill="#10002B"/>
<path d="M56.5889 85.3298L55.8484 84.6696C54.4732 83.444 53.4337 81.9339 52.4306 80.4748C51.847 79.625 51.2926 78.8225 50.6798 78.0711C48.1374 74.9597 46.7294 71.8665 46.4996 68.8682C46.2005 64.9835 48.0462 61.3395 51.0919 59.7929C51.2086 59.7346 51.329 59.6762 51.453 59.6179C51.9527 59.3808 52.4233 59.1546 52.5582 58.8446C52.7041 58.509 52.5035 58.0275 52.1789 57.3272C52.0549 57.0572 51.9236 56.7764 51.8178 56.4846C51.1247 54.5696 51.7813 52.2643 53.379 51.0022C54.6811 49.9736 56.5123 49.7183 58.0662 50.2618C59.7368 46.3078 63.4354 43.9806 67.9037 44.1156C70.9677 44.2104 73.9295 45.5892 75.9904 47.8434C78.2957 46.2786 81.44 46.0159 83.9532 47.2525C86.3278 48.4234 87.9837 50.8636 88.2938 53.4753C89.7018 53.1434 91.2593 53.4169 92.4302 54.2778C93.9914 55.4231 94.7719 57.5387 94.3233 59.4245C93.8345 61.4854 91.9779 63.1852 89.5887 63.7542C87.4257 64.2722 85.186 63.8564 83.4753 63.4369C82.8297 63.2801 82.1987 63.1123 81.5713 62.9518C78.0258 62.0253 74.9655 61.2264 71.3982 62.1456C69.702 62.5834 68.48 63.2837 67.7614 64.2357C67.0465 65.1805 66.7766 66.4133 66.4921 67.7192C66.255 68.7952 66.0106 69.9114 65.4999 70.9509C64.8871 72.1911 63.9752 72.9936 62.932 73.2125C62.1733 73.373 61.4693 73.2052 60.8456 73.0593C60.4553 72.9681 60.0905 72.8878 59.7659 72.8878C58.6461 72.9097 57.767 74.0806 57.5044 75.1676C57.2308 76.3129 57.3841 77.5458 57.5446 78.8517C57.5701 79.0596 57.5956 79.2675 57.6212 79.4754L57.6649 79.8365C57.8363 81.2262 58.0953 83.3273 57.187 84.5383L56.5925 85.3298H56.5889ZM56.4101 51.8047C55.7244 51.8047 55.0387 52.0163 54.5097 52.4321C53.5249 53.209 53.1054 54.6826 53.5322 55.8608C53.6125 56.0797 53.7182 56.3131 53.8349 56.5612C54.2288 57.4111 54.7177 58.4652 54.2325 59.5777C53.8276 60.5079 52.9486 60.9273 52.2446 61.2629C52.1352 61.314 52.0257 61.3687 51.9199 61.4198C49.5599 62.6162 48.0827 65.6182 48.3198 68.7259C48.5204 71.3412 49.7897 74.0988 52.0913 76.9148C52.7552 77.7245 53.3534 78.5963 53.9334 79.4426C54.6119 80.4311 55.2684 81.3794 56.0052 82.2293C56.0271 81.4743 55.9177 80.5952 55.852 80.0627L55.8083 79.6833C55.7864 79.479 55.7608 79.2784 55.7353 79.0742C55.5602 77.6662 55.3815 76.2108 55.7316 74.7408C56.1621 72.9425 57.6722 71.1005 59.7295 71.0604C60.2803 71.0494 60.8055 71.1698 61.2651 71.2792C61.7648 71.396 62.1953 71.4981 62.56 71.4215C63.2385 71.2792 63.7017 70.4768 63.8658 70.1375C64.2816 69.2949 64.4896 68.3393 64.7121 67.3216C65.0258 65.8808 65.354 64.3926 66.3097 63.1305C67.2799 61.8429 68.8412 60.9164 70.9459 60.3766C74.9728 59.3406 78.4015 60.2343 82.0345 61.1863C82.651 61.3468 83.2747 61.511 83.9094 61.6642C85.5143 62.0581 87.3965 62.401 89.1656 61.9779C90.5809 61.6386 92.1749 60.5881 92.5506 59.0014C92.8278 57.8269 92.3244 56.459 91.3505 55.7441C90.3766 55.0292 88.9212 54.9599 87.8853 55.5763L86.3897 56.4663L86.5101 54.7301C86.6743 52.3445 85.2919 49.9408 83.1471 48.883C81.0023 47.8252 78.2556 48.1936 76.461 49.7766L75.7315 50.4222L75.137 49.6526C73.4043 47.413 70.6832 46.0196 67.8526 45.932C63.7928 45.8007 60.6523 47.9966 59.445 51.7901L59.0802 52.9391L58.0735 52.2752C57.5883 51.9542 57.001 51.7974 56.4101 51.7974V51.8047Z" fill="#111C3A"/>
<path d="M79.868 84.9027C79.4886 84.9027 79.1311 84.662 79.0034 84.2826C78.8429 83.8048 79.0983 83.2868 79.5761 83.1263C80.1415 82.9366 80.5281 82.2327 80.3895 81.6527C80.2509 81.0727 79.5907 80.6204 78.9998 80.7043C78.5001 80.7773 78.0405 80.4271 77.9676 79.931C77.8983 79.4313 78.2447 78.9717 78.7408 78.8987C80.2692 78.6799 81.8048 79.7268 82.1623 81.2296C82.5198 82.7324 81.6188 84.3556 80.1561 84.8516C80.0576 84.8845 79.9591 84.899 79.8643 84.899L79.868 84.9027Z" fill="#111C3A"/>
<path d="M78.376 73.7933C78.0732 73.7933 77.7742 73.6401 77.6027 73.3629C77.2708 72.8267 76.7309 72.4255 76.1181 72.265C75.509 72.1008 74.8415 72.1774 74.2834 72.4765C73.8384 72.7136 73.2875 72.5458 73.0504 72.1008C72.8134 71.6558 72.9812 71.105 73.4262 70.8679C74.3855 70.3536 75.5418 70.2223 76.5923 70.5032C77.6429 70.784 78.5766 71.4771 79.153 72.3999C79.4192 72.8267 79.2879 73.3884 78.8611 73.6547C78.7116 73.7495 78.5438 73.7933 78.3796 73.7933H78.376Z" fill="#111C3A"/>
<path d="M85.507 77.7167C85.4377 78.5337 84.9088 79.121 84.3251 79.0261C83.7415 78.9313 83.3257 78.1872 83.3913 77.3701C83.4606 76.5531 83.9895 75.9658 84.5732 76.0606C85.1568 76.1555 85.5726 76.8996 85.507 77.7167Z" fill="#10002B"/>
<path d="M77.3729 76.2232C77.3036 77.0403 76.7747 77.6275 76.1911 77.5327C75.6075 77.4378 75.1916 76.6937 75.2573 75.8767C75.3266 75.0596 75.8555 74.4723 76.4391 74.5672C77.0227 74.662 77.4386 75.4061 77.3729 76.2232Z" fill="#10002B"/>
<path d="M86.3424 74.6383C86.0433 74.6383 85.7478 74.4887 85.5727 74.2188C85.2335 73.6862 84.6864 73.2959 84.0736 73.1391C83.4608 72.9859 82.7933 73.0698 82.2425 73.3762C81.8011 73.6206 81.2466 73.4601 81.0022 73.0187C80.7579 72.5774 80.9183 72.0229 81.3597 71.7785C82.3117 71.2533 83.4644 71.1037 84.5186 71.37C85.5727 71.6363 86.5174 72.3184 87.1047 73.2339C87.3782 73.6571 87.2542 74.2224 86.8275 74.4924C86.6743 74.5908 86.5065 74.6383 86.3351 74.6383H86.3424Z" fill="#111C3A"/>
<path d="M75.0713 55.9013C74.6883 55.9013 74.3309 55.6569 74.2068 55.2739C73.8859 54.3073 73.5247 53.2094 73.5174 52.0458C73.5101 50.6269 74.0829 49.3502 75.0531 48.6316C75.458 48.3325 76.0307 48.4164 76.3298 48.825C76.6289 49.2299 76.545 49.8025 76.1364 50.1016C75.6404 50.4664 75.3339 51.2105 75.3412 52.0385C75.3449 52.9139 75.6476 53.8258 75.9358 54.7049C76.0927 55.1827 75.8336 55.7007 75.3558 55.8575C75.261 55.8904 75.1661 55.905 75.0713 55.905V55.9013Z" fill="#111C3A"/>
<path d="M59.6673 60.6391C59.3864 60.6391 59.1129 60.5115 58.9341 60.2671C56.9608 57.5898 56.534 53.8874 57.8435 50.8308C58.0405 50.3675 58.5803 50.1523 59.0399 50.3529C59.5032 50.5499 59.7184 51.0861 59.5178 51.5493C58.4563 54.0224 58.8065 57.0171 60.4005 59.1838C60.6996 59.5886 60.612 60.1613 60.2071 60.4604C60.043 60.5808 59.8533 60.6391 59.6673 60.6391Z" fill="#111C3A"/>
<path d="M48.6223 64.3263C48.4801 64.3263 48.3342 64.2934 48.1956 64.2205C47.7506 63.9834 47.5791 63.4326 47.8162 62.9876C48.6515 61.4082 50.1142 60.2154 51.8286 59.7157C53.543 59.216 55.4179 59.4385 56.9717 60.3285C57.4095 60.5802 57.5626 61.1346 57.3109 61.5723C57.0593 62.01 56.5012 62.1596 56.0671 61.9115C54.9583 61.2768 53.5649 61.1127 52.3393 61.4702C51.1137 61.8276 50.0267 62.714 49.4285 63.8411C49.2644 64.1512 48.947 64.3263 48.6223 64.3263Z" fill="#111C3A"/>
<path d="M78.3503 89.6531C76.8913 89.6531 75.4323 89.1716 74.2687 88.2962C72.941 87.3004 72.0035 85.7903 71.6935 84.1598C71.5986 83.6637 71.9233 83.1859 72.4193 83.0947C72.9118 83.0035 73.3933 83.3245 73.4845 83.8206C73.7106 85.0097 74.3964 86.1113 75.363 86.8371C76.3296 87.563 77.5771 87.9205 78.7845 87.8074C79.2915 87.76 79.7292 88.1284 79.7766 88.6317C79.824 89.1315 79.4556 89.5765 78.9522 89.6239C78.7516 89.6421 78.5473 89.6531 78.3467 89.6531H78.3503Z" fill="#111C3A"/>
<path d="M62.925 84.666C62.925 84.666 54.24 84.0021 53.1859 81.5765C51.9019 78.611 53.9263 74.066 57.8365 72.1182C61.6264 70.2324 65.0917 76.054 65.0917 76.054L62.925 84.6696V84.666Z" fill="white"/>
<path d="M62.9248 85.5785C62.9029 85.5785 62.8773 85.5785 62.8554 85.5785C60.6887 85.4143 53.5285 84.6629 52.3503 81.9418C50.811 78.3891 53.1857 73.4174 57.4315 71.3054C61.9253 69.0694 65.7188 75.3214 65.8756 75.5914C66.1346 76.0254 65.9924 76.5835 65.5583 76.8425C65.1243 77.1015 64.5661 76.9592 64.3071 76.5251C64.278 76.4741 61.2286 71.455 58.2412 72.9395C54.6228 74.7415 53.0032 78.8706 54.0209 81.2196C54.5352 82.4051 59.0802 83.4629 62.9941 83.7656C63.4974 83.8058 63.8731 84.2435 63.833 84.7432C63.7965 85.221 63.3953 85.5858 62.9248 85.5858V85.5785Z" fill="#111C3A"/>
<path d="M62.5928 78.3261C61.9399 77.706 61.2724 77.0859 60.5101 76.5972C59.7149 76.0865 58.8213 75.7619 57.8765 75.6889C57.3987 75.6524 56.9427 76.1339 56.9646 76.6008C56.9865 77.1261 57.3659 77.4726 57.8765 77.5127C57.9239 77.5127 57.9713 77.52 58.0187 77.5236C57.8947 77.5054 57.8838 77.5018 57.986 77.52C58.0772 77.5382 58.172 77.5528 58.2632 77.5747C58.4456 77.6185 58.6243 77.6805 58.803 77.7425C58.8979 77.779 58.8906 77.7753 58.7811 77.7316C58.8249 77.7498 58.8687 77.7717 58.9088 77.7899C58.9964 77.83 59.0802 77.8738 59.1641 77.9176C59.3319 78.0051 59.4924 78.1036 59.6529 78.2094C59.7331 78.2641 59.8134 78.3188 59.8937 78.3735C59.9265 78.3954 60.1855 78.5815 59.9995 78.4501C60.1563 78.5632 60.3022 78.6945 60.4481 78.8222C60.7436 79.0775 61.0244 79.3438 61.3052 79.6137C61.6518 79.942 62.2573 79.9821 62.5965 79.6137C62.9248 79.2562 62.9649 78.6763 62.5965 78.3225L62.5928 78.3261Z" fill="#111C3A"/>
</svg>
