<svg width="143" height="101" viewBox="0 0 143 101" fill="none" xmlns="http://www.w3.org/2000/svg">
<path d="M119.094 81.2073C132.05 81.2073 142.553 70.7044 142.553 57.7485C142.553 44.7925 132.05 34.2897 119.094 34.2897C106.138 34.2897 95.6353 44.7925 95.6353 57.7485C95.6353 70.7044 106.138 81.2073 119.094 81.2073Z" fill="#244777"/>
<path d="M122.28 71.5276L116.862 71.5683C116.761 70.7293 116.91 70.0744 116.699 69.2379C114.503 68.8029 112.371 68.5567 110.239 67.7967C110.107 66.1523 110.126 64.6872 110.222 62.8587C113.277 63.755 118.681 65.2441 121.697 63.896C122.22 63.6618 122.524 63.3296 122.565 62.8994C122.88 59.6369 110.086 60.2559 109.876 52.9279C109.763 49.0105 112.882 46.857 116.683 46.1926C116.912 45.4493 116.735 44.7753 116.878 43.9531L122.11 43.9053C122.44 44.5434 122.168 45.2318 122.404 45.999C124.25 46.3264 126.006 46.4029 127.806 47.0722C127.937 48.7572 127.918 50.4159 127.806 52.1224C125.643 51.3002 116.441 50.1841 115.865 52.3877C115.346 54.3787 121.028 54.5532 125.261 57.4523C128.377 59.5867 129.374 63.8387 127.075 66.898C125.978 68.356 124.142 68.6667 122.545 69.2379C122.058 69.6251 122.39 70.6313 122.278 71.5324L122.28 71.5276Z" fill="white"/>
<path d="M61.1508 82.0353L39.2718 77.3913L56.7697 92.5039C59.0714 94.4901 62.4127 93.938 65.3024 93.601L113.47 82.9913C118.147 83.976 122.476 83.7275 127.163 82.3795C126.398 84.0238 125.129 84.9847 124.013 86.1917C122.139 87.1716 120.265 87.7906 118.162 88.2949L90.0136 95.0494L65.3239 100.31C63.4979 100.7 61.5571 100.406 59.7693 100.293C56.404 100.081 53.6268 98.7468 51.1291 96.6077L30.2755 78.7417C28.2081 76.9707 26.2267 74.5806 23.7721 73.5313C19.0875 72.5322 14.4435 72.3793 9.97402 70.5341C7.56002 69.5375 4.87116 68.5432 3.18136 66.4925C-1.86891 60.3643 -0.690598 51.7097 5.18904 46.7407L15.5788 37.9571L53.579 4.60809C56.9131 1.68022 60.5509 -0.776799 65.441 0.229432L101.386 7.62439C106.104 8.59477 110.454 9.65837 115.021 11.0972C116.857 11.6756 118.104 13.8625 118.657 15.5237C119.19 17.1226 118.618 18.5854 117.949 19.8975C116.885 21.9841 115.107 22.976 113.386 24.4746L80.3146 53.2824L74.1792 59.0402C71.3159 61.7266 66.5524 62.7831 62.5466 61.9417L13.3393 51.6165C11.3842 51.2054 9.37649 52.7638 8.49216 53.9803C5.00262 58.7868 9.53424 63.2897 11.0543 63.6196L63.8062 75.0849C66.9922 75.778 69.9631 75.1231 72.6973 73.6962L93.1088 55.7251C92.6068 62.0302 94.4544 68.0986 98.2116 73.2182L79.3299 77.3555C76.9756 79.3416 74.6548 81.1223 71.6887 81.9899C68.2279 82.9101 64.7957 82.8097 61.1484 82.0353H61.1508Z" fill="#244777"/>
<path d="M78.1705 27.1921C79.5926 27.7132 80.7805 26.8145 82.2743 26.7954C80.6323 28.3418 78.5314 28.3298 76.4831 28.3609C67.6182 28.4971 59.6329 26.6854 50.6461 27.1921C51.5615 26.15 53.0004 26.5803 54.1763 26.0329L69.1502 19.0491C70.7205 19.3598 72.1642 19.5462 73.7631 20.17L62.9479 26.5492L71.2344 27.2065L75.3932 20.4449L80.1041 21.4535L78.1705 27.1945V27.1921Z" fill="white"/>
<path d="M72.4391 42.7988L63.806 39.9546C64.7501 37.6959 66.1794 35.8364 67.4151 33.6638L75.5988 33.9339L72.4414 42.7988H72.4391Z" fill="white"/>
<path d="M81.8274 30.5493C80.1496 33.7926 70.0801 32.8772 66.7316 32.6717L50.0487 31.6368C46.8388 31.4384 43.9324 31.7658 40.615 32.1769C43.7149 29.1367 53.6243 30.2218 57.7161 30.4728L74.4253 31.4957C77.0114 31.6535 79.3561 31.1444 81.8274 30.5469V30.5493Z" fill="white"/>
<path d="M82.229 28.4987C80.7232 30.2172 78.4072 30.4968 76.1749 30.547C65.6058 30.786 56.0957 28.5131 45.6533 29.5121C46.693 27.416 53.4881 27.8223 55.6296 27.9777L73.2422 29.2683C76.3159 29.493 79.1242 29.2731 82.229 28.5011V28.4987Z" fill="white"/>
<path d="M46.5853 36.1071L36.186 34.7949C40.015 32.0033 47.582 32.1419 52.1519 32.6606L46.5853 36.1071Z" fill="white"/>
</svg>
