<svg width="142" height="100" viewBox="0 0 142 100" fill="none" xmlns="http://www.w3.org/2000/svg">
<path d="M118.495 80.7995C131.386 80.7995 141.836 70.3494 141.836 57.4587C141.836 44.5679 131.386 34.1179 118.495 34.1179C105.604 34.1179 95.1541 44.5679 95.1541 57.4587C95.1541 70.3494 105.604 80.7995 118.495 80.7995Z" fill="white"/>
<path d="M121.665 71.1681L116.274 71.2085C116.174 70.3738 116.321 69.7222 116.112 68.8899C113.926 68.4571 111.805 68.2122 109.684 67.4559C109.553 65.8198 109.572 64.3621 109.667 62.5428C112.707 63.4346 118.083 64.9161 121.084 63.5749C121.605 63.3419 121.907 63.0113 121.948 62.5833C122.262 59.3372 109.532 59.9531 109.323 52.6619C109.211 48.7643 112.314 46.6216 116.095 45.9605C116.324 45.2209 116.148 44.5503 116.29 43.7322L121.496 43.6847C121.824 44.3196 121.553 45.0045 121.788 45.7679C123.624 46.0937 125.372 46.1698 127.163 46.8356C127.294 48.5122 127.275 50.1626 127.163 51.8605C125.011 51.0425 115.855 49.9319 115.282 52.1245C114.766 54.1054 120.419 54.279 124.63 57.1636C127.731 59.2872 128.723 63.5178 126.435 66.5618C125.344 68.0124 123.517 68.3216 121.929 68.8899C121.444 69.2752 121.774 70.2763 121.662 71.1729L121.665 71.1681Z" fill="#244777"/>
<path d="M60.8432 81.6227L39.0743 77.0021L56.4842 92.0386C58.7742 94.0148 62.0988 93.4655 64.9739 93.1302L112.899 82.5739C117.553 83.5537 121.86 83.3063 126.523 81.9651C125.762 83.6012 124.499 84.5572 123.389 85.7581C121.524 86.7331 119.66 87.3491 117.567 87.8508L89.5608 94.5713L64.9953 99.8054C63.1784 100.193 61.2474 99.9006 59.4686 99.7888C56.1203 99.5771 53.357 98.2502 50.8719 96.1218L30.1232 78.3457C28.0662 76.5835 26.0948 74.2054 23.6525 73.1615C18.9914 72.1674 14.3708 72.0152 9.92384 70.1794C7.52199 69.1877 4.84666 68.1984 3.16536 66.158C-1.85951 60.0607 -0.687124 51.4496 5.16294 46.5056L15.5004 37.7662L53.3094 4.58491C56.6268 1.67177 60.2463 -0.772892 65.1118 0.228278L100.876 7.58604C105.57 8.55154 109.898 9.60979 114.443 11.0414C116.269 11.6169 117.51 13.7928 118.06 15.4456C118.59 17.0365 118.022 18.4919 117.356 19.7975C116.297 21.8735 114.528 22.8604 112.816 24.3515L79.9106 53.0144L73.8061 58.7432C70.9571 61.4162 66.2176 62.4673 62.232 61.6302L13.2722 51.3569C11.3269 50.9479 9.32933 52.4984 8.44944 53.7088C4.97745 58.4911 9.48628 62.9714 10.9987 63.2996L63.4852 74.7072C66.6552 75.3969 69.6111 74.7453 72.3316 73.3256L92.6404 55.4448C92.141 61.7182 93.9793 67.7561 97.7176 72.8499L78.9308 76.9664C76.5884 78.9426 74.2793 80.7142 71.3281 81.5775C67.8847 82.493 64.4697 82.3932 60.8408 81.6227H60.8432Z" fill="white"/>
<path d="M77.7778 27.0553C79.1927 27.5738 80.3746 26.6796 81.8609 26.6606C80.2272 28.1992 78.1368 28.1873 76.0988 28.2182C67.2786 28.3538 59.3334 26.5512 50.3918 27.0553C51.3026 26.0185 52.7342 26.4466 53.9043 25.902L68.8029 18.9532C70.3653 19.2624 71.8016 19.4479 73.3926 20.0686L62.6318 26.4156L70.8766 27.0696L75.0144 20.342L79.7016 21.3456L77.7778 27.0577V27.0553Z" fill="#244777"/>
<path d="M72.0749 42.5824L63.4854 39.7525C64.4247 37.5052 65.8468 35.6551 67.0762 33.4934L75.2188 33.7621L72.0773 42.5824H72.0749Z" fill="#244777"/>
<path d="M81.4163 30.3958C79.7469 33.6228 69.728 32.712 66.3963 32.5075L49.7974 31.4778C46.6036 31.2804 43.7119 31.6062 40.4111 32.0152C43.4955 28.9903 53.355 30.07 57.4263 30.3197L74.0514 31.3375C76.6244 31.4944 78.9573 30.9879 81.4163 30.3934V30.3958Z" fill="#244777"/>
<path d="M81.8157 28.3548C80.3176 30.0646 78.0132 30.3428 75.7921 30.3928C65.2762 30.6306 55.8139 28.369 45.4241 29.3631C46.4585 27.2775 53.2194 27.6818 55.3502 27.8364L72.8742 29.1205C75.9324 29.3441 78.7266 29.1253 81.8157 28.3572V28.3548Z" fill="#244777"/>
<path d="M46.3514 35.9244L36.0044 34.6189C39.8141 31.8413 47.343 31.9792 51.8899 32.4953L46.3514 35.9244Z" fill="#244777"/>
</svg>
