<svg width="367" height="367" viewBox="0 0 367 367" fill="none" xmlns="http://www.w3.org/2000/svg">
<path d="M333.053 116.508L316.905 112.104L297.593 95.2292L286.693 96.4109L270.802 90.7591L258.713 96.477L259.506 87.2873L248.466 79.4629L234.814 76.1232L225.096 83.0081L219.51 83.2136L226.997 72.5779L212.221 70.1411L210.974 62.324L215.767 55.8281L209.66 52.7379L203.355 35.4008L195.207 49.5891L182.34 50.7047L176.424 48.7963L165.524 50.7047L167.036 53.7949L157.847 54.1839L141.625 58.6466L131.636 46.0438L134.594 36.3257L131.636 32.4428L131.973 29.4261L128.685 27.9801L114.108 36.4505L106.225 38.7479L95.8531 36.9789L100.646 47.0274L104.456 47.3577L106.555 50.6387L89.4086 63.2488L73.9799 63.447L72.4018 54.7784L67.1537 57.0098L53.883 56.9437L53.2958 60.8853L59.8577 61.3404L59.9311 65.0177L51.4608 67.3886L52.4443 72.6367L58.0888 79.9913L51.4608 106.525L34.4466 110.401L28.2737 121.367V126.953L22.2989 131.019L21.9026 135.423L36.0908 152.298L49.2881 147.439L50.2056 160.504L66.2289 159.851L78.6408 151.505L92.0436 149.208L92.3666 161.098L99.457 169.965L128.817 179.419L132.164 182.179L133.808 191.112L134.006 200.044L148.319 200.235L148.782 208.647L155.219 213.572L151.542 230.645L153.245 247.593L168.152 249.56L172.424 261.51H175.184L179.647 264.402L178.465 276.021L183.192 276.747L185.232 282.128L184.77 289.482L174.068 295.266L158.5 313.132H162.508L170.648 320.288L178.531 325.544L188.183 333.684L186.216 337.361L186.803 341.038L190.025 339.064L202 323L186.216 317.5L172.424 311L175.184 298.5L186.803 294.87L220.295 300.257L221.477 294.87L221.022 279.639L222.138 275.83L225.588 273.452L238.161 264.798L250.441 259.344L252.217 256.195L271.587 256.981L272.703 254.742L279.397 251.065L281.173 244.305L290.635 232.025L292.536 221.646L296.279 217.514L299.171 204.243L298.775 182.179L304.096 173.444L306.724 176.336L316.574 161.297L333.845 145.927L336.011 136.274V126.101L333.053 116.508Z" stroke="#244777" stroke-width="2.83" stroke-linecap="round" stroke-linejoin="round"/>
<path d="M298.541 331.013C312.743 331.013 324.255 319.501 324.255 305.3C324.255 291.098 312.743 279.586 298.541 279.586C284.34 279.586 272.828 291.098 272.828 305.3C272.828 319.501 284.34 331.013 298.541 331.013Z" fill="#003366"/>
<path d="M302.034 320.403L296.094 320.447C295.984 319.527 296.147 318.81 295.916 317.893C293.509 317.416 291.172 317.146 288.835 316.313C288.691 314.51 288.712 312.905 288.816 310.9C292.165 311.883 298.088 313.515 301.394 312.037C301.968 311.781 302.301 311.416 302.345 310.945C302.691 307.369 288.667 308.047 288.437 300.015C288.313 295.721 291.732 293.361 295.898 292.632C296.149 291.817 295.956 291.079 296.113 290.177L301.848 290.125C302.209 290.825 301.91 291.579 302.17 292.42C304.192 292.779 306.118 292.863 308.091 293.596C308.235 295.443 308.214 297.261 308.091 299.132C305.72 298.231 295.633 297.007 295.002 299.423C294.433 301.605 300.661 301.796 305.3 304.974C308.717 307.314 309.809 311.974 307.289 315.328C306.086 316.926 304.074 317.267 302.324 317.893C301.79 318.317 302.154 319.42 302.031 320.408L302.034 320.403Z" fill="white"/>
<path d="M235.029 331.921L211.047 326.83L230.226 343.396C232.749 345.573 236.412 344.967 239.579 344.598L292.377 332.969C297.504 334.048 302.248 333.775 307.386 332.298C306.548 334.1 305.156 335.153 303.933 336.477C301.879 337.551 299.825 338.229 297.52 338.782L266.666 346.186L239.603 351.952C237.601 352.379 235.474 352.057 233.514 351.934C229.826 351.7 226.781 350.239 224.044 347.894L201.186 328.31C198.919 326.369 196.748 323.749 194.057 322.599C188.922 321.504 183.832 321.336 178.933 319.314C176.287 318.221 173.339 317.132 171.487 314.884C165.951 308.167 167.243 298.68 173.688 293.233L185.076 283.606L226.729 247.051C230.384 243.842 234.371 241.149 239.731 242.251L279.131 250.357C284.303 251.421 289.071 252.587 294.077 254.164C296.089 254.798 297.457 257.195 298.062 259.016C298.646 260.768 298.02 262.372 297.286 263.81C296.121 266.097 294.171 267.184 292.285 268.827L256.034 300.404L249.309 306.715C246.171 309.66 240.949 310.818 236.559 309.896L182.621 298.578C180.478 298.127 178.278 299.835 177.308 301.169C173.483 306.437 178.451 311.373 180.117 311.735L237.939 324.302C241.432 325.062 244.688 324.344 247.685 322.78L270.058 303.081C269.508 309.993 271.533 316.644 275.652 322.256L254.955 326.791C252.375 328.968 249.831 330.92 246.58 331.871C242.786 332.879 239.024 332.769 235.026 331.921H235.029Z" fill="#1C3661"/>
<path d="M253.685 271.805C255.243 272.376 256.546 271.391 258.183 271.37C256.383 273.065 254.08 273.052 251.835 273.086C242.118 273.235 233.365 271.25 223.515 271.805C224.518 270.663 226.095 271.134 227.384 270.534L243.797 262.879C245.519 263.22 247.101 263.424 248.854 264.108L236.999 271.1L246.082 271.821L250.64 264.409L255.804 265.515L253.685 271.808V271.805Z" fill="white"/>
<path d="M247.402 288.913L237.939 285.795C238.974 283.319 240.541 281.281 241.895 278.9L250.866 279.196L247.405 288.913H247.402Z" fill="white"/>
<path d="M257.693 275.486C255.854 279.041 244.816 278.037 241.146 277.812L222.86 276.678C219.341 276.46 216.155 276.819 212.519 277.27C215.917 273.937 226.779 275.127 231.264 275.402L249.579 276.523C252.414 276.696 254.984 276.138 257.693 275.483V275.486Z" fill="white"/>
<path d="M258.133 273.236C256.483 275.12 253.944 275.427 251.497 275.482C239.912 275.744 229.488 273.252 218.042 274.347C219.181 272.05 226.63 272.495 228.977 272.665L248.283 274.08C251.652 274.326 254.73 274.085 258.133 273.239V273.236Z" fill="white"/>
<path d="M219.063 281.576L207.665 280.138C211.862 277.078 220.156 277.23 225.165 277.798L219.063 281.576Z" fill="white"/>
</svg>
